<?xml version="1.0" encoding="UTF-8"?><svg xmlns="http://www.w3.org/2000/svg" viewBox="0 0 252 347"><defs><style>.cls-1{fill:#fff;stroke:#2b2b2b;stroke-miterlimit:10;stroke-width:.25px;}.cls-2{fill:#f46300;stroke-width:0px;}</style></defs><g id="Layer_2"><rect class="cls-1" x="6" y="7" width="240" height="333" rx="16.98" ry="16.98"/></g><g id="Layer_3"><path class="cls-2" d="m24.92,58.02v-3.55c0-5.26,1.39-9.03,10.02-12.54,5.35-2.2,6.43-3.77,6.43-7.06v-.13c0-2.79-1.89-4.94-5.12-4.94-3.6,0-5.71,2.11-5.84,5.75h-5.21c.36-6.02,4.45-10.02,10.96-10.02s10.38,4.04,10.38,9.08v.27c0,4.31-1.66,7.59-9.03,10.74-6.11,2.61-7.05,4.4-7.14,7.95h16.4v4.45h-21.84Z"/><polygon class="cls-2" points="39.06 72.75 46.2 73.68 40.92 78.88 42.01 86.07 35.67 82.78 29.2 86.3 30.57 79.07 25.49 74.05 32.66 72.87 35.99 66.25 39.06 72.75"/><polygon class="cls-2" points="134.66 77.62 153.86 80.11 139.66 94.1 142.58 113.45 125.54 104.59 108.14 114.06 111.8 94.6 98.14 81.1 117.45 77.93 126.4 60.12 134.66 77.62"/><polygon class="cls-2" points="134.66 250.44 153.86 252.93 139.66 266.92 142.58 286.26 125.54 277.41 108.14 286.88 111.8 267.41 98.14 253.92 117.45 250.75 126.4 232.94 134.66 250.44"/><path class="cls-2" d="m228.76,292.88v3.55c0,5.26-1.39,9.03-10.02,12.54-5.35,2.2-6.43,3.78-6.43,7.06v.13c0,2.79,1.89,4.94,5.12,4.94,3.59,0,5.71-2.11,5.84-5.75h5.21c-.36,6.02-4.45,10.02-10.96,10.02s-10.38-4.04-10.38-9.08v-.27c0-4.31,1.66-7.59,9.03-10.74,6.11-2.61,7.06-4.4,7.15-7.96h-16.4v-4.45h21.84Z"/><polygon class="cls-2" points="214.62 278.15 207.49 277.23 212.76 272.02 211.68 264.83 218.02 268.12 224.48 264.6 223.12 271.84 228.2 276.86 221.02 278.04 217.7 284.66 214.62 278.15"/></g></svg>