<?xml version="1.0" encoding="UTF-8"?><svg xmlns="http://www.w3.org/2000/svg" xmlns:xlink="http://www.w3.org/1999/xlink" viewBox="0 0 252 347"><defs><style>.cls-1{fill:#fff;stroke:#2b2b2b;stroke-miterlimit:10;stroke-width:.25px;}.cls-2{fill:none;}.cls-2,.cls-3{stroke-width:0px;}.cls-4{clip-path:url(#clippath);}.cls-3{fill:#f46300;}</style><clipPath id="clippath"><rect class="cls-2" x="291.5" y="19" width="213" height="309" rx="9.42" ry="9.42"/></clipPath></defs><g id="Layer_2"><rect class="cls-1" x="6" y="7" width="240" height="333" rx="16.98" ry="16.98"/></g><g id="Layer_6"><g class="cls-4"><path class="cls-3" d="m198,196.5c7.26.2,13.42,4.32,15.7,10.69.41,1.15,1.5,2.53.45,3.69-1.06,1.18-2.44.27-3.69-.09-4.8-1.41-7.69-4.86-9.85-9.12-.63-1.24-.57-3.08-2.61-3.18v-2Z"/><path class="cls-3" d="m198,63.51c7.58.58,14.19,5.3,15.97,11.49.26.91.65,2.17.25,2.8-.73,1.15-2.08.58-3.19.21-4.42-1.49-7.96-3.97-10.02-8.36-.71-1.51-.52-3.85-3-4.14v-2Z"/><path class="cls-3" d="m198,147.5c2.47-.27,2.26-2.61,2.99-4.1,1.83-3.74,4.54-6.44,8.37-8.05,1.37-.57,2.87-1.48,4.08-.04,1.05,1.25.72,2.91-.05,4.21-3.44,5.89-8.15,9.91-15.39,9.97v-2Z"/><path class="cls-3" d="m198,280.49c2.47-.27,2.26-2.61,2.98-4.09,1.9-3.91,4.79-6.64,8.79-8.25,1.24-.5,2.56-1.09,3.65.1.9.97.38,2.15.08,3.27-1.58,5.84-7.94,10.36-15.5,10.97v-2Z"/><path class="cls-3" d="m198,240.49c7.56.61,13.93,5.13,15.5,10.97.3,1.12.82,2.3-.08,3.27-1.1,1.19-2.41.6-3.65.1-4-1.61-6.89-4.33-8.79-8.25-.72-1.49-.52-3.82-2.98-4.09v-2Z"/><path class="cls-3" d="m198,14.52c2.48-.28,2.24-2.64,3.01-4.12,1.99-3.86,4.65-6.85,8.99-8.02,1.22-.32,2.57-1.4,3.61.09.72,1.03.25,2.23-.25,3.32-3.02,6.58-7.85,10.57-15.35,10.73v-2Z"/><path class="cls-3" d="m198,264.49c3.92,3.67,3.92,7.33,0,11v-11Z"/><path class="cls-3" d="m198,220.5c4.73,3.67,2.98,7.33,0,11v-11Z"/><path class="cls-3" d="m198,87.51c4.72,3.67,2.99,7.33,0,11v-11Z"/><path class="cls-3" d="m198,247.49c3.92,3.67,3.92,7.33,0,11v-11Z"/><path class="cls-3" d="m198,114.51c3.01,3.67,4.71,7.33,0,11v-11Z"/><path class="cls-3" d="m198,291.49c2.98,3.67,4.73,7.33,0,11v-11Z"/><path class="cls-3" d="m198,26.52c3.99,4.18,3.99,5.82,0,10v-10Z"/><path class="cls-3" d="m198,159.5c3.99,4.17,3.99,5.81,0,10v-10Z"/><path class="cls-3" d="m198,131.5c3.32,3.67,4.18,7.33,0,11v-11Z"/><path class="cls-3" d="m198,309.49c4.4,3.33,3.38,6.67,0,10v-10Z"/><path class="cls-3" d="m198,336.48c3.4,3.33,4.38,6.67,0,10v-10Z"/><path class="cls-3" d="m198,43.51c4.37,3.33,3.4,6.67,0,10v-10Z"/><path class="cls-3" d="m198,70.51c3.37,3.33,4.41,6.67,0,10v-10Z"/><path class="cls-3" d="m198,203.5c3.38,3.33,4.4,6.67,0,10v-10Z"/><path class="cls-3" d="m198,176.5c4.38,3.33,3.39,6.67,0,10v-10Z"/><path class="cls-3" d="m198-.48c4.43,3.33,3.35,6.67,0,10V-.48Z"/><path class="cls-3" d="m262.87,57.91c.11,2-.7,2.57-2.73,2.19-5.07-.96-10.8-6.66-11.72-11.77-.29-1.57-.31-2.62,1.73-2.58,4.35.1,12.46,7.8,12.72,12.16Z"/><path class="cls-3" d="m217.48,233.38c-2.08.09-2.55-1.07-2.28-2.88.69-4.63,7.86-11.33,12.55-11.74,1.53-.13,2.09.45,2.01,1.99-.24,4.5-8.01,12.55-12.27,12.63Z"/><path class="cls-3" d="m250.74,34.31c-2.51-.06-2.58-1.02-2.39-2.39.64-4.56,7.08-11.42,11.54-12.19,1.73-.3,2.99,0,3.02,2.14.05,4.52-8.39,12.59-12.17,12.43Z"/><path class="cls-3" d="m202.16,193.24c-1.94.17-2.13-1.1-2.12-2.55.02-4.39,8-12.08,12.55-12.09,1.43,0,2.03.42,1.84,2.08-.52,4.7-7.86,12.35-12.27,12.56Z"/><path class="cls-3" d="m247.76,187.21c.07,1.87-.79,2.14-2.22,1.99-4.53-.48-11.91-7.53-12.38-11.9-.16-1.52.09-2.6,2.03-2.55,4.89.11,12.69,7.95,12.57,12.47Z"/><path class="cls-3" d="m235.62,215.36c-2.42.14-2.77-1.2-2.33-3.19.99-4.49,7.18-10.32,11.85-11.23,1.53-.3,2.64-.41,2.62,1.67-.04,4.32-7.78,12.49-12.14,12.75Z"/><path class="cls-3" d="m214.42,342.02c.27,2.65-1.23,2.64-2.5,2.2-5.26-1.8-9.11-5.3-11.53-10.29-.57-1.18-.77-2.66.24-3.75,1-1.08,2.17-.2,3.23.13,4.64,1.45,10.48,8.2,10.57,11.71Z"/><path class="cls-3" d="m247.77,320.2c0,1.95-.94,2.39-2.28,1.9-5.49-2.03-10.11-5.08-12.08-10.98-.58-1.76-.67-3.42,1.88-3.52,4.23-.17,12.66,8.59,12.48,12.6Z"/><path class="cls-3" d="m229.83,168.59c-.14,2.78-1.16,2.74-2.48,2.54-4.6-.7-11.39-7.1-12.14-11.54-.29-1.74.04-2.98,2.16-2.99,4.28-.03,12.65,8.78,12.46,11.99Z"/><path class="cls-3" d="m229.71,301.76c.18,2.39-.81,2.88-2.42,2.27-5.29-2.02-9.8-4.96-11.77-10.65-.79-2.29-.7-4.11,2.49-3.68,4.46.6,11.54,8.22,11.71,12.07Z"/><path class="cls-3" d="m229.71,257.81c.23,2.61-1,2.28-2.47,1.89-5.7-1.53-9.52-4.99-11.54-10.58-1.19-3.29.3-3.92,3.05-3.47,4.06.67,10.79,8.44,10.96,12.16Z"/><path class="cls-3" d="m217.65,11.97c-2.89.17-2.61-1.27-2.42-2.6.69-4.92,6.67-10.93,11.6-11.62,1.26-.18,2.7-.63,2.67,1.64-.06,4.58-7.97,12.57-11.85,12.58Z"/><path class="cls-3" d="m247.79,55.79c.01.63-1.11.69-2.65.28-5.96-1.57-9.66-5.56-11.77-11.13-.63-1.68-.66-3.4,2.12-3.1,4.59.5,12.08,8.13,12.3,13.94Z"/><path class="cls-3" d="m214.41,165.33c.39,1.82-.47,2.02-1.92,1.86-4.69-.53-11.77-7.27-12.33-11.8-.28-2.28.75-3.04,2.88-2.68,4.41.74,11.11,8.23,11.37,12.62Z"/><path class="cls-3" d="m235.36,82.42c-2.16-.03-2.3-1.16-1.87-2.98,1.15-4.87,7.25-10.8,12.02-11.58,1.41-.23,2.21.02,2.26,1.66.13,4.56-7.88,12.94-12.41,12.91Z"/><path class="cls-3" d="m262.71,155.19c-.18,3.93-7.82,11.53-12.41,12.02-1.95.21-2.19-.71-1.93-2.39.72-4.67,6.87-11.26,11.48-12.09,1.64-.3,3.09-.24,2.86,2.46Z"/><path class="cls-3" d="m229.76,264.56c.14,4.59-7.79,12.85-12.3,12.84-2.11,0-2.41-1-2-2.89,1.08-4.95,6.86-10.47,12.05-11.3,2.02-.32,2.21-.21,2.26,1.34Z"/><path class="cls-3" d="m214.45,47.57c0,4.58-7.76,12.6-12.38,12.7-1.98.04-2.04-1.19-1.9-2.65.42-4.28,7.88-11.64,12.16-11.96,1.26-.09,2.4-.01,2.13,1.91Z"/><path class="cls-3" d="m250.63,78.38c-1.96.12-2.83-.64-2.16-2.67,1.96-5.93,5.91-9.87,11.87-11.76,2.14-.68,2.69.48,2.5,2.35-.45,4.37-7.94,11.79-12.21,12.08Z"/><path class="cls-3" d="m247.78,335.25c.37,4.29-8.71,13.39-12.94,13.01-2.02-.18-1.85-1.55-1.61-2.9.8-4.59,7.37-10.76,12.07-11.5,1.3-.2,2.34-.3,2.48,1.38Z"/><path class="cls-3" d="m201.2,326.2c-1.58-.15-1.25-1.84-1.07-3.26.55-4.26,7.71-10.9,12.1-11.3,1.2-.11,2.27-.19,2.27,1.66,0,4.07-8.68,13.09-13.3,12.91Z"/><path class="cls-3" d="m217.53,23.76c3.86-.05,12.16,8.31,12.23,12.73.03,1.66-.83,1.86-2.23,1.72-4.66-.48-11.78-7.23-12.36-11.82-.19-1.48-.03-2.7,2.36-2.63Z"/><path class="cls-3" d="m247.77,24.97c-.3,5.11-7.93,12.77-12.45,13.25-2.37.25-2.38-1.22-2.1-2.83.73-4.21,7.2-10.71,11.51-11.59,1.6-.33,3.09-.41,3.04,1.18Z"/><path class="cls-3" d="m250.63,211.37c-1.97.13-2.83-.65-2.16-2.67,1.96-5.93,5.92-9.87,11.87-11.77,2.13-.68,2.69.48,2.5,2.35-.45,4.37-7.94,11.78-12.21,12.09Z"/><path class="cls-3" d="m250.06,90.08c5.31.31,12,6.72,12.62,11.9.27,2.25-.83,2.58-2.6,2.35-4.56-.59-11.29-7.64-11.76-12.32-.19-1.84-.02-2.03,1.73-1.93Z"/><path class="cls-3" d="m235.07,86.05c4.59.03,12.57,7.78,12.68,12.4.04,1.61-.85,1.97-2.18,1.96-4.35-.03-12.16-7.71-12.45-12.25-.08-1.26.03-2.39,1.94-2.11Z"/><path class="cls-3" d="m229.7,88.15c-.24,4.07-7.31,11.58-11.75,12.17-2.69.36-3.4-1.09-2.57-3.27,2.14-5.63,6.33-9.2,11.97-11.11,1.68-.57,2.57.03,2.35,2.2Z"/><path class="cls-3" d="m235.12,171.24c-1.57.17-2.02-.73-2.03-2.1-.02-4.22,7.93-12.29,12.33-12.51,1.61-.08,2.51.39,2.26,2.27-.62,4.62-8.26,12.18-12.57,12.34Z"/><path class="cls-3" d="m250.78,122.46c-2.28.21-2.69-.89-1.92-3,1.99-5.44,5.65-9.15,11.11-11.07,1.58-.55,2.99-.87,2.93,1.6-.1,4.57-7.54,12.33-12.13,12.47Z"/><path class="cls-3" d="m247.39,114.95c-.28,4.09-7.98,11.65-12.33,12.01-1.73.14-1.99-.64-1.96-1.97.11-4.28,7.14-11.94,11.5-12.38,1.37-.14,3.24-.55,2.79,2.34Z"/><path class="cls-3" d="m262.87,190.9c.11,1.98-.68,2.58-2.7,2.18-4.95-.96-11-7.39-11.62-12.37-.2-1.63.22-2.07,1.78-1.96,4.69.33,12.27,7.63,12.54,12.15Z"/><path class="cls-3" d="m262.76,279.79c-.03,2.2-1.94,1.79-3.53,1.53-3.94-.64-10.3-7.45-10.91-11.39-.29-1.87.57-2.36,2.2-2.34,4.61.07,11.97,7.11,12.24,12.19Z"/><path class="cls-3" d="m250.1,299.99c-2.15.14-1.91-.97-1.71-2.23.76-4.73,6.85-11.2,11.43-12.03,1.6-.29,3.03-.31,2.93,2.03-.21,4.58-8.34,12.31-12.65,12.24Z"/><path class="cls-3" d="m247.74,291.54c-.08,4.65-8.02,12.25-12.8,12.45-1.8.07-1.88-.87-1.81-2.12.25-4.39,8.25-12.27,12.47-12.29,1.62,0,2.17.5,2.14,1.96Z"/><path class="cls-3" d="m262.94,325c.04.78-.65,1.55-2.73,1.05-5.27-1.25-10.39-6.64-11.52-11.91-.46-2.17.16-2.75,2.16-2.49,4.41.56,11.71,7.97,12.08,13.35Z"/><path class="cls-3" d="m250.45,344.2c-1.72.21-2.1-.37-1.88-1.97.67-5,6.73-11.43,11.64-12.35,2.04-.38,2.8.25,2.66,2.24-.32,4.54-7.91,11.86-12.42,12.08Z"/><path class="cls-3" d="m247.72,10.07c.2,1.78-.44,2.08-2.01,1.86-5.02-.7-11.44-6.77-12.33-11.66-.38-2.07.33-2.77,2.29-2.62,4.56.35,11.87,7.97,12.05,12.42Z"/><path class="cls-3" d="m262.73,242.93c.26,4.89-7.76,12.63-12.4,12.47-1.74-.06-2.53-.85-1.89-2.53,1.97-5.14,5.05-9.34,10.52-11.13,1.44-.47,3.39-.9,3.77,1.18Z"/><path class="cls-3" d="m250.3,1.61c4.36-.1,12.82,8.44,12.61,12.69-.08,1.55-.71,1.83-2.24,1.62-5.02-.71-11.25-6.63-12.29-11.76-.35-1.75.2-2.51,1.92-2.54Z"/><path class="cls-3" d="m250.09,222.99c4.27-.1,12.41,7.62,12.66,12.22.13,2.34-1.29,2.34-2.9,2.06-4.57-.81-10.67-7.28-11.45-12.02-.2-1.24-.49-2.38,1.69-2.26Z"/><path class="cls-3" d="m235.53,263.6c4.64.18,12.52,8.55,12.26,12.95-.11,1.93-1.19,1.48-2.39,1.21-6.28-1.4-9.83-5.63-11.92-11.4-.7-1.92.04-2.83,2.05-2.76Z"/><path class="cls-3" d="m229.53,213.59c.05,2.03-1.23,1.86-2.4,1.72-4.25-.51-11.27-7.45-11.93-11.81-.17-1.14-.44-2.37,1.36-2.57,4.54-.52,13.25,8.1,12.97,12.66Z"/><path class="cls-3" d="m247.84,144.54c-7.34-.42-12.02-3.88-14.01-10.15-.34-1.06-1.22-2.22-.16-3.24,1.15-1.11,2.45-.43,3.71.05,5.24,2,8.74,6.35,10.46,13.34Z"/><path class="cls-3" d="m229.45,43.69c-.21,4.66-6.85,11.64-11.93,12.48-2.26.38-2.56-.82-2.33-2.57.6-4.57,7.58-11.21,12.28-11.77,1.4-.17,2.33-.05,1.98,1.86Z"/><path class="cls-3" d="m217.28,321.9c-2.33.41-2.29-.95-2.09-2.38.61-4.32,7.62-11.3,11.9-11.85,1.44-.19,2.6-.22,2.37,1.97-.53,5.19-7.23,11.97-12.18,12.26Z"/><path class="cls-3" d="m229.42,176.8c-.25,4.84-7.04,11.57-12.24,12.15-2.17.24-2.19-.86-2.01-2.33.52-4.26,7.46-11.26,11.82-11.92,1.41-.21,2.8-.3,2.42,2.1Z"/><path class="cls-3" d="m247.52,231.6c.06,2.03-1.21,1.86-2.38,1.72-4.24-.49-11.26-7.43-11.93-11.8-.17-1.14-.45-2.37,1.35-2.58,4.54-.53,13.24,8.07,12.97,12.66Z"/><path class="cls-3" d="m229.9,126.53c-7.38-.4-12.06-3.85-14.07-10.13-.34-1.06-1.22-2.21-.18-3.24,1.15-1.12,2.48-.51,3.7.04,5.65,2.53,9.41,6.6,10.55,13.33Z"/><path class="cls-3" d="m229.47,132.85c.02,3.48-7.23,11.29-11.26,11.59-1.51.11-3.11.18-2.95-2.15.3-4.2,7.38-11.43,11.58-11.7,1.25-.08,2.82-.35,2.63,2.26Z"/><path class="cls-3" d="m235.48,259.39c-1.65.05-2.4-.55-2.18-2.39.53-4.48,6.89-11.03,11.38-11.42,1.43-.12,3.09-.47,2.73,2.16-.6,4.41-7.73,11.55-11.94,11.65Z"/><path class="cls-3" d="m213.98,31.93c.01,1.69-.56,2.29-2.45,1.94-4.4-.82-10.99-7.37-11.39-11.6-.15-1.55.16-2.59,2.09-2.51,4.59.19,11.96,7.77,11.74,12.17Z"/><path class="cls-3" d="m216.79,333.71c4.22-.36,12.87,8.55,12.77,13.03-.03,1.47-.77,1.54-1.88,1.48-4.66-.27-12.21-7.52-12.54-12.08-.09-1.25.03-2.35,1.65-2.43Z"/><path class="cls-3" d="m262.9,147.15c0,1.45-.49,1.98-2.13,1.78-4.85-.59-11.21-6.88-12.14-11.95-.34-1.88.16-2.47,1.92-2.38,4.39.22,12.4,8.35,12.34,12.54Z"/><path class="cls-3" d="m216.79,68.02c4.51-.15,12.56,7.94,12.71,12.58.06,1.83-.93,1.86-2.17,1.77-4.26-.28-11.75-7.73-12.19-12.09-.17-1.74.18-2.22,1.64-2.27Z"/><path class="cls-3" d="m213.91,92.86c.06,4.09-7.01,11.26-11.3,11.52-2.04.12-2.67-.85-2.45-2.74.51-4.32,7.11-10.8,11.24-11.01,1.82-.09,2.48.49,2.51,2.23Z"/><path class="cls-3" d="m213.87,119.88c.18,2-.8,2.69-2.7,2.47-4.3-.49-10.77-7.08-11.04-11.21-.13-2.02.81-2.69,2.71-2.47,4.29.49,10.8,7.07,11.04,11.22Z"/><path class="cls-3" d="m200.13,288.11c-.17-2.01.81-2.68,2.71-2.45,4.12.49,10.22,6.45,10.95,10.73.36,2.1-.3,3.23-2.64,2.95-4.31-.51-10.8-7.09-11.03-11.23Z"/><path class="cls-3" d="m213.87,226.1c-.22,4.14-6.71,10.71-11.03,11.23-1.9.23-2.85-.43-2.72-2.46.25-4.13,6.73-10.72,11.03-11.22,1.9-.22,2.89.44,2.72,2.45Z"/><path class="cls-3" d="m204.46,254.48c1.51,2.55,6.48,2.15,5.59,4.59-.89,2.44,1.59,4.59-.22,6.13-1.57,1.33-4.07,3.01-5.6,2.57-2.43-.69-3.92-3.65-4-6.18-.08-2.77,2.02-4.91,4.24-7.1Z"/><path class="cls-3" d="m204.08,135.03c-2.06-1.26-3.61-3.74-3.74-6.09-.15-2.69,1.71-5.87,4.1-6.63,1.3-.41,5.09,1.15,5.96,3.44,1.2,3.17-2.87,9-6.32,9.28Z"/><path class="cls-3" d="m225.34,276.91c1.28,2.59,4.64,4.43,3.96,6.95-.59,2.18-1.28,5.95-4.77,6.08-2.95.11-6.08-5.26-5.31-8.82.66-3.05,4.13-2.22,6.11-4.22Z"/><path class="cls-3" d="m229.78,328.14c-2.29,1.74-1.92,5.9-5.04,5.74-1.94-.1-5.29-.39-5.66-3.98-.48-4.59,1.24-7.93,5.93-7.85,2.8.05,2.77,4.06,4.77,6.09Z"/><path class="cls-3" d="m210.75-2.02c-1.56,2.35-4.24,3.5-6.04,3.71-3.05.35-4.04-3.4-4.28-5.49-.32-2.74,1.38-6.01,4.15-6.91,1.34-.44,3.89,1.61,5.34,3.08,1.44,1.46-2.68,3.88.83,5.62Z"/><path class="cls-3" d="m224.79,201.4c-1.97-1.55-5.42-1.17-5.81-4.03-.6-4.35,2.33-8.61,5.49-8.39,3.48.25,4.44,3.94,4.56,6.13.11,1.99-1.52,4.94-4.24,6.29Z"/><path class="cls-3" d="m225.41,55.93c2,1.52,3.88,4.1,3.66,6.63-.19,2.15-1.48,5.75-4.69,5.31-1.87-.25-5-.59-5.32-3.85-.44-4.45,1.2-7.37,6.35-8.08Z"/><path class="cls-3" d="m225.25,11.89c1.91,1.16,4.16,3.44,4.1,5.63-.06,2.46-1.93,5.84-4.56,6.21-1.46.21-5.51-.69-5.58-3.76-.1-4.71,2.62-8.15,6.04-8.08Z"/><path class="cls-3" d="m219.86,239.33c-2.87-5.17,2.55-5.6,4.89-5.76,2.75-.18,4.61,3.65,4.58,6.02-.02,2.09-2.19,5.9-4.28,5.66-1.85-.21-7.12-.4-5.18-5.92Z"/><path class="cls-3" d="m224.89,145.01c2.37.7,3.46,3.19,4.65,5.37.64,1.18-4.17,7.17-4.94,6.57-1.79-1.41-5.48-1.3-5.4-3.83.11-3.38-.76-8.34,5.69-8.1Z"/><path class="cls-3" d="m243.46,191.59c-.67,4.6-.01,9.43-5.19,9.32-2.83-.06-4.91-3.51-4.84-5.97.07-2.4,1.99-5.76,4.96-5.77,1.56,0,4.51.95,5.07,2.42Z"/><path class="cls-3" d="m237.96,144.47c1.74,1.47,4.94,1.01,5.25,3.86.5,4.68-2.03,8.82-5.13,8.36-3.09-.46-4.55-3.69-4.48-6.15.06-2.17,1.53-4.89,4.36-6.08Z"/><path class="cls-3" d="m242.79,15.74c1.63,5.08-.75,7.97-5.03,7.87-2.52-.06-4.64-3.77-4.12-6.32.4-1.97,1.2-5.84,4.6-5.33,1.8.27,5.06.62,4.56,3.78Z"/><path class="cls-3" d="m210.06,81.12c.19,5.09-2.44,9.58-5.27,9.06-2.88-.53-4.35-3.4-4.43-5.88-.08-2.49,1.46-5.68,3.98-6.08,1.8-.29,4.02,1.96,5.72,2.9Z"/><path class="cls-3" d="m210.11,169.98c-.03,5.18-3.03,9.78-5.73,9-2.66-.78-4.56-4.2-4.37-5.93.22-2.06,1.56-5.85,4.8-5.86,1.9,0,4.29,1.22,5.3,2.79Z"/><path class="cls-3" d="m209.58,214.34c1.73,5.34-.48,8.38-5.04,8.53-2.74.09-4.13-3.65-4.14-5.86,0-2.22,1.35-5.66,4.14-5.85,1.88-.13,4.61,1.07,5.04,3.19Z"/><path class="cls-3" d="m237.55,232.58c2.2,1.93,6.02,1.54,5.74,4.53-.3,3.22.2,8.04-5.19,8.08-3.3.02-4.28-3.6-4.44-5.58-.2-2.38,2-4.81,3.89-7.03Z"/><path class="cls-3" d="m238.27,277.5c1.35,1.79,4.81.67,4.83,4.44.02,4.03-.31,7.89-5.21,7.69-2.88-.12-4.23-3.99-4.22-6.31,0-1.96,1.38-5.01,4.59-5.82Z"/><path class="cls-3" d="m203.64,355.93c-1.13-1.67-3.91-3.98-3.66-5.87.29-2.11,1.62-5.96,4.8-5.83,1.65.07,5.06.4,5.09,3.9.03,3.99-.39,7.58-6.23,7.8Z"/><path class="cls-3" d="m203.68,311.84c-1.5-1.3-3.52-3.64-3.27-5.99.23-2.18,1.3-5.82,4.27-5.62,1.61.11,5.59-.06,5.33,3.51-.26,3.65.05,8.14-6.33,8.1Z"/><path class="cls-3" d="m237.26,67.94c-1.89-1.29-4.26-3.56-3.81-6.29.35-2.12,1.77-5.55,4.86-5.19,1.82.21,5.33.73,5,3.67-.37,3.31.26,8.01-6.05,7.81Z"/><path class="cls-3" d="m210.82,37.72c-3.84,1.74.97,4.54-1.6,6.12-1.54.94-3.64,2.5-4.89,2.06-2.51-.87-4.32-3.81-3.88-6.17.38-2.06,1.09-5.74,4.44-5.53,1.98.12,4.16,1.4,5.92,3.52Z"/><path class="cls-3" d="m243.54,330.6c-.96,1.85-3.49,3.07-5.35,2.96-2.97-.17-4.85-3.33-4.74-5.83.1-2.27,1.97-5.07,4.68-5.76,2.32-.59,5.46,4.35,5.42,8.62Z"/><path class="cls-3" d="m243.5,103.29c.35,4.25-2.94,9.74-5.6,9.35-3-.44-4-3.91-4.23-5.97-.25-2.19,1.44-5.72,3.88-6.22,1.81-.37,4.16,1.9,5.95,2.84Z"/><path class="cls-3" d="m225.17,99.68c1.57,2.45,4.22,4.75,4.11,6.9-.11,2.09-1.8,5.98-4.68,5.91-5.25-.14-4.24-5.44-4.9-8.56-.53-2.51,3.37-2.35,5.47-4.25Z"/><path class="cls-3" d="m256.55,194.78c-1.29,1.91-2.98,3.25-4.85,3.4-2.11.17-4.89-.76-5.22-2.89-.4-2.66,2.69-3.1,4.58-3.46,2.26-.43,3.73,1.62,5.48,2.95Z"/><path class="cls-3" d="m218.02,309.23c-1.84-.78-4.4-.95-4.67-3.16-.31-2.5,2.21-3.09,4.08-3.4,2.33-.38,4.71,1.01,4.87,3.05.16,1.93-2.63,2.49-4.28,3.51Z"/><path class="cls-3" d="m222.76,83.77c-.88,2.25-2.44,3.28-4.19,3.54-2.22.32-4.68-.44-5.18-2.76-.57-2.63,2.27-3.03,3.96-3.47,2.38-.63,3.53,1.84,5.41,2.69Z"/><path class="cls-3" d="m222.63,217.55c-1.56,1.67-3.38,2.99-5.58,2.64-1.84-.29-4.59-1.12-4.13-3.35.41-2.02,3.22-3.06,5.26-2.82,1.71.21,3.67,1.33,4.45,3.52Z"/><path class="cls-3" d="m231.6,297.15c-2.41-.79-2.95-2.86-3.28-4.64-.38-2.01.53-4.26,2.66-4.65,2.63-.48,3.04,2.28,3.45,3.96.56,2.3-1.56,3.67-2.83,5.33Z"/><path class="cls-3" d="m231.71,154.66c1.87,1.19,3.21,3.15,2.7,5.19-.39,1.59-1.29,4.52-3.52,3.92-1.91-.52-2.92-3.11-2.58-5.32.26-1.71.98-3.54,3.4-3.79Z"/><path class="cls-3" d="m217.31,169.61c2.05.36,4.48,1.04,4.77,3.01.34,2.27-2.45,3.25-4.08,3.34-1.98.12-4.92-.83-5.13-3.01-.2-2.07,2.55-2.66,4.44-3.34Z"/><path class="cls-3" d="m211.14,191.76c2.03.81,4.99.72,5.05,3.27.05,2.08-2.48,3.07-4.39,3.18-2.18.13-4.69-1.33-4.89-3.19-.19-1.75,2.57-2.47,4.23-3.26Z"/><path class="cls-3" d="m234.86,230.29c-.95,2.08-1.09,4.68-3.33,4.88-2.44.22-3.28-2.27-3.25-4.14.03-2.01.76-4.85,3.08-4.9,1.9-.04,2.22,2.89,3.5,4.16Z"/><path class="cls-3" d="m245.01,258.45c1.87.61,4.5.74,4.41,3.11-.09,2.25-2.61,2.86-4.55,2.77-2.07-.1-5.04-.86-4.98-2.91.06-1.95,3.07-2.4,5.12-2.97Z"/><path class="cls-3" d="m231.36,31.9c-3.41-2.99-3.99-5.97-1.29-9.31.75-.93,1.67-1.21,2.52-.33,3.41,3.54,1.39,6.52-1.24,9.65Z"/><path class="cls-3" d="m239.58,39.72c3.02-2.79,5.76-4.24,8.97-1.12,1.43,1.38.64,2.28-.5,3.23-3.65,3.05-5.96.58-8.47-2.11Z"/><path class="cls-3" d="m234.79,97.93c-1.34,1.56-1.02,4.87-3.67,4.64-1.94-.17-2.99-2.7-2.87-4.74.12-1.98,1.12-4.54,3.19-4.47,1.88.06,2.6,2.63,3.35,4.58Z"/><path class="cls-3" d="m231.2,4.19c3.42,2.57,4.37,5.33,1.87,8.65-.8,1.06-1.75,1.48-2.87.32-3.25-3.33-1.87-6.13,1.01-8.97Z"/><path class="cls-3" d="m249.63,172.85c-1.02,1.97-2.7,3.43-4.64,3.15-1.94-.28-4.87-1.48-4.87-3.22,0-1.57,2.67-3.31,4.91-2.96,1.79.28,3.83.89,4.61,3.03Z"/><path class="cls-3" d="m256.35,327.83c-2.67,2.55-5.23,4.89-8.85,1.6-1.09-.99-1.09-1.89,0-2.89,3.44-3.19,6.16-1.6,8.86,1.29Z"/><path class="cls-3" d="m206.38,327.91c3.05-2.91,5.75-4.52,9.02-1.46,1,.94,1.38,1.76.02,2.8-3.42,2.61-6.28,2-9.04-1.35Z"/><path class="cls-3" d="m231.49,48.01c1.81,3.14,4.95,5.71,1.26,9.19-.93.88-1.79,1.37-2.83.04-2.66-3.4-1.76-6.25,1.56-9.23Z"/><path class="cls-3" d="m216.91,106.22c-1.53,1.73-2.85,3.33-5.02,3.15-2.1-.17-4.97-.81-5.02-2.99-.04-1.78,2.84-2.5,4.77-2.74,2.08-.26,3.72.88,5.27,2.58Z"/><path class="cls-3" d="m222.52,350.29c-1.89,1.97-3.52,3.53-6.24,2.44-1.52-.61-3.99-1.09-3.38-2.82.75-2.13,3.35-3.33,5.7-2.8,1.49.34,3.28,1.34,3.93,3.18Z"/><path class="cls-3" d="m206.65,62.36c2.51-3.78,5.38-4.15,8.78-1.61,1.35,1.01.98,1.84-.02,2.78-3.21,3.03-5.91,1.52-8.77-1.17Z"/><path class="cls-3" d="m206.73,150.64c2.71-2.73,5.48-4.27,8.83-1.02,1.12,1.08.89,1.86-.32,2.75-3.49,2.59-6.22,1.82-8.52-1.73Z"/><path class="cls-3" d="m234.79,274.56c-1.02,1.93-1.09,4.94-3.39,5.08-2.03.12-3.01-2.49-3.14-4.43-.14-2.03,1.37-4.44,2.88-4.62,1.66-.2,2.78,2.24,3.65,3.97Z"/><path class="cls-3" d="m231.1,137.21c4.2,2.7,3.94,5.71,1.5,8.92-.79,1.05-1.64.79-2.46-.05-3.23-3.34-1.71-6.11.96-8.87Z"/><path class="cls-3" d="m211.75,14.62c1.9.73,4.62,1.3,4.4,3.37-.23,2.16-3.1,3.01-5.09,3.02-1.82,0-4.2-1.74-3.95-3.41.23-1.53,2.65-2.61,4.64-2.97Z"/><path class="cls-3" d="m231.18,252.8c-3-2.92-4.14-5.8-.91-9.01.86-.86,1.66-.82,2.44.21,2.51,3.34,2.33,6.26-1.53,8.8Z"/><path class="cls-3" d="m231.12,119.87c-2.66-2.9-4.17-5.61-1.11-8.8.96-1.01,1.78-1.28,2.77.04,2.56,3.42,2.1,6.26-1.66,8.76Z"/><path class="cls-3" d="m223.45,40.04c-1.81,1.12-3.23,2.39-4.88,2.92-2.06.66-3.67-1.02-5.31-2-.92-.55-.71-1.6.11-1.98,1.83-.84,3.39-2.94,5.79-1.67,1.4.75,2.7,1.71,4.3,2.73Z"/><path class="cls-3" d="m239.42,350.25c2.76-2.27,5.03-5.09,8.6-1.99,1.19,1.03,1.19,2.35.03,3.43-3.39,3.17-5.81.71-8.63-1.44Z"/><path class="cls-3" d="m256.6,62.04c-2.78,2.57-5.23,4.79-8.62,1.72-1.16-1.06-1.21-2.36-.04-3.43,3.61-3.32,5.7.37,8.66,1.71Z"/><path class="cls-3" d="m255.63,106.5c-1.25,1.6-2.69,3.08-4.81,2.86-1.89-.19-4.53-.65-4.23-3.1.25-2.11,2.74-2.75,4.75-2.61,1.75.13,3.54.73,4.29,2.85Z"/><path class="cls-3" d="m231.33,180.64c.93,1.68,1.66,2.75,2.15,3.92.89,2.11.84,4.16-.98,5.84-.81.75-1.78,1.1-2.44-.07-1.16-2.06-3.08-4.07-.85-6.62.63-.72,1.1-1.58,2.12-3.07Z"/><path class="cls-3" d="m211.71,286.49c-2.14-.07-4.08-.78-4.2-2.83-.12-2.24,2.2-2.95,3.88-2.9,2.03.06,4.91.73,4.89,3.07-.01,2.05-2.76,2.37-4.58,2.66Z"/><path class="cls-3" d="m250.46,280.46c2.38.31,4.64,1.17,4.87,3.11.25,2.12-2.26,2.62-3.97,2.79-2.01.19-4.48-.48-4.79-2.58-.38-2.6,2.57-2.37,3.89-3.32Z"/><path class="cls-3" d="m231.57,342c-3.39-2.89-4.35-5.75-1.64-9.23,1.07-1.37,2.04-.9,2.85.11,2.72,3.42.45,6.07-1.21,9.12Z"/><path class="cls-3" d="m212.6,236.61c1.32.53,4.02.7,3.7,2.75-.34,2.16-2.99,3-5.12,2.85-1.68-.12-4.09-.81-3.65-3.1.42-2.17,2.55-2.82,5.07-2.49Z"/><path class="cls-3" d="m245.24,125.51c1.77.71,4.52.77,4.17,3.28-.29,2.09-2.77,2.76-4.77,2.57-1.71-.16-4.21-.68-3.96-2.79.23-1.93,2.48-2.79,4.56-3.06Z"/><path class="cls-3" d="m256.21,150.84c-.83,1.41-2.34,1.78-3.66,2.29-2.29.88-4.23-.06-5.8-1.71-.69-.73-.25-1.59.6-2,1.85-.9,3.61-2.78,5.87-1.06,1.01.77,2.49,1.03,2.99,2.48Z"/><path class="cls-3" d="m222.53,128.69c-1.47,1.51-2.88,3.1-5.1,2.66-1.71-.34-4.19-.77-3.87-3.02.32-2.2,2.73-2.81,4.75-2.67,1.82.13,3.31,1.24,4.21,3.04Z"/><path class="cls-3" d="m231.41,208.93c-3.46-3.03-4.06-6.01-1.34-9.34.64-.78,1.44-.91,2.1-.17,2.95,3.29,1.77,6.33-.76,9.51Z"/><path class="cls-3" d="m239.58,305.88c3.02-3.43,5.99-4.06,9.3-1.32,1.07.88.71,1.77-.18,2.44-3.26,2.5-6.15,1.28-9.13-1.12Z"/><path class="cls-3" d="m256.21,17.86c-.83,1.4-2.34,1.78-3.66,2.29-2.28.88-4.23-.06-5.78-1.71-.69-.73-.22-1.59.61-2.01,1.84-.92,3.6-2.78,5.85-1.05,1.01.77,2.49,1.02,2.98,2.47Z"/><path class="cls-3" d="m251,242.51c-1.96-.5-4.28-1.24-4.33-3.26-.05-1.96,2.36-2.55,4.12-2.62,1.97-.07,4.53.53,4.56,2.67.03,1.92-2.38,2.75-4.36,3.21Z"/><path class="cls-3" d="m239.79,84.18c.81-1.42,2.32-1.78,3.64-2.29,2.28-.89,4.23.04,5.79,1.69.69.73.26,1.59-.58,2.01-1.85.91-3.6,2.78-5.86,1.07-1.01-.77-2.48-1.03-3-2.47Z"/><path class="cls-3" d="m231.34,314.27c1.42.82,1.77,2.34,2.28,3.67.88,2.29-.06,4.23-1.7,5.8-.73.7-1.58.25-2-.61-.91-1.85-2.79-3.61-1.06-5.86.78-1.01,1.03-2.49,2.48-2.99Z"/><path class="cls-3" d="m231.25,75.98c-2.73-2.99-4.34-5.68-1.28-8.88.94-.99,1.87-1.41,2.77,0,2.09,3.26,1.55,6.13-1.49,8.89Z"/><path class="cls-3" d="m238.93,217.05c2.23-1.04,3.65-1.93,5.19-2.36,1.9-.54,3.56.4,4.95,1.65.73.66.68,1.58-.19,2.06-1.68.94-3.27,2.58-5.42,1.63-1.32-.58-2.45-1.59-4.53-2.98Z"/><path class="cls-3" d="m222.52,261.27c-.84,1.84-2.36,2.91-4.17,3.07-2.03.17-4.44-.46-4.79-2.64-.36-2.26,2.12-2.69,3.84-3.05,2.23-.47,3.63,1.14,5.13,2.62Z"/></g></g><g id="Layer_3"><path class="cls-3" d="m25.39,58.02v-31.91h5.26v15.23l13.39-15.23h6.2l-12.36,13.75,12.81,18.15h-6.02l-10.29-14.65-3.73,4.13v10.52h-5.26Z"/><polygon class="cls-3" points="39.7 72.75 46.84 73.68 41.56 78.88 42.65 86.07 36.31 82.78 29.84 86.3 31.21 79.07 26.13 74.05 33.3 72.87 36.63 66.25 39.7 72.75"/><path class="cls-3" d="m229.58,292.88v31.91h-5.26v-15.23l-13.39,15.23h-6.2l12.36-13.75-12.81-18.16h6.02l10.29,14.65,3.73-4.13v-10.51h5.26Z"/><polygon class="cls-3" points="215.26 278.15 208.13 277.23 213.4 272.02 212.32 264.83 218.66 268.12 225.12 264.6 223.76 271.84 228.84 276.86 221.66 278.04 218.34 284.66 215.26 278.15"/></g><g id="Layer_4"><path class="cls-3" d="m151.72,265.78c-.11.52-.59.87-1.11.81-1.86-.19-3.68-.36-5.48-.6-.24-.03-.53-.5-.61-.82-.61-2.33-1.17-4.68-1.74-7.02-.08-.34-.18-.67-.44-1-.46,3.69-.92,7.37-1.39,11.1-.06.51-.5.9-1.02.9h-27.93c-.52,0-.95-.38-1.02-.9-.25-1.89-.49-3.79-.74-5.68l-2.18-.12s0,.04-.01.06c-.28,1.13-.25,2.61-.97,3.29-.67.63-2.14.41-3.26.53-.84.1-1.68.17-2.56.26-.52.05-1-.3-1.11-.82-.77-3.72-1.54-7.43-2.34-11.28-.18-.88-1.33-1.12-1.85-.39-1.19,1.68-2.34,3.31-3.51,4.94-.32.45-.95.57-1.41.26-2.68-1.76-5.31-3.48-7.91-5.24-.25-.17-.34-.73-.32-1.09.51-6.83,1.05-13.66,1.58-20.49.04-.48.05-.96-.16-1.49-2.11,4.61-4.21,9.22-6.37,13.94-.3.66-1.19.81-1.69.28-1.61-1.71-3.17-3.35-4.69-5.03-.24-.26-.23-.79-.25-1.21-.22-5.14-.41-10.28-.62-15.43-.01-.27-.05-.53-.1-1.02-1.71,1.97-3.27,3.78-5.01,5.8-.21-.32-.36-.59-.56-.82-1.56-1.86-3.16-3.7-4.69-5.59-.47-.58-.7-1.64-.52-2.36,3.41-14.22,6.86-28.42,10.31-42.63,2.45-10.1,4.9-20.2,7.34-30.29.02-.1.05-.21.08-.31.12-.46.53-.78,1-.78h.14c.63,0,1.11.57,1.02,1.19-.36,2.33-.73,4.63-1.05,6.94-1.09,7.8-2.05,15.63-2.12,23.52-.02,2.08.29,4.17.52,6.24.1.94.69,1.54,1.62,1.92,2.43,1,4.82,2.07,7.22,3.14,4.65,2.06,6.36,4.97,5.92,10.02-.03.36-.07.72-.09,1.08-.15,1.97,1.3,3.09,3.19,2.49.57-.18,1.12-.4,1.64-.66,3.7-1.87,7.43-3.7,11.01-5.8,3.13-1.84,6.4-2.97,9.98-3.39,6.74-.78,13.47-.8,20.13.57,1.74.36,3.45,1.07,5.05,1.88,4.27,2.16,8.45,4.49,12.7,6.69.93.48,1.97.81,3,1.07,1.46.38,2.07-.15,2.03-1.68-.02-.89-.12-1.77-.18-2.66-.33-4.54,1.34-7.46,5.46-9.38,2.54-1.18,5.11-2.3,7.69-3.38.92-.39,1.51-1,1.61-1.93.23-2.07.54-4.16.51-6.24-.09-8.36-1.14-16.63-2.32-24.89-.26-1.85-.57-3.69-.86-5.57-.1-.62.38-1.19,1.02-1.19h.14c.47,0,.89.32,1,.79.73,3.01,1.47,6.01,2.19,9.01,5.21,21.51,10.41,43.01,15.64,64.52.19.77.1,1.31-.43,1.92-1.58,1.81-3.11,3.67-4.68,5.56-.4.49-1.15.5-1.57.02-.86-.98-1.71-1.95-2.59-2.95-.61-.69-1.76-.3-1.8.63-.01.23-.02.45-.03.67-.17,4.47-.33,8.94-.51,13.41-.02.38-.02.86-.24,1.1-1.52,1.68-3.08,3.32-4.69,5.03-.5.53-1.39.39-1.69-.28-2.15-4.71-4.25-9.31-6.35-13.9-.07,0-.14,0-.2,0,0,.31-.02.63,0,.94.53,6.72,1.04,13.44,1.64,20.16.11,1.24-.12,1.97-1.25,2.65-2.37,1.41-4.65,2.97-7.01,4.53-.46.31-1.09.19-1.41-.26-1.15-1.63-2.3-3.25-3.5-4.94-.52-.73-1.67-.5-1.85.38-.8,3.83-1.57,7.54-2.35,11.28Zm-56.72-43.03c3.02,0,5.75-.16,8.46.05,2.12.17,3.58-.46,4.65-2.26.85-1.45,2.22-1.98,3.87-1.97,9.29.02,18.59.01,27.88,0,1.6,0,2.9.5,3.83,1.87.4.58.83,1.17,1.36,1.63.38.33.93.65,1.41.66,3.12.06,6.24.03,9.36.03.26,0,.52-.05.8-.07-.05-.15-.06-.23-.1-.28-3.99-4.62-7.98-9.23-11.99-13.83-.22-.26-.64-.43-.99-.48-2.14-.28-4.3-.51-6.45-.75-5.22-.58-10.43-1.27-15.7-.7-4.41.48-8.81.95-13.22,1.47-.39.05-.82.38-1.1.69-2.94,3.36-5.85,6.75-8.78,10.14-1.04,1.2-2.09,2.4-3.32,3.82Z"/><path class="cls-3" d="m184.42,95.05c-10.49,3.09-19.64,7.69-25.49,17.35-.36-.59-.63-1.03-.9-1.47-8.02-13.03-18.24-23.95-30.87-32.62-.95-.64-1.53-.61-2.47.03-12.75,8.75-23,19.84-31.08,32.99-.19.31-.4.62-.67,1.03-5.86-9.64-15-14.23-25.46-17.3,5.99,15.73,10.53,31.53,9.47,48.43h98.01c-.56-8.36.32-16.55,2.08-24.66,1.75-8.07,4.37-15.87,7.38-23.78Zm-61.68,8.16l3.96-7.88,3.66,7.75,8.5,1.09-6.29,6.2,1.29,8.56-7.54-3.92-7.7,4.2,1.62-8.62-6.05-5.97,8.55-1.41Zm48.13,34.05h-89.87v-4.05h89.87v4.05Z"/></g></svg>