<?xml version="1.0" encoding="UTF-8"?><svg xmlns="http://www.w3.org/2000/svg" viewBox="0 0 252 347"><defs><style>.cls-1{fill:#fff;stroke:#2b2b2b;stroke-miterlimit:10;stroke-width:.25px;}.cls-2{font-family:ElzaText-Medium, 'Elza Text';font-size:44.94px;font-weight:500;}.cls-2,.cls-3{fill:#f46300;}.cls-4{letter-spacing:0em;}.cls-3{stroke-width:0px;}</style></defs><g id="Layer_2"><rect class="cls-1" x="6" y="7" width="240" height="333" rx="16.98" ry="16.98"/></g><g id="Layer_3"><text class="cls-2" transform="translate(16.08 58.02)"><tspan class="cls-4" x="0" y="0">1</tspan><tspan x="16.94" y="0">0</tspan></text><polygon class="cls-3" points="41.59 72.75 48.73 73.68 43.45 78.88 44.53 86.07 38.2 82.78 31.73 86.3 33.09 79.07 28.01 74.05 35.19 72.87 38.52 66.25 41.59 72.75"/><polygon class="cls-3" points="95.28 198.83 114.47 201.32 100.28 215.31 103.19 234.65 86.15 225.8 68.75 235.26 72.42 215.8 58.75 202.31 78.06 199.13 87.01 181.33 95.28 198.83"/><polygon class="cls-3" points="95.28 59.03 114.47 61.52 100.28 75.51 103.19 94.86 86.15 86 68.75 95.47 72.42 76.01 58.75 62.51 78.06 59.34 87.01 41.53 95.28 59.03"/><polygon class="cls-3" points="95.28 277.66 114.47 280.15 100.28 294.14 103.19 313.49 86.15 304.63 68.75 314.1 72.42 294.64 58.75 281.14 78.06 277.97 87.01 260.16 95.28 277.66"/><polygon class="cls-3" points="171.41 200.19 190.61 202.68 176.41 216.67 179.33 236.02 162.28 227.16 144.89 236.63 148.55 217.17 134.89 203.67 154.19 200.5 163.14 182.69 171.41 200.19"/><polygon class="cls-3" points="171.41 59.03 190.61 61.52 176.41 75.51 179.33 94.86 162.28 86 144.89 95.47 148.55 76.01 134.89 62.51 154.19 59.34 163.14 41.53 171.41 59.03"/><polygon class="cls-3" points="171.41 279.03 190.61 281.52 176.41 295.51 179.33 314.86 162.28 306 144.89 315.47 148.55 296.01 134.89 282.51 154.19 279.34 163.14 261.53 171.41 279.03"/><polygon class="cls-3" points="95.57 141.01 114.76 143.5 100.57 157.49 103.48 176.83 86.44 167.98 69.05 177.44 72.71 157.98 59.05 144.49 78.35 141.31 87.3 123.51 95.57 141.01"/><polygon class="cls-3" points="174.05 142.37 193.25 144.86 179.05 158.85 181.96 178.2 164.92 169.34 147.53 178.81 151.19 159.35 137.53 145.86 156.83 142.68 165.78 124.87 174.05 142.37"/><polygon class="cls-3" points="132.82 98.07 152.01 100.55 137.82 114.54 140.73 133.89 123.69 125.03 106.29 134.5 109.96 115.04 96.29 101.55 115.6 98.37 124.55 80.56 132.82 98.07"/><polygon class="cls-3" points="134.2 240.07 153.39 242.56 139.2 256.55 142.11 275.89 125.07 267.04 107.67 276.51 111.34 257.04 97.67 243.55 116.98 240.38 125.93 222.57 134.2 240.07"/><text class="cls-2" transform="translate(233.66 292.88) rotate(-180)"><tspan class="cls-4" x="0" y="0">1</tspan><tspan x="16.94" y="0">0</tspan></text><polygon class="cls-3" points="208.15 278.15 201.01 277.23 206.29 272.02 205.21 264.83 211.54 268.12 218.01 264.6 216.65 271.84 221.73 276.86 214.55 278.04 211.22 284.66 208.15 278.15"/></g></svg>