<?xml version="1.0" encoding="UTF-8"?><svg xmlns="http://www.w3.org/2000/svg" viewBox="0 0 252 347"><defs><style>.cls-1{fill:#fff;stroke:#2b2b2b;stroke-miterlimit:10;stroke-width:.25px;}.cls-2{fill:#f46300;stroke-width:0px;}</style></defs><g id="Layer_2"><rect class="cls-1" x="6" y="7" width="240" height="333" rx="16.98" ry="16.98"/></g><g id="Layer_3"><path class="cls-2" d="m24.41,48.45h5.26c.31,3.73,2.7,5.71,6.7,5.71,3.64,0,6.29-1.93,6.29-5.08v-.63c0-3.19-2.52-4.9-6.11-4.9h-3.37v-4.09h3.33c3.01,0,5.39-1.57,5.39-4.49v-.63c0-2.65-2.25-4.45-5.44-4.45-3.78,0-6.02,2.02-6.2,5.66h-5.12c.27-6.02,4.9-10.02,11.23-10.02,5.98,0,10.51,3.42,10.51,8.54v.49c0,3.24-2.07,5.75-5.08,6.74,3.51.9,6.16,3.55,6.16,7.5v.49c0,5.53-4.9,9.3-11.64,9.3-7.1,0-11.64-3.86-11.91-10.16Z"/><polygon class="cls-2" points="39.47 72.75 46.61 73.68 41.33 78.88 42.42 86.07 36.08 82.78 29.61 86.3 30.98 79.07 25.9 74.05 33.07 72.87 36.4 66.25 39.47 72.75"/><polygon class="cls-2" points="134.66 164.03 153.86 166.52 139.66 180.51 142.58 199.86 125.54 191 108.14 200.47 111.8 181.01 98.14 167.51 117.45 164.34 126.4 146.53 134.66 164.03"/><polygon class="cls-2" points="134.66 77.62 153.86 80.11 139.66 94.1 142.58 113.45 125.54 104.59 108.14 114.06 111.8 94.6 98.14 81.1 117.45 77.93 126.4 60.12 134.66 77.62"/><polygon class="cls-2" points="134.66 250.44 153.86 252.93 139.66 266.92 142.58 286.26 125.54 277.41 108.14 286.88 111.8 267.41 98.14 253.92 117.45 250.75 126.4 232.94 134.66 250.44"/><path class="cls-2" d="m228.1,302.45h-5.26c-.31-3.73-2.7-5.71-6.7-5.71-3.64,0-6.29,1.93-6.29,5.08v.63c0,3.19,2.52,4.9,6.11,4.9h3.37v4.09h-3.33c-3.01,0-5.39,1.57-5.39,4.49v.63c0,2.65,2.25,4.45,5.44,4.45,3.77,0,6.02-2.02,6.2-5.66h5.12c-.27,6.02-4.9,10.02-11.23,10.02-5.98,0-10.51-3.42-10.51-8.54v-.5c0-3.24,2.07-5.75,5.08-6.74-3.51-.9-6.16-3.55-6.16-7.5v-.49c0-5.53,4.9-9.3,11.64-9.3,7.1,0,11.64,3.86,11.91,10.16Z"/><polygon class="cls-2" points="213.03 278.15 205.9 277.23 211.17 272.02 210.09 264.83 216.43 268.12 222.89 264.6 221.53 271.84 226.61 276.86 219.43 278.04 216.11 284.66 213.03 278.15"/></g></svg>