<?xml version="1.0" encoding="UTF-8"?><svg xmlns="http://www.w3.org/2000/svg" viewBox="0 0 252 347"><defs><style>.cls-1{fill:#fff;stroke:#2b2b2b;stroke-miterlimit:10;stroke-width:.25px;}.cls-2{font-family:ElzaText-Medium, 'Elza Text';font-size:44.94px;font-weight:500;}.cls-2,.cls-3{fill:#f46300;}.cls-3{stroke-width:0px;}</style></defs><g id="Layer_2"><rect class="cls-1" x="6" y="7" width="240" height="333" rx="16.98" ry="16.98"/></g><g id="Layer_3"><text class="cls-2" transform="translate(22.44 58.02)"><tspan x="0" y="0">3</tspan></text><polygon class="cls-3" points="39.47 72.75 46.61 73.68 41.33 78.88 42.42 86.07 36.08 82.78 29.61 86.3 30.98 79.07 25.9 74.05 33.07 72.87 36.4 66.25 39.47 72.75"/><polygon class="cls-3" points="134.66 164.03 153.86 166.52 139.66 180.51 142.58 199.86 125.54 191 108.14 200.47 111.8 181.01 98.14 167.51 117.45 164.34 126.4 146.53 134.66 164.03"/><polygon class="cls-3" points="134.66 77.62 153.86 80.11 139.66 94.1 142.58 113.45 125.54 104.59 108.14 114.06 111.8 94.6 98.14 81.1 117.45 77.93 126.4 60.12 134.66 77.62"/><polygon class="cls-3" points="134.66 250.44 153.86 252.93 139.66 266.92 142.58 286.26 125.54 277.41 108.14 286.88 111.8 267.41 98.14 253.92 117.45 250.75 126.4 232.94 134.66 250.44"/><text class="cls-2" transform="translate(230.07 292.88) rotate(-180)"><tspan x="0" y="0">3</tspan></text><polygon class="cls-3" points="213.03 278.15 205.9 277.23 211.17 272.02 210.09 264.83 216.43 268.12 222.89 264.6 221.53 271.84 226.61 276.86 219.43 278.04 216.11 284.66 213.03 278.15"/></g></svg>