<?xml version="1.0" encoding="UTF-8"?><svg xmlns="http://www.w3.org/2000/svg" viewBox="0 0 252 347"><defs><style>.cls-1{fill:#fff;stroke:#2b2b2b;stroke-miterlimit:10;stroke-width:.25px;}.cls-2{fill:#f46300;stroke-width:0px;}</style></defs><g id="Layer_2"><rect class="cls-1" x="6" y="7" width="240" height="333" rx="16.98" ry="16.98"/></g><g id="Layer_3"><path class="cls-2" d="m24.91,48.9h5.21c.36,3.55,3.06,5.39,6.38,5.39,3.73,0,6.38-2.47,6.38-6.2v-.63c0-3.77-2.56-6.2-6.38-6.2-2.65,0-4.85,1.35-6.02,3.1l-4.4-.31,2.83-17.93h17.66v4.45h-13.84l-1.48,8.94c1.62-1.44,3.91-2.29,6.43-2.29,5.84,0,10.34,4.04,10.34,10.16v.49c0,6.34-4.81,10.74-11.59,10.74s-11.05-3.73-11.5-9.71Z"/><polygon class="cls-2" points="39.47 72.75 46.61 73.68 41.33 78.88 42.42 86.07 36.08 82.78 29.61 86.3 30.98 79.07 25.9 74.05 33.07 72.87 36.4 66.25 39.47 72.75"/><polygon class="cls-2" points="94.71 77.62 113.91 80.11 99.71 94.1 102.63 113.45 85.59 104.59 68.19 114.06 71.85 94.6 58.19 81.1 77.5 77.93 86.45 60.12 94.71 77.62"/><polygon class="cls-2" points="94.71 250.44 113.91 252.93 99.71 266.92 102.63 286.26 85.59 277.41 68.19 286.88 71.85 267.41 58.19 253.92 77.5 250.75 86.45 232.94 94.71 250.44"/><polygon class="cls-2" points="174.61 77.62 193.81 80.11 179.61 94.1 182.53 113.45 165.49 104.59 148.09 114.06 151.75 94.6 138.09 81.1 157.4 77.93 166.35 60.12 174.61 77.62"/><polygon class="cls-2" points="174.61 250.44 193.81 252.93 179.61 266.92 182.53 286.26 165.49 277.41 148.09 286.88 151.75 267.41 138.09 253.92 157.4 250.75 166.35 232.94 174.61 250.44"/><polygon class="cls-2" points="134.66 164.03 153.86 166.52 139.66 180.51 142.58 199.86 125.54 191 108.14 200.47 111.8 181.01 98.14 167.51 117.45 164.34 126.4 146.53 134.66 164.03"/><path class="cls-2" d="m228.6,302h-5.21c-.36-3.55-3.06-5.39-6.38-5.39-3.73,0-6.38,2.47-6.38,6.2v.63c0,3.78,2.56,6.2,6.38,6.2,2.65,0,4.85-1.35,6.02-3.1l4.4.31-2.83,17.93h-17.66v-4.45h13.84l1.48-8.94c-1.62,1.44-3.91,2.29-6.43,2.29-5.84,0-10.33-4.04-10.33-10.16v-.49c0-6.34,4.81-10.74,11.59-10.74s11.05,3.73,11.5,9.71Z"/><polygon class="cls-2" points="214.03 278.15 206.9 277.23 212.17 272.02 211.09 264.83 217.43 268.12 223.89 264.6 222.53 271.84 227.61 276.86 220.43 278.04 217.11 284.66 214.03 278.15"/></g></svg>