<?xml version="1.0" encoding="UTF-8"?><svg xmlns="http://www.w3.org/2000/svg" viewBox="0 0 252 347"><defs><style>.cls-1{fill:#fff;stroke:#2b2b2b;stroke-miterlimit:10;stroke-width:.25px;}.cls-2{font-family:ElzaText-Medium, 'Elza Text';font-size:44.94px;font-weight:500;}.cls-2,.cls-3{fill:#f46300;}.cls-3{stroke-width:0px;}</style></defs><g id="Layer_2"><rect class="cls-1" x="6" y="7" width="240" height="333" rx="16.98" ry="16.98"/></g><g id="Layer_3"><text class="cls-2" transform="translate(22.44 58.02)"><tspan x="0" y="0">6</tspan></text><polygon class="cls-3" points="39.47 72.75 46.61 73.68 41.33 78.88 42.42 86.07 36.08 82.78 29.61 86.3 30.98 79.07 25.9 74.05 33.07 72.87 36.4 66.25 39.47 72.75"/><polygon class="cls-3" points="97.28 164.03 116.48 166.52 102.28 180.51 105.19 199.86 88.15 191 70.76 200.47 74.42 181.01 60.76 167.51 80.06 164.34 89.01 146.53 97.28 164.03"/><polygon class="cls-3" points="97.28 77.62 116.48 80.11 102.28 94.1 105.19 113.45 88.15 104.59 70.76 114.06 74.42 94.6 60.76 81.1 80.06 77.93 89.01 60.12 97.28 77.62"/><polygon class="cls-3" points="97.28 250.44 116.48 252.93 102.28 266.92 105.19 286.26 88.15 277.41 70.76 286.88 74.42 267.41 60.76 253.92 80.06 250.75 89.01 232.94 97.28 250.44"/><polygon class="cls-3" points="172.05 164.03 191.24 166.52 177.05 180.51 179.96 199.86 162.92 191 145.52 200.47 149.19 181.01 135.52 167.51 154.83 164.34 163.78 146.53 172.05 164.03"/><polygon class="cls-3" points="172.05 77.62 191.24 80.11 177.05 94.1 179.96 113.45 162.92 104.59 145.52 114.06 149.19 94.6 135.52 81.1 154.83 77.93 163.78 60.12 172.05 77.62"/><polygon class="cls-3" points="172.05 250.44 191.24 252.93 177.05 266.92 179.96 286.26 162.92 277.41 145.52 286.88 149.19 267.41 135.52 253.92 154.83 250.75 163.78 232.94 172.05 250.44"/><text class="cls-2" transform="translate(231.07 292.88) rotate(-180)"><tspan x="0" y="0">6</tspan></text><polygon class="cls-3" points="214.03 278.15 206.9 277.23 212.17 272.02 211.09 264.83 217.43 268.12 223.89 264.6 222.53 271.84 227.61 276.86 220.43 278.04 217.11 284.66 214.03 278.15"/></g></svg>