<?xml version="1.0" encoding="UTF-8"?><svg xmlns="http://www.w3.org/2000/svg" viewBox="0 0 252 347"><defs><style>.cls-1{fill:#fff;stroke:#2b2b2b;stroke-miterlimit:10;stroke-width:.25px;}.cls-2{fill:#f46300;stroke-width:0px;}</style></defs><g id="Layer_2"><rect class="cls-1" x="6" y="7" width="240" height="333" rx="16.98" ry="16.98"/></g><g id="Layer_3"><path class="cls-2" d="m29.27,58.02c1.53-9.71,5.84-18.74,12.36-27.46h-16.72v-4.45h22.69v3.64c-6.92,8.85-11.28,18.24-12.67,28.27h-5.66Z"/><polygon class="cls-2" points="39.19 72.75 46.32 73.68 41.05 78.88 42.13 86.07 35.79 82.78 29.33 86.3 30.69 79.07 25.61 74.05 32.79 72.87 36.11 66.25 39.19 72.75"/><polygon class="cls-2" points="97.28 164.03 116.48 166.52 102.28 180.51 105.19 199.86 88.15 191 70.76 200.47 74.42 181.01 60.76 167.51 80.06 164.34 89.01 146.53 97.28 164.03"/><polygon class="cls-2" points="97.28 77.62 116.48 80.11 102.28 94.1 105.19 113.45 88.15 104.59 70.76 114.06 74.42 94.6 60.76 81.1 80.06 77.93 89.01 60.12 97.28 77.62"/><polygon class="cls-2" points="97.28 250.44 116.48 252.93 102.28 266.92 105.19 286.26 88.15 277.41 70.76 286.88 74.42 267.41 60.76 253.92 80.06 250.75 89.01 232.94 97.28 250.44"/><polygon class="cls-2" points="172.05 164.03 191.24 166.52 177.05 180.51 179.96 199.86 162.92 191 145.52 200.47 149.19 181.01 135.52 167.51 154.83 164.34 163.78 146.53 172.05 164.03"/><polygon class="cls-2" points="172.05 77.62 191.24 80.11 177.05 94.1 179.96 113.45 162.92 104.59 145.52 114.06 149.19 94.6 135.52 81.1 154.83 77.93 163.78 60.12 172.05 77.62"/><polygon class="cls-2" points="172.05 250.44 191.24 252.93 177.05 266.92 179.96 286.26 162.92 277.41 145.52 286.88 149.19 267.41 135.52 253.92 154.83 250.75 163.78 232.94 172.05 250.44"/><polygon class="cls-2" points="132.22 122.74 151.41 125.23 137.22 139.22 140.13 158.56 123.09 149.71 105.7 159.18 109.36 139.71 95.7 126.22 115 123.05 123.95 105.24 132.22 122.74"/><path class="cls-2" d="m224.66,292.88c-1.53,9.71-5.84,18.74-12.36,27.46h16.72v4.45h-22.69v-3.64c6.92-8.85,11.28-18.25,12.67-28.27h5.66Z"/><polygon class="cls-2" points="214.75 278.15 207.61 277.23 212.89 272.02 211.81 264.83 218.14 268.12 224.61 264.6 223.25 271.84 228.33 276.86 221.15 278.04 217.82 284.66 214.75 278.15"/></g></svg>