<?xml version="1.0" encoding="UTF-8"?><svg xmlns="http://www.w3.org/2000/svg" viewBox="0 0 252 347"><defs><style>.cls-1{fill:#fff;stroke:#2b2b2b;stroke-miterlimit:10;stroke-width:.25px;}.cls-2{fill:#f46300;stroke-width:0px;}</style></defs><g id="Layer_2"><rect class="cls-1" x="6" y="7" width="240" height="333" rx="16.98" ry="16.98"/></g><g id="Layer_3"><path class="cls-2" d="m24.55,49.4v-.45c0-3.95,2.7-6.7,6.11-7.64-2.92-1.08-4.94-3.59-4.94-6.88v-.45c0-4.99,4.54-8.45,10.56-8.45s10.51,3.46,10.51,8.45v.45c0,3.28-2.07,5.8-4.99,6.88,3.37.94,6.16,3.69,6.16,7.64v.45c0,5.62-4.81,9.21-11.68,9.21s-11.73-3.59-11.73-9.21Zm18.11-.22v-.45c0-3.24-2.79-5.17-6.38-5.17s-6.38,1.93-6.38,5.17v.45c0,3.24,2.7,5.17,6.38,5.17s6.38-1.93,6.38-5.17Zm-.81-14.47v-.45c0-2.88-2.38-4.54-5.57-4.54s-5.57,1.66-5.57,4.54v.45c0,2.88,2.38,4.58,5.57,4.58s5.57-1.71,5.57-4.58Z"/><polygon class="cls-2" points="39.47 72.75 46.61 73.68 41.33 78.88 42.42 86.07 36.08 82.78 29.61 86.3 30.98 79.07 25.9 74.05 33.07 72.87 36.4 66.25 39.47 72.75"/><polygon class="cls-2" points="97.28 164.03 116.48 166.52 102.28 180.51 105.19 199.86 88.15 191 70.76 200.47 74.42 181.01 60.76 167.51 80.06 164.34 89.01 146.53 97.28 164.03"/><polygon class="cls-2" points="97.28 77.62 116.48 80.11 102.28 94.1 105.19 113.45 88.15 104.59 70.76 114.06 74.42 94.6 60.76 81.1 80.06 77.93 89.01 60.12 97.28 77.62"/><polygon class="cls-2" points="97.28 250.44 116.48 252.93 102.28 266.92 105.19 286.26 88.15 277.41 70.76 286.88 74.42 267.41 60.76 253.92 80.06 250.75 89.01 232.94 97.28 250.44"/><polygon class="cls-2" points="172.05 164.03 191.24 166.52 177.05 180.51 179.96 199.86 162.92 191 145.52 200.47 149.19 181.01 135.52 167.51 154.83 164.34 163.78 146.53 172.05 164.03"/><polygon class="cls-2" points="172.05 77.62 191.24 80.11 177.05 94.1 179.96 113.45 162.92 104.59 145.52 114.06 149.19 94.6 135.52 81.1 154.83 77.93 163.78 60.12 172.05 77.62"/><polygon class="cls-2" points="172.05 250.44 191.24 252.93 177.05 266.92 179.96 286.26 162.92 277.41 145.52 286.88 149.19 267.41 135.52 253.92 154.83 250.75 163.78 232.94 172.05 250.44"/><polygon class="cls-2" points="132.22 122.74 151.41 125.23 137.22 139.22 140.13 158.56 123.09 149.71 105.7 159.18 109.36 139.71 95.7 126.22 115 123.05 123.95 105.24 132.22 122.74"/><polygon class="cls-2" points="131.83 206.14 151.03 208.63 136.83 222.62 139.74 241.96 122.7 233.11 105.31 242.58 108.97 223.11 95.31 209.62 114.61 206.45 123.56 188.64 131.83 206.14"/><path class="cls-2" d="m231.96,301.51v.45c0,3.96-2.7,6.7-6.11,7.64,2.92,1.08,4.94,3.59,4.94,6.88v.45c0,4.99-4.54,8.45-10.56,8.45s-10.51-3.46-10.51-8.45v-.45c0-3.28,2.07-5.8,4.99-6.88-3.37-.94-6.16-3.68-6.16-7.64v-.45c0-5.62,4.81-9.21,11.68-9.21s11.73,3.59,11.73,9.21Zm-18.11.22v.45c0,3.24,2.79,5.17,6.38,5.17s6.38-1.93,6.38-5.17v-.45c0-3.24-2.7-5.17-6.38-5.17s-6.38,1.93-6.38,5.17Zm.81,14.47v.45c0,2.88,2.38,4.54,5.57,4.54s5.57-1.66,5.57-4.54v-.45c0-2.88-2.38-4.58-5.57-4.58s-5.57,1.71-5.57,4.58Z"/><polygon class="cls-2" points="217.03 278.15 209.9 277.23 215.17 272.02 214.09 264.83 220.43 268.12 226.89 264.6 225.53 271.84 230.61 276.86 223.43 278.04 220.11 284.66 217.03 278.15"/></g></svg>