<?xml version="1.0" encoding="UTF-8"?><svg xmlns="http://www.w3.org/2000/svg" viewBox="0 0 252 347"><defs><style>.cls-1{fill:#fff;stroke:#2b2b2b;stroke-miterlimit:10;stroke-width:.25px;}.cls-2{font-family:ElzaText-Medium, 'Elza Text';font-size:44.94px;font-weight:500;}.cls-2,.cls-3{fill:#f46300;}.cls-3{stroke-width:0px;}</style></defs><g id="Layer_2"><rect class="cls-1" x="6" y="7" width="240" height="333" rx="16.98" ry="16.98"/></g><g id="Layer_3"><text class="cls-2" transform="translate(22.44 58.02)"><tspan x="0" y="0">9</tspan></text><polygon class="cls-3" points="39.47 72.75 46.61 73.68 41.33 78.88 42.42 86.07 36.08 82.78 29.61 86.3 30.98 79.07 25.9 74.05 33.07 72.87 36.4 66.25 39.47 72.75"/><polygon class="cls-3" points="95.28 199.9 114.47 202.39 100.28 216.38 103.19 235.73 86.15 226.87 68.75 236.34 72.42 216.88 58.75 203.38 78.06 200.21 87.01 182.4 95.28 199.9"/><polygon class="cls-3" points="95.28 53.69 114.47 56.18 100.28 70.17 103.19 89.51 86.15 80.66 68.75 90.13 72.42 70.66 58.75 57.17 78.06 54 87.01 36.19 95.28 53.69"/><polygon class="cls-3" points="95.28 273.01 114.47 275.49 100.28 289.49 103.19 308.83 86.15 299.98 68.75 309.44 72.42 289.98 58.75 276.49 78.06 273.31 87.01 255.51 95.28 273.01"/><polygon class="cls-3" points="171.41 201.27 190.61 203.76 176.41 217.75 179.33 237.09 162.28 228.24 144.89 237.71 148.55 218.24 134.89 204.75 154.19 201.58 163.14 183.77 171.41 201.27"/><polygon class="cls-3" points="171.41 55.06 190.61 57.55 176.41 71.54 179.33 90.88 162.28 82.03 144.89 91.49 148.55 72.03 134.89 58.54 154.19 55.36 163.14 37.56 171.41 55.06"/><polygon class="cls-3" points="171.41 274.37 190.61 276.86 176.41 290.85 179.33 310.2 162.28 301.34 144.89 310.81 148.55 291.35 134.89 277.85 154.19 274.68 163.14 256.87 171.41 274.37"/><polygon class="cls-3" points="95.57 117.24 114.76 119.73 100.57 133.72 103.48 153.07 86.44 144.21 69.05 153.68 72.71 134.22 59.05 120.72 78.35 117.55 87.3 99.74 95.57 117.24"/><polygon class="cls-3" points="174.05 118.61 193.25 121.1 179.05 135.09 181.96 154.43 164.92 145.58 147.53 155.05 151.19 135.58 137.53 122.09 156.83 118.92 165.78 101.11 174.05 118.61"/><polygon class="cls-3" points="132.82 159.33 152.01 161.82 137.82 175.81 140.73 195.15 123.69 186.3 106.29 195.77 109.96 176.3 96.29 162.81 115.6 159.63 124.55 141.83 132.82 159.33"/><text class="cls-2" transform="translate(232.07 292.88) rotate(-180)"><tspan x="0" y="0">9</tspan></text><polygon class="cls-3" points="215.03 278.15 207.9 277.23 213.17 272.02 212.09 264.83 218.43 268.12 224.89 264.6 223.53 271.84 228.61 276.86 221.43 278.04 218.11 284.66 215.03 278.15"/></g></svg>