<?xml version="1.0" encoding="UTF-8"?><svg xmlns="http://www.w3.org/2000/svg" viewBox="0 0 252 347"><defs><style>.cls-1{fill:#fff;stroke:#2b2b2b;stroke-miterlimit:10;stroke-width:.25px;}.cls-2{font-family:ElzaText-Medium, 'Elza Text';font-size:44.94px;font-weight:500;}.cls-2,.cls-3{fill:#f46300;}.cls-3{stroke-width:0px;}</style></defs><g id="Layer_2"><rect class="cls-1" x="6" y="7" width="240" height="333" rx="16.98" ry="16.98"/></g><g id="Layer_3"><text class="cls-2" transform="translate(21.05 58.02)"><tspan x="0" y="0">A</tspan></text><polygon class="cls-3" points="134.66 164.03 153.86 166.52 139.66 180.51 142.58 199.86 125.54 191 108.14 200.47 111.8 181.01 98.14 167.51 117.45 164.34 126.4 146.53 134.66 164.03"/><polygon class="cls-3" points="39.94 72.75 47.07 73.68 41.79 78.88 42.88 86.07 36.54 82.78 30.08 86.3 31.44 79.07 26.36 74.05 33.53 72.87 36.86 66.25 39.94 72.75"/><text class="cls-2" transform="translate(230.38 292.88) rotate(-180)"><tspan x="0" y="0">A</tspan></text><polygon class="cls-3" points="211.49 278.15 204.36 277.23 209.63 272.02 208.55 264.83 214.89 268.12 221.35 264.6 219.99 271.84 225.07 276.86 217.89 278.04 214.57 284.66 211.49 278.15"/></g></svg>