<?xml version="1.0" encoding="UTF-8"?><svg xmlns="http://www.w3.org/2000/svg" xmlns:xlink="http://www.w3.org/1999/xlink" viewBox="0 0 252 347"><defs><style>.cls-1{fill:#fff;stroke:#2b2b2b;stroke-width:.25px;}.cls-1,.cls-2{stroke-miterlimit:10;}.cls-3,.cls-2{fill:none;}.cls-3,.cls-4{stroke-width:0px;}.cls-5{clip-path:url(#clippath);}.cls-2{stroke:#f46300;}.cls-4{fill:#f46300;}</style><clipPath id="clippath"><rect class="cls-3" x="19.5" y="19" width="213" height="309" rx="9.42" ry="9.42"/></clipPath></defs><g id="Layer_2"><rect class="cls-1" x="6" y="7" width="240" height="333" rx="16.98" ry="16.98"/></g><g id="Layer_6"><g class="cls-5"><path class="cls-4" d="m42.49,25.5c.16,4.22-8.27,12.75-12.97,12.9-1.36.04-2.11-.24-1.97-1.97.4-4.91,7.66-12.37,12.64-12.76,1.21-.1,2.43-.2,2.3,1.83Z"/><path class="cls-4" d="m12.29,23.69c4.28.23,11.57,7.63,12.13,12.64.25,2.17-.85,2.19-2.32,2-4.84-.62-11.7-7.63-12.47-12.43-.32-2.01.45-2.36,2.66-2.21Z"/><path class="cls-4" d="m112.72,211.29c-2.57.19-3.41-.1-3.1-2.14.73-4.77,7.56-11.8,12.44-12.46,1.45-.2,2.59-.23,2.37,1.96-.51,4.99-7.77,12.4-11.71,12.64Z"/><path class="cls-4" d="m129.2,196.6c4.54-.31,13.76,8.93,13.33,13.29-.18,1.81-1.38,1.53-2.53,1.4-4.95-.56-11.59-7.36-12.36-12.41-.23-1.49-.04-2.25,1.55-2.28Z"/><path class="cls-4" d="m157.9,258.51c-.14,1.76-1.18,1.5-2.47,1.27-5.32-.97-11.25-6.69-12.14-11.92-.21-1.22-.84-2.74,1.43-2.86,4.36-.22,13.76,9.38,13.17,13.51Z"/><path class="cls-4" d="m95.91,259.99c-2.02.07-1.86-1.19-1.72-2.37.53-4.44,8.12-11.89,12.49-12.51,1.54-.22,2.14.11,2.23,1.65.29,4.86-8.3,13.5-13,13.23Z"/><path class="cls-4" d="m212,289.61c5.08.15,13.05,8.99,12.56,13.32-.16,1.46-1.04,1.35-2.11,1.23-3.99-.47-11.06-6.35-12.1-10.27-.51-1.93-1.04-4.12,1.65-4.27Z"/><path class="cls-4" d="m11.78,100.39c-2.2-.04-1.92-2.05-1.56-3.87.77-3.93,8.2-10.28,12.3-10.7,1.09-.11,1.92-.18,2.04,1.31.36,4.49-7.53,13.2-12.77,13.25Z"/><path class="cls-4" d="m229.46,218.78c4.53.21,12.19,7.63,12.91,12.37.4,2.59-1.03,2.34-2.6,2.1-5.23-.78-11.46-7.3-12.17-12.48-.22-1.58.09-2.21,1.86-1.99Z"/><path class="cls-4" d="m242.4,25.63c-.28,4.51-7.97,12.41-12.25,12.63-1.96.1-2.12-1.13-2.11-2.58.04-4.56,7.81-12.06,12.47-12.07,1.38,0,2.33.34,1.89,2.01Z"/><path class="cls-4" d="m141.95,137.36c-.04,4.22-8.35,11.87-12.82,11.9-1.82.01-1.7-.84-1.46-2.22.86-5.08,5.93-10.87,10.76-12.17,2.26-.61,3.6-.11,3.52,2.49Z"/><path class="cls-4" d="m42.49,69.32c.09,4.65-6.98,12.51-11.69,13.03-2.36.26-2.91-.91-2.61-2.98.65-4.55,8.01-11.36,12.51-11.59,1.17-.06,2.02.07,1.79,1.54Z"/><path class="cls-4" d="m223.95,44.35c-.04,4.4-8.04,12.08-12.56,12.07-1.44,0-2.01-.45-1.81-2.11.54-4.53,7.08-11.54,11.81-12.39,2-.36,2.59.2,2.57,2.43Z"/><path class="cls-4" d="m229.2,41.79c5.05-.14,13.16,8.28,13.29,12.82.05,1.83-.94,1.85-2.18,1.76-4.28-.32-11.65-7.13-12.18-11.33-.18-1.44-.48-3.13,1.07-3.25Z"/><path class="cls-4" d="m63.36,19.62c4.27-.06,12.7,8.8,12.42,13.01-.11,1.7-1.05,1.72-2.39,1.53-4.56-.65-11.41-7.08-12.18-11.53-.3-1.73.01-3.02,2.14-3.01Z"/><path class="cls-4" d="m196.17,240.76c4.47.29,11.98,7.27,12.63,11.74.39,2.67-.95,3.22-3.25,2.67-4.63-1.1-10.31-7.23-11.14-11.87-.29-1.6-.21-2.66,1.76-2.55Z"/><path class="cls-4" d="m123.96,190.74c.01,1.78-.46,2.84-2.65,2.36-4.75-1.04-10.62-7.14-11.6-11.99-.35-1.72-.15-2.55,1.75-2.52,4.6.09,12.52,7.77,12.5,12.14Z"/><path class="cls-4" d="m23.96,44.3c0,4.39-7.96,12.07-12.53,12.12-1.94.02-2.05-.87-1.71-2.55,1.01-4.89,6.87-10.96,11.62-11.97,2.22-.47,2.63.64,2.62,2.4Z"/><path class="cls-4" d="m42.41,54.4c.45,2.06-.86,2.12-2.33,1.92-3.99-.53-10.76-6.57-11.8-10.55-.34-1.29-.69-2.76.49-3.72,1.06-.86,2.18.08,3.26.46,5.64,2.04,8.79,6.24,10.38,11.88Z"/><path class="cls-4" d="m178.09,34.27c-2,.05-1.96-1.07-1.66-2.62.92-4.66,6.74-10.86,11.24-11.84,1.97-.43,3.34-.12,3.19,2.34-.27,4.35-8.42,12.11-12.77,12.13Z"/><path class="cls-4" d="m223.95,345.48c.08,2.03-.43,3.1-2.89,2.56-4.93-1.09-10.5-6.99-11.4-12.09-.33-1.89.19-2.45,1.95-2.35,4.16.25,12.17,7.94,12.34,11.88Z"/><path class="cls-4" d="m111.46,167.22c-1.91.18-2.21-.59-1.8-2.08,1.57-5.81,4.86-10.12,10.66-12.2,2.46-.88,3.92-.23,3.47,2.76-.69,4.56-8.13,11.42-12.32,11.52Z"/><path class="cls-4" d="m223.85,79.41c.18,2.87-1.15,3.25-3.14,2.82-4.83-1.04-10.4-7.37-11.11-12.43-.22-1.57.05-2.13,1.7-2.03,4.72.27,12.41,7.61,12.55,11.64Z"/><path class="cls-4" d="m144.12,156.58c5.95.24,13.3,7.91,13.62,12.73.13,2.02-.92,2.08-2.52,1.78-4.59-.85-10.85-6.68-11.9-11.19-.45-1.95-.2-3.35.81-3.32Z"/><path class="cls-4" d="m23.84,79.41c.22,2.77-1.05,3.25-3.07,2.84-4.79-.97-10.38-7.27-11.14-12.39-.22-1.5-.09-2.17,1.62-2.1,4.65.19,12.41,7.53,12.6,11.64Z"/><path class="cls-4" d="m39.42,100.38c-4.61-.23-11.54-7.84-11.89-12.84-.13-1.83.65-1.86,2.03-1.69,4.65.57,11.35,6.8,12.17,11.31.35,1.95.12,3.35-2.32,3.22Z"/><path class="cls-4" d="m224.42,87.55c-.24,4.85-6.59,11.98-11.35,12.75-2.59.42-3.25-.78-2.81-3.15.84-4.51,7.54-10.77,12.19-11.28,1.87-.21,2.06-.04,1.97,1.68Z"/><path class="cls-4" d="m79.31,189.24c-3.18.08-3.18-1-2.89-2.58.96-5.14,6.66-10.81,11.74-11.75,2.03-.38,2.83.2,2.7,2.22-.29,4.37-8.39,12.09-11.55,12.11Z"/><path class="cls-4" d="m78.67,200.78c3.83.13,11.47,7.26,12.13,11.71.39,2.66-.92,3.23-3.24,2.67-4.52-1.09-10.36-7.38-11.17-11.92-.29-1.65-.11-2.64,2.28-2.47Z"/><path class="cls-4" d="m242.42,69.69c-.31,4.69-6.02,11.24-10.92,12.47-2.73.69-3.75-.27-3.21-3.07.87-4.51,7.65-10.75,12.22-11.27,1.47-.17,2.31.06,1.91,1.87Z"/><path class="cls-4" d="m175.73,202.74c-.16,4.3-7.3,11.91-11.75,12.56-2.23.33-3.11-.58-2.79-2.8.69-4.63,7.86-11.35,12.55-11.73,1.62-.13,2.05.3,1.99,1.97Z"/><path class="cls-4" d="m208.87,4.13c-.27,4.58-7.98,11.91-12.73,12.13-2.08.09-2-1.05-1.7-2.59.91-4.66,6.73-10.86,11.23-11.86,1.98-.44,3.34-.1,3.2,2.32Z"/><path class="cls-4" d="m175.75,335.57c.06,4.67-7.99,12.69-12.65,12.68-1.99,0-2.1-1.18-1.91-2.65.59-4.6,7.78-11.44,12.4-11.8,1.77-.14,2.14.17,2.16,1.77Z"/><path class="cls-4" d="m42.48,335.24c.21,4.5-7.74,12.89-12.28,12.98-2.76.05-2.27-1.93-2.03-3.49.58-3.74,8.15-10.63,11.99-11.07,1.74-.2,2.25.15,2.32,1.59Z"/><path class="cls-4" d="m8.72,252.73c.19,2.8-1.27,2.82-2.9,2.52-4.61-.85-10.81-7.49-11.46-12.13-.18-1.33-.2-2.31,1.5-2.39,4.54-.21,12.7,7.69,12.85,12Z"/><path class="cls-4" d="m130.04,329.73c4.33-.1,12.37,8.33,12.46,12.88.04,1.83-.98,1.82-2.2,1.73-3.98-.32-11.78-7.6-12.18-11.44-.15-1.46-.37-3.14,1.93-3.16Z"/><path class="cls-4" d="m196.29,196.77c4.69.22,12.39,7.68,12.59,12.18.07,1.63-.45,2.43-2.31,2.26-4.85-.44-11.95-7.58-12.31-12.51-.11-1.59.33-2.01,2.02-1.93Z"/><path class="cls-4" d="m111.35,344.38c-1.46,0-1.97-.51-1.76-2.13.57-4.58,6.53-11,11.26-12.25,2.79-.74,3.27.53,3.08,2.76-.35,4-8.69,11.69-12.58,11.63Z"/><path class="cls-4" d="m123.97,323.89c-.01,1.93-.86,2.92-2.79,2.08-5.37-2.34-9.54-5.88-11.37-11.71-.46-1.48-.62-2.58,1.47-2.69,4.63-.24,12.9,7.74,12.69,12.32Z"/><path class="cls-4" d="m162.55,307.59c5.23.04,13.6,8.93,13.23,13.07-.15,1.7-1.17,1.87-2.43,1.4-5.49-2.06-10.06-5.17-11.99-11.08-.61-1.86-.3-3.29,1.18-3.39Z"/><path class="cls-4" d="m78.56,322.22c-2.1.12-2.41-.71-2.27-2.15.45-4.5,7.5-11.9,11.87-12.41,1.9-.22,2.83.46,2.7,2.47-.29,4.36-8.33,11.99-12.31,12.1Z"/><path class="cls-4" d="m130.15,193.24c-2.33.11-2.2-1.55-2.07-3.05.38-4.28,8.25-11.55,12.47-11.6,1.4-.01,2.05.36,1.88,2.05-.47,4.54-7.98,12.39-12.28,12.6Z"/><path class="cls-4" d="m245.39,299.92c-2.56.26-2.36-1.15-2.18-2.51.64-4.89,6.58-10.93,11.55-11.67,1.23-.18,2.72-.71,2.74,1.56.05,4.5-7.84,12.52-12.12,12.62Z"/><path class="cls-4" d="m45.8,222.97c3.43-.14,11.43,7.79,11.68,12.52.07,1.28-.31,1.77-1.53,1.92-4.65.57-13.09-7.7-12.85-12.61.06-1.14.38-1.89,2.71-1.83Z"/><path class="cls-4" d="m6.91,223.07c1.76-.38,2,.64,1.98,1.97-.07,4.92-7.86,12.56-12.59,12.38-1.49-.06-1.93-.56-1.74-2.15.61-4.85,7.77-12.02,12.34-12.2Z"/><path class="cls-4" d="m-3.67,285.58c4.74-.2,12.52,7.48,12.57,12.38.01,1.33-.22,2.12-1.95,1.99-4.62-.34-11.8-7.44-12.38-12.25-.19-1.61.3-2.14,1.76-2.12Z"/><path class="cls-4" d="m208.9,269.85c.05,4.47-8.35,12.2-13.1,12.17-1.46,0-1.59-.69-1.53-1.83.23-4.66,7.65-12.34,12.14-12.58,1.65-.09,2.53.53,2.49,2.25Z"/><path class="cls-4" d="m124.43,280.42c.31,1.41-.25,1.86-1.56,1.81-4.48-.17-11.84-6.86-12.63-11.45-.42-2.42.36-3.52,2.9-3.07,4.78.85,11.14,8.05,11.3,12.71Z"/><path class="cls-4" d="m163.68,174.82c4.48.28,11.75,7.62,12.06,12.37.13,1.92-.72,2.21-2.41,1.94-4.6-.74-11.37-7.11-12.11-11.55-.28-1.68-.11-3.07,2.46-2.76Z"/><path class="cls-4" d="m111.77,134.62c5.22.07,12.43,7.81,12.22,12.31-.08,1.7-.61,2.27-2.47,1.91-3.81-.74-10.6-6.7-11.31-10.38-.35-1.81-.61-3.82,1.56-3.85Z"/><path class="cls-4" d="m157.77,220.42c.25,4.27-8.17,13.05-12.43,12.98-1.73-.03-2.32-.9-2.21-2.54.29-4.36,8.33-11.97,12.79-12.12,1.25-.04,1.89.4,1.84,1.68Z"/><path class="cls-4" d="m57.78,147.24c-.04,1.99-1.02,2.35-2.34,1.86-5.49-2.04-10.09-5.11-12.04-11.01-.59-1.79-.59-3.41,1.95-3.47,4.26-.11,12.68,8.71,12.43,12.63Z"/><path class="cls-4" d="m8.87,137.1c-.25,4.35-8.29,11.98-12.78,12.14-2.09.07-1.95-1.11-1.65-2.63.92-4.67,6.74-10.84,11.23-11.83,1.97-.43,3.34-.11,3.2,2.31Z"/><path class="cls-4" d="m96.89,218.67c3.24-.19,12.04,8.18,12.01,12.46-.02,2.13-1.26,2.45-3,2.16-4.44-.75-10.84-7.55-11.54-12.15-.2-1.33-.23-2.34,2.52-2.47Z"/><path class="cls-4" d="m-3.67,196.78c4.53.27,11.78,7.07,12.47,11.72.32,2.17-.33,3.06-2.76,2.55-5.01-1.05-10.63-6.66-11.64-11.92-.38-1.96.04-2.46,1.93-2.35Z"/><path class="cls-4" d="m108.89,158.05c-.06,5.25-8.96,13.62-13.08,13.23-1.7-.16-1.86-1.18-1.38-2.44,2.07-5.49,5.17-10.06,11.09-11.98,1.87-.61,3.29-.29,3.38,1.19Z"/><path class="cls-4" d="m106.64,11.96c-4.19-.11-11.35-7.27-12.04-12.15-.37-2.62,1.12-2.28,2.65-2.05,4.97.76,10.91,6.78,11.55,11.69.18,1.36.4,2.78-2.16,2.51Z"/><path class="cls-4" d="m145.28,100.41c-2.14-.06-2.37-1.38-2.03-3.08.81-4.1,8.06-10.83,12.3-11.49,1.43-.22,2.2.07,2.23,1.7.08,4.63-8.05,13.04-12.49,12.86Z"/><path class="cls-4" d="m-4.09,63.74c4.25-.27,13.04,8.15,12.99,12.42-.02,1.73-.88,2.33-2.53,2.22-4.35-.28-11.96-8.3-12.13-12.78-.05-1.24.38-1.9,1.67-1.85Z"/><path class="cls-4" d="m57.74,65.68c-.29,4.47-7.24,11.95-11.73,12.62-2.65.4-3.25-.9-2.7-3.22,1.08-4.51,7.32-10.32,11.89-11.17,1.61-.3,2.65-.21,2.54,1.76Z"/><path class="cls-4" d="m8.9,3.72c.27,4.3-9.42,13.41-13.38,12.58-.97-.2-1.26-.81-1.29-1.78C-5.89,10.14,2.49,1.47,6.73,1.61c1.41.05,2.16.67,2.17,2.1Z"/><path class="cls-4" d="m57.78,14.33c-.05,1.96-1.06,2.26-2.36,1.78-5.49-2.05-10.09-5.12-12.03-11.03-.59-1.8-.56-3.41,1.97-3.45,4.27-.08,12.69,8.76,12.42,12.7Z"/><path class="cls-4" d="m208.88,76.68c-.16,2.04-1.74,2-3.51,1.41-5.9-1.97-8.95-6.59-10.98-12.08-.49-1.33-.07-2.22,1.59-2.28,4.34-.15,13.07,8.24,12.91,12.95Z"/><path class="cls-4" d="m257.73,65.95c-.17,4.01-7.16,11.6-11.64,12.35-2.12.36-3.2-.35-2.91-2.67.56-4.42,7.97-11.44,12.45-11.84,1.47-.13,2.26.25,2.11,2.16Z"/><path class="cls-4" d="m245.03,1.63c4.77.14,12.5,8.18,12.71,12.65.1,1.98-.88,2.38-2.47,1.78-5.3-2.02-9.79-4.97-11.77-10.66-.68-1.95-.86-3.69,1.52-3.77Z"/><path class="cls-4" d="m112.62,255.35c-1.99.17-2.63-.8-2.47-2.69.4-4.56,8.12-11.79,12.76-11.91,1.3-.03,1.64.43,1.56,1.76-.3,4.98-7.24,12.59-11.85,12.85Z"/><path class="cls-4" d="m57.71,242.94c-.19,4.31-6.98,11.6-11.63,12.35-2.56.41-3.33-.74-2.79-3.13,1.09-4.85,7.4-10.38,12.43-11.08,1.58-.22,2.21.1,2,1.86Z"/><path class="cls-4" d="m257.74,199.1c-.06,3.82-7.53,11.45-12.18,12.07-2.25.3-2.61-.79-2.37-2.58.6-4.6,7.73-11.34,12.38-11.8,1.42-.14,2.28.13,2.18,2.31Z"/><path class="cls-4" d="m157.74,264.95c-.04,4.27-7.33,11.99-11.91,12.39-2.34.2-2.87-.71-2.33-2.94,1.21-5.05,6.99-10.46,12.11-11.27,1.45-.23,2.28-.17,2.13,1.82Z"/><path class="cls-4" d="m105.64,277.32c-3.83-.2-11.09-7.81-11.38-12.51-.1-1.62.42-1.93,2.01-1.72,5.01.68,11.49,6.8,12.35,11.66.37,2.1-.39,2.76-2.99,2.57Z"/><path class="cls-4" d="m90.71,79.39c.17,3.18-1.3,3.18-2.92,2.87-4.64-.89-10.79-7.49-11.44-12.13-.19-1.33-.2-2.31,1.5-2.39,4.21-.19,12.73,8.07,12.85,11.65Z"/><path class="cls-4" d="m75.79,91.49c.17,4.55-7.83,12.89-12.37,12.92-1.67.01-2.32-.64-2.11-2.44.62-5.18,7.32-11.54,12.62-11.94,1.28-.1,1.85.2,1.86,1.45Z"/><path class="cls-4" d="m175.74,69.86c-.03,4.32-7.39,12.1-12.02,12.51-1.93.17-2.71-.47-2.34-2.59.83-4.68,7.63-11.39,12.28-11.97,1.49-.19,2.23.28,2.09,2.05Z"/><path class="cls-4" d="m244.89,134.61c4.73-.08,13.1,8.69,12.88,12.95-.08,1.67-.99,1.99-2.32,1.54-5.64-1.9-9.83-5.43-12.04-11.04-.7-1.76-.55-3.35,1.48-3.45Z"/><path class="cls-4" d="m208.87,137.07c-.2,4.61-8.8,12.36-13.25,12.01-1.47-.12-1.42-.94-1.31-2.03.47-4.53,7.44-11.83,11.81-12.37,1.86-.23,2.89.38,2.75,2.39Z"/><path class="cls-4" d="m63.1,60.28c-1.74.04-2.03-.98-1.98-2.28.16-4.29,8.12-11.98,12.61-12.23,1.14-.06,1.92.14,2.07,1.47.46,4.29-8.37,13.29-12.69,13.04Z"/><path class="cls-4" d="m142.43,47.61c-.1,4.69-7.88,12.67-12.43,12.66-2.01,0-1.98-1.3-1.82-2.72.47-4.3,8.01-11.66,12.21-11.91,1.29-.08,2.38.09,2.05,1.96Z"/><path class="cls-4" d="m242.39,335.63c-.36,4.94-7.26,12.1-12.09,12.56-2.35.23-2.32-1.23-2.09-2.85.58-4.2,7.59-11.09,11.87-11.67,1.96-.27,2.44.14,2.31,1.96Z"/><path class="cls-4" d="m145.27,11.93c-2.34.36-2.28-.99-2.08-2.4.73-4.99,6.55-10.95,11.51-11.75,1.47-.24,3.04-.68,2.71,1.97-.6,4.8-7.72,11.97-12.15,12.18Z"/><path class="cls-4" d="m76.27,336.02c-.13-2.06.7-2.39,2.14-2.26,4.61.42,11.76,7.16,12.4,11.78.24,1.76-.06,2.9-2.33,2.61-4.61-.58-12.1-8.2-12.21-12.14Z"/><path class="cls-4" d="m9.58,335.91c-.28-2.61,1.14-2.43,2.5-2.2,4.23.7,10.82,7.14,11.61,11.32.33,1.74.65,3.5-2.15,3.11-5.01-.71-11.84-7.93-11.96-12.22Z"/><path class="cls-4" d="m124.41,14.34c.38,1.83-.48,2.03-1.92,1.87-4.68-.54-11.73-7.22-12.32-11.78-.23-1.77.12-2.86,2.36-2.59,5.18.62,11.58,7.32,11.88,12.51Z"/><path class="cls-4" d="m178.84,344.2c-2.55.15-2.97-.86-2.38-2.46,2.03-5.54,5.31-9.87,11.26-11.67,2.01-.61,3.31-.5,3.14,2.05-.31,4.58-8.03,11.97-12.02,12.08Z"/><path class="cls-4" d="m208.88,92.16c-.18,4.57-7.02,11.85-11.59,12.27-1.86.17-3.23.07-2.57-2.64,1.12-4.6,7.47-10.88,11.88-11.64,1.96-.34,2.38.37,2.28,2.02Z"/><path class="cls-4" d="m108.94,99.3c.04,1.07-1.34,1.35-3.3.91-4.48-1-10.29-7.19-11.2-11.83-.3-1.52-.41-2.69,1.67-2.61,4.09.16,12.56,8.23,12.83,13.53Z"/><path class="cls-4" d="m139.39,1.74c2.52,0,2.63,1.26,2.43,2.7-.61,4.57-7.66,11.26-12.34,11.76-1.08.12-1.92.19-2.05-1.28-.43-4.74,7.72-13.34,11.96-13.19Z"/><path class="cls-4" d="m256.1,326.25c-4.46.31-12.9-7.69-12.99-12.31-.04-2.12.98-2.42,2.88-2,4.81,1.06,10.77,7.09,11.63,11.97.3,1.72-.03,2.23-1.52,2.34Z"/><path class="cls-4" d="m190.91,198.15c-.02,4.98-8.01,13.05-12.38,13.23-2.08.09-2.69-.87-2.03-2.79,1.96-5.7,5.7-9.6,11.46-11.55,1.87-.63,2.89-.23,2.94,1.11Z"/><path class="cls-4" d="m208.91,313.39c-.24,5.16-7.93,12.55-12.61,12.83-1.92.11-2.45-.77-1.86-2.4,2.01-5.54,5.26-9.9,11.21-11.72,1.95-.6,3.3-.61,3.26,1.29Z"/><path class="cls-4" d="m44.95,311.73c4.35-.26,13.38,8.96,12.84,13.1-.17,1.33-1,1.47-2.12,1.4-4.52-.3-11.75-7.06-12.47-11.72-.3-1.92.18-2.68,1.76-2.77Z"/><path class="cls-4" d="m8.88,314.02c-.19,4.49-7.86,11.9-12.57,12.21-1.91.13-2.28-.68-1.93-2.39,1.02-4.94,6.97-10.93,11.7-11.92,1.97-.41,2.87.06,2.79,2.1Z"/><path class="cls-4" d="m229.99,170.97c-1.91.26-1.93-.97-1.96-2.16-.13-4.69,7.94-12.44,12.7-12.22,1.11.05,1.76.33,1.77,1.72,0,4.27-8.34,12.71-12.51,12.66Z"/><path class="cls-4" d="m90.87,168.87c.12,1.96-.64,2.83-2.67,2.16-5.93-1.96-9.88-5.91-11.76-11.87-.68-2.14.48-2.69,2.35-2.5,4.38.45,11.79,7.94,12.08,12.21Z"/><path class="cls-4" d="m63.07,196.75c4.37.11,12.78,8.62,12.68,12.8-.05,2.03-1.39,1.95-2.78,1.74-4.34-.67-11.25-7.67-11.8-11.9-.19-1.48-.04-2.71,1.9-2.64Z"/><path class="cls-4" d="m24.48,220.6c.07,4.74-7.19,12.39-12.2,12.64-2.33.12-2.35-1.28-2.07-2.9.81-4.57,7.3-10.68,12.04-11.45,1.26-.2,2.38-.45,2.23,1.71Z"/><path class="cls-4" d="m45.42,211.24c-2.2.12-2.43-1.06-2.26-2.57.52-4.54,7.6-11.31,12.32-11.85,1.38-.16,2.27-.03,2.28,1.65.03,4.35-8.26,12.77-12.34,12.77Z"/><path class="cls-4" d="m223.91,309.69c.27,4.55-8.83,13.26-13.16,12.6-1.41-.21-1.27-1.02-1.12-2.14.76-5.5,6.4-11.5,11.64-12.26,1.99-.29,2.54.09,2.64,1.79Z"/><path class="cls-4" d="m177.27,78.47c-.59.03-1.47-.72-.8-2.75,1.96-5.93,5.91-9.87,11.86-11.77,2.13-.68,2.69.47,2.51,2.34-.44,4.37-7.93,11.79-13.57,12.18Z"/><path class="cls-4" d="m129,63.74c4.23-.22,12.7,7.42,12.93,11.68.11,1.93-.24,3.27-2.78,2.64-5.29-1.32-10.51-6.7-11.42-11.99-.36-2.08-.27-2.25,1.26-2.33Z"/><path class="cls-4" d="m255.91,240.99c2.18-.13,1.89,1.02,1.69,2.26-.78,4.75-6.9,11.24-11.46,12.02-1.63.28-3.01.24-2.88-2.09.29-5,7.98-12.3,12.65-12.19Z"/><path class="cls-4" d="m241.91,291.87c.01,4.51-8.31,12.49-12.86,12.38-1.32-.03-1.6-.52-1.52-1.81.35-5.25,6.71-11.99,11.9-12.64,1.78-.22,2.48.38,2.47,2.06Z"/><path class="cls-4" d="m190.91,109.79c.2,4.8-7.56,12.82-12.24,12.69-1.57-.04-2.38-.36-2.06-2.34.75-4.51,7.66-11.43,12.11-12.03,1.56-.21,2.18.18,2.19,1.68Z"/><path class="cls-4" d="m77.3,23.59c5.6.23,13.6,8.3,13.61,12.53,0,2.16-1.1,2.47-2.94,1.85-5.77-1.94-9.5-5.85-11.46-11.55-.66-1.93-.02-2.86.79-2.84Z"/><path class="cls-4" d="m108.95,26.8c.16,3.35-8.07,11.39-12.81,11.48-1.6.03-2.02-.65-1.84-2.11.56-4.65,7.28-11.46,11.97-12.27,1.69-.29,2.57.06,2.68,2.9Z"/><path class="cls-4" d="m157.74,35.9c.11,2.18-.75,2.46-2.17,2.32-4.64-.45-11.77-7.19-12.38-11.8-.24-1.79.12-2.88,2.37-2.58,4.65.62,12.12,8.25,12.19,12.06Z"/><path class="cls-4" d="m175.77,24.96c-.31,5.11-7.94,12.78-12.45,13.26-2.37.25-2.38-1.22-2.1-2.84.73-4.21,7.21-10.72,11.51-11.59,1.6-.33,3.09-.4,3.04,1.18Z"/><path class="cls-4" d="m163.4,130.59c4.53,0,12.5,8.34,12.38,12.87-.04,1.33-.56,1.59-1.83,1.5-5.28-.36-11.99-6.71-12.64-11.92-.22-1.79.4-2.47,2.08-2.45Z"/><path class="cls-4" d="m27.59,220.68c-.38-1.83.48-2.03,1.92-1.87,4.68.54,11.73,7.22,12.32,11.78.23,1.77-.12,2.86-2.36,2.59-5.18-.62-11.58-7.32-11.88-12.51Z"/><path class="cls-4" d="m75.76,76.61c-.08,1.96-1.42,1.91-2.81,1.7-4.35-.69-11.26-7.69-11.77-11.92-.18-1.48-.05-2.69,1.93-2.61,4.38.16,12.79,8.66,12.65,12.84Z"/><path class="cls-4" d="m157.77,302.5c.08,1.39-.6,1.55-1.85,1.45-4.92-.41-11.91-6.61-12.71-11.39-.29-1.74.05-2.96,2.16-2.98,4.25-.04,12.6,8.65,12.4,12.92Z"/><path class="cls-4" d="m108.9,291.66c.3,4.43-8.97,13.01-13.38,12.41-1.43-.19-1.32-1.07-1.18-2.14.58-4.48,6.9-11.26,11.41-12.18,1.65-.34,3.02-.23,3.15,1.91Z"/><path class="cls-4" d="m29.06,304.24c-1.3.09-1.62-.46-1.53-1.78.34-5.24,6.7-11.99,11.9-12.65,1.77-.23,2.48.35,2.48,2.05.02,4.5-8.28,12.51-12.85,12.38Z"/><path class="cls-4" d="m24.41,302.3c.37,1.88-.54,2.02-1.95,1.86-4.7-.55-11.73-7.24-12.3-11.79-.22-1.8.17-2.84,2.39-2.56,5.22.65,11.6,7.35,11.86,12.5Z"/><path class="cls-4" d="m130.31,152.6c4.14-.09,12.19,8.62,12.2,13.08,0,1.44-.64,1.61-1.8,1.55-4.64-.21-12.34-7.58-12.59-12.1-.1-1.8.5-2.49,2.18-2.53Z"/><path class="cls-4" d="m208.9,297.99c.08,1.82-.68,2.16-2.45,1.82-4.84-.93-10.62-6.68-11.73-11.62-.47-2.1.05-2.74,2.1-2.56,4.97.43,11.97,7.55,12.08,12.36Z"/><path class="cls-4" d="m57.47,287.43c-.17,4.64-7.32,11.78-12.18,12.46-2.6.36-2.33-1.1-2.04-2.64.98-5.1,6.24-10.44,11.22-11.43,1.41-.28,3.09-.89,3,1.6Z"/><path class="cls-4" d="m224.49,169.73c.21,1.49-.68,1.57-1.82,1.5-3.91-.24-11.38-6.51-12.4-10.51-.33-1.29-.68-2.75.53-3.69,1.06-.83,2.19.05,3.25.49,5.56,2.31,10.59,8.18,10.45,12.22Z"/><path class="cls-4" d="m57.75,280.13c.1,2.03-.82,1.93-2.21,1.7-5.47-.92-10.87-5.97-12.05-11.25-.4-1.79-.36-2.96,1.84-3,4.46-.08,12.49,8.19,12.42,12.55Z"/><path class="cls-4" d="m-3.88,281.98c-2.14.16-1.93-.94-1.73-2.21.74-4.72,6.86-11.22,11.44-12.05,1.61-.29,3.02-.29,2.92,2.04-.23,4.99-7.87,12.27-12.63,12.21Z"/><path class="cls-4" d="m224.42,220.53c-.26,5.26-6.67,11.99-11.87,12.64-2.22.28-2.61-.76-2.39-2.56.56-4.55,7.58-11.27,12.3-11.77,1.85-.2,2.05-.03,1.96,1.69Z"/><path class="cls-4" d="m244.98,223.01c4.34-.12,12.24,7.79,12.5,12.49.12,2.24-1.21,1.95-2.53,1.78-4.97-.61-11.36-7.15-11.8-12.05-.11-1.22-.12-2.4,1.83-2.23Z"/><path class="cls-4" d="m222,174.74c1.94-.01,1.99,1.25,1.83,2.7-.46,4.3-7.97,11.66-12.2,11.92-1.25.08-2.2.02-2.11-1.81.22-4.81,7.88-12.81,12.48-12.82Z"/><path class="cls-4" d="m206.72,223.08c2.35-.36,2.29,1,2.08,2.41-.74,4.99-6.56,10.95-11.52,11.75-1.47.24-3.05.69-2.71-1.97.62-4.83,7.73-11.98,12.14-12.19Z"/><path class="cls-4" d="m41.95,159.5c-.19,4.25-8.53,11.84-12.87,11.77-2.45-.04-1.5-1.5-1.22-2.72,1.4-6.12,5.65-9.49,11.23-11.53,2.41-.89,2.93.49,2.86,2.49Z"/><path class="cls-4" d="m190.87,57.88c.13,1.97-.62,2.63-2.68,2.23-4.78-.91-11.47-7.73-11.92-12.32-.15-1.51.4-2.1,1.95-2.03,4.61.18,12.33,7.53,12.66,12.12Z"/><path class="cls-4" d="m30.14,215.25c-2.28.04-2.2-1.45-1.88-3.02.93-4.63,7.46-10.71,12.09-11.37,1.31-.19,2.21-.32,2.14,1.55-.18,4.78-7.79,12.79-12.35,12.84Z"/><path class="cls-4" d="m162.94,171.26c-1.95-.04-1.95-1.35-1.74-2.75.64-4.29,7.5-11.16,11.8-11.8,1.14-.17,2.35-.43,2.56,1.35.5,4.28-8.07,13.28-12.62,13.2Z"/><path class="cls-4" d="m257.44,102.32c.31,2.37-1.22,2.18-2.51,2.12-4.49-.23-11.91-8.16-11.84-12.59.02-1.46.5-1.97,2.12-1.76,4.52.57,12.15,8.19,12.24,12.24Z"/><path class="cls-4" d="m190.72,101.75c.19,2.8-1.28,2.83-2.89,2.53-4.58-.83-10.67-7.3-11.43-12.04-.2-1.24-.51-2.26,1.42-2.25,4.58.01,12.75,7.68,12.9,11.76Z"/><path class="cls-4" d="m211,200.73c4.48-.23,12.82,7.72,12.91,12.3.03,1.65-.57,2.37-2.38,2.16-4.72-.53-11.56-7.73-11.97-12.62-.1-1.25.06-1.93,1.44-1.85Z"/><path class="cls-4" d="m57.44,102.33c.34,2.31-1.17,2.17-2.48,2.11-4.47-.2-11.91-8.1-11.87-12.55.01-1.43.45-2,2.09-1.81,4.48.52,12.13,8.14,12.26,12.25Z"/><path class="cls-4" d="m8.9,91.72c.3,4.51-7.67,12.83-12.19,12.75-1.52-.03-2.43-.27-2.12-2.29.69-4.46,7.56-11.47,12.07-12,1.82-.22,2.13,0,2.24,1.54Z"/><path class="cls-4" d="m241.9,98.11c.06,1.7-.8,2.35-2.44,2.28-4.58-.2-11.68-7.83-11.43-12.31.07-1.26.23-2.15,1.97-2.05,4.31.26,11.94,7.87,11.91,12.08Z"/><path class="cls-4" d="m75.38,120.11c.49,2.81-1.37,2.43-2.75,2.3-4.33-.42-11.37-8.05-11.52-12.36-.05-1.31.18-2.13,1.92-2,4.32.32,12.04,7.87,12.35,12.06Z"/><path class="cls-4" d="m78.99,112.55c4.46.19,11.88,8.02,11.92,12.53.02,1.91-.84,2.06-2.52,1.71-4.62-.95-10.8-7.23-11.73-11.76-.48-2.36.64-2.52,2.33-2.47Z"/><path class="cls-4" d="m163.73,126.79c-2.69.57-2.93-.8-2.51-2.19,1.63-5.48,4.82-9.69,10.35-11.74,1.24-.46,2.74-.82,3.7.31.84.99,0,2.28-.43,3.25-2.32,5.21-6.11,8.87-11.11,10.37Z"/><path class="cls-4" d="m63.43,152.6c4.55.05,12.47,8.37,12.35,12.88-.05,1.87-1.02,1.57-2.31,1.34-5.21-.93-10.98-6.32-11.98-11.33-.45-2.24,0-2.91,1.93-2.88Z"/><path class="cls-4" d="m23.81,178.2c-.19,3.51-7.77,10.73-12.48,11.05-2.23.15-1.89-.96-1.57-2.46,1.16-5.42,6.3-10.71,11.52-11.88,2.12-.47,2.73.4,2.53,3.29Z"/><path class="cls-4" d="m78.17,144.93c-1.83.38-2.02-.49-1.86-1.93.54-4.68,7.2-11.71,11.77-12.31,1.75-.23,2.89.07,2.61,2.33-.58,4.73-7.82,11.66-12.52,11.92Z"/><path class="cls-4" d="m257.76,190.81c.02,2.37-.9,2.53-2.28,2.37-4.71-.55-11.77-7.27-12.31-11.84-.18-1.48-.02-2.68,1.95-2.6,4.37.17,12.7,8.57,12.65,12.06Z"/><path class="cls-4" d="m190.91,191.14c-.03,2.16-1.16,2.28-2.97,1.86-5.05-1.17-10.41-6.88-11.3-12.06-.23-1.37-.37-2.22,1.44-2.23,4.6,0,12.86,7.94,12.83,12.43Z"/><path class="cls-4" d="m75.75,180.47c.06,4.35-8.14,12.64-12.57,12.79-1.56.05-2.02-.58-1.94-2.06.27-4.83,7.19-11.85,12.25-12.36,1.8-.18,2.24.14,2.26,1.63Z"/><path class="cls-4" d="m-3.18,193.22c-2.5.16-2.9-.8-2.37-2.44,1.93-5.93,5.86-9.87,11.77-11.82,2.02-.67,2.79.21,2.65,2.19-.32,4.58-8.01,11.94-12.05,12.07Z"/><path class="cls-4" d="m257.76,280.21c.07,2.02-.92,1.84-2.25,1.6-5.16-.9-10.9-6.31-12.03-11.3-.42-1.84-.22-2.93,1.92-2.93,4.51,0,12.49,8.29,12.37,12.63Z"/><path class="cls-4" d="m75.76,298.14c.09,2.03-.85,1.93-2.22,1.69-5.15-.88-10.9-6.27-12.05-11.29-.42-1.81-.29-2.94,1.88-2.96,4.48-.04,12.47,8.23,12.4,12.56Z"/><path class="cls-4" d="m178.1,299.99c-2.15.14-1.91-.97-1.71-2.23.76-4.73,6.85-11.2,11.43-12.03,1.6-.29,3.03-.31,2.92,2.03-.21,4.58-8.34,12.31-12.65,12.23Z"/><path class="cls-4" d="m78.26,289.58c4.32-.16,12.82,8.35,12.64,12.64-.05,1.11-.31,1.78-1.7,1.79-4.52.05-12.6-7.6-12.94-12.33-.11-1.53.6-2.11,2.01-2.1Z"/><path class="cls-4" d="m173.83,289.58c1.8.09,2.12,1.01,1.74,2.66-1.21,5.27-6.55,10.4-11.9,11.53-1.62.34-2.57.37-2.58-1.62-.03-4.39,8.49-12.82,12.74-12.57Z"/><path class="cls-4" d="m75.46,313.55c-.04,4.61-7.74,12.55-12.39,12.69-1.6.05-1.99-.81-1.98-2.15,0-4.2,7.86-12.2,12.28-12.48,1.27-.08,2.39.04,2.09,1.94Z"/><path class="cls-4" d="m178.5,311.59c4.29.14,12.23,8.08,12.38,12.38.07,2.06-.89,2.71-2.79,2.01-5.57-2.05-9.78-5.4-11.27-11.49-.41-1.66-.77-3.01,1.68-2.9Z"/><path class="cls-4" d="m-3.8,329.58c4.24-.24,12.79,8.24,12.7,12.59-.04,1.73-.79,2.28-2.54,1.93-5.13-1.03-11.04-7.24-11.77-12.29-.22-1.52.06-2.21,1.6-2.23Z"/><path class="cls-4" d="m44.34,344.28c-1.45.06-1.39-1.43-1.08-3.02.82-4.24,7.22-10.67,11.5-11.51,1.52-.3,3.01-.61,2.66,2.01-.69,5.06-7.49,12.15-13.08,12.51Z"/><path class="cls-4" d="m61.62,329.77c5.73-.12,14.02,8.17,14.13,12.65.05,2.09-1.18,2.07-2.63,1.6-5.69-1.86-9.78-5.44-11.78-11.16-.52-1.49-.58-3.04.28-3.08Z"/><path class="cls-4" d="m206.91,344.27c-4.1.35-12.63-8.45-12.45-13.07.07-1.86,1.22-1.67,2.37-1.54,4.39.49,11.71,7.91,12.03,12.15.09,1.25-.02,2.36-1.95,2.46Z"/><path class="cls-4" d="m257.42,331.6c-.32,4.88-7.17,11.99-12.05,12.57-2.34.28-2.42-1.12-2.16-2.76.69-4.32,7.62-11.15,11.86-11.75,1.96-.27,2.46.14,2.34,1.93Z"/><path class="cls-4" d="m9.39,11.78C10.53,5.39,13.64.69,19.73-1.8c1.25-.51,2.58-1.13,3.69.07.91.98.42,2.16.05,3.29-1.91,5.69-7.3,9.69-14.08,10.22Z"/><path class="cls-4" d="m78.13,12.01c-2.12.17-1.95-.91-1.75-2.19.73-4.69,6.83-11.19,11.42-12.05,1.59-.3,3.04-.35,2.95,1.99-.17,4.57-8.26,12.29-12.63,12.25Z"/><path class="cls-4" d="m164.03-2.43c3.73-.2,12.4,8.87,11.78,13.19-.2,1.41-1.01,1.29-2.12,1.14-5.07-.69-11.47-6.79-12.31-11.66-.29-1.67.05-2.57,2.65-2.67Z"/><path class="cls-4" d="m177.81,167.01c-1.44.23-1.61-.58-1.56-1.76.21-4.43,7.84-12.36,12.14-12.62,2.01-.12,2.67.83,2.44,2.71-.54,4.39-8.71,11.74-13.02,11.67Z"/><path class="cls-4" d="m130.46,19.76c4.13-.05,11.73,7.9,12.02,12.77.11,1.85-.72,1.81-2.07,1.64-4.77-.61-11.73-7.28-12.25-11.81-.17-1.48.01-2.68,2.3-2.6Z"/><path class="cls-4" d="m42.47,187.6c.24,1.47-.52,1.69-1.72,1.65-4.61-.17-12.26-7.41-12.61-11.97-.12-1.51.09-2.64,2.02-2.53,4.69.26,12.35,8.26,12.31,12.85Z"/><path class="cls-4" d="m190.75,235.3c.09,2.28-1.38,2.25-2.98,1.94-4.6-.89-10.7-7.4-11.4-12.07-.19-1.28-.41-2.24,1.5-2.19,4.69.11,12.77,7.74,12.88,12.32Z"/><path class="cls-4" d="m109.26,222.83c6.96.86,11.25,4.28,13.88,9.97.63,1.36,1.49,2.86.08,4.12-1.15,1.04-2.5.31-3.74-.21-5.95-2.47-8.88-7.19-10.22-13.88Z"/><path class="cls-4" d="m78.25,56.28c-2.02.06-1.83-.94-1.59-2.27.92-5.19,6.31-10.9,11.32-12.03,1.85-.42,2.93-.22,2.92,1.93-.03,4.53-8.33,12.51-12.65,12.37Z"/><path class="cls-4" d="m96.69,41.8c4.23.18,11.9,7.56,12.18,12.1.12,2-.7,2.8-2.69,2.14-5.91-1.97-9.84-5.92-11.75-11.85-.53-1.66-.05-2.58,2.26-2.4Z"/><path class="cls-4" d="m155.81,41.72c1.93.05,2.08.98,1.82,2.35-.89,4.8-7.51,11.37-12.16,12.11-1.85.3-2.41-.51-2.37-2.15.12-4.64,8.53-12.61,12.7-12.32Z"/><path class="cls-4" d="m161.63,41.8c5.72-.12,14,8.18,14.12,12.65.05,2.09-1.18,2.07-2.63,1.59-5.69-1.86-9.78-5.44-11.78-11.16-.52-1.49-.58-3.04.29-3.08Z"/><path class="cls-4" d="m63.99,237.45c-2.62-.13-2.9-1.06-2.6-2.71.87-4.89,7.3-10.99,12.33-11.64,1.13-.15,1.91-.23,2.09,1.18.56,4.38-8.11,13.41-11.82,13.17Z"/><path class="cls-4" d="m123.79,56.58c.21,3.11-.38,4-2.51,3.53-5.25-1.16-11.02-7.29-11.69-12.34-.21-1.6.13-2.1,1.73-1.99,4.71.3,12.29,7.52,12.47,10.81Z"/><path class="cls-4" d="m163.26,219.08c4.74.32,11.85,7.19,12.43,12.05.28,2.34-1.14,2.41-2.77,2.14-4.33-.7-11.17-7.63-11.73-11.87-.19-1.45-.17-2.77,2.08-2.33Z"/><path class="cls-4" d="m90.9,220.78c.15,4.32-8.36,12.79-12.66,12.63-1.42-.05-2.1-.61-1.98-2.13.37-4.73,7.44-11.55,12.48-12.2,1.58-.2,2.16.22,2.17,1.7Z"/><path class="cls-4" d="m45.78,34c-3.1.12-2.78-1.37-2.54-2.67.77-4.26,7.31-10.81,11.57-11.57,1.26-.22,2.72-.66,2.69,1.63-.06,4.95-7.68,12.62-11.72,12.6Z"/><path class="cls-4" d="m78.17,277.89c-1.79.41-2.03-.42-1.87-1.89.5-4.64,7.11-11.67,11.72-12.33,1.69-.24,2.99-.04,2.66,2.25-.71,4.94-7.72,11.65-12.5,11.97Z"/><path class="cls-4" d="m189.27,16.03c-4.76.22-12.44-7.42-12.76-12.49-.11-1.78.74-1.96,2.05-1.9,4.41.19,12.41,8.34,12.34,12.55-.02,1.07-.15,2.06-1.64,1.84Z"/><path class="cls-4" d="m8.91,32.3c-.03,1.56-.73,1.82-2.26,1.6-5.36-.77-11.23-6.63-12.03-12.01-.22-1.49-.03-2.19,1.57-2.29,4.26-.27,12.98,8.4,12.72,12.7Z"/><path class="cls-4" d="m8.91,47.78c.16,4.38-8.58,12.99-12.79,12.65-1.64-.13-1.71-.91-1.48-2.35.88-5.42,6.8-11.28,12.07-11.98,1.58-.21,2.19.17,2.2,1.69Z"/><path class="cls-4" d="m141.96,314.27c-.19,3.98-8.16,11.85-11.86,11.95-2.38.07-2.14-1.64-2-3.1.39-4.05,7.29-10.72,11.48-11.32,2.34-.34,2.37,1.11,2.38,2.47Z"/><path class="cls-4" d="m145.64,321.94c-2.88.21-2.64-1.26-2.41-2.58.72-4.23,7.22-10.79,11.53-11.61,1.24-.23,2.73-.73,2.75,1.56.04,4.85-7.58,12.57-11.87,12.63Z"/><path class="cls-4" d="m108.89,319.95c.11,1.8-.57,2.22-2.41,1.88-5.44-1-10.55-6.08-11.77-11.65-.48-2.17.11-2.78,2.15-2.53,4.43.54,11.87,8.13,12.04,12.3Z"/><path class="cls-4" d="m245.09,33.97c-1.88.34-2.04-.77-1.97-2.06.23-4.23,7.7-11.78,12.09-12.24,1.56-.16,2.49.03,2.21,2.12-.72,5.3-7.47,12.06-12.33,12.17Z"/><path class="cls-4" d="m145.68,188.96c-2.94.19-2.68-1.28-2.45-2.6.74-4.24,7.23-10.79,11.54-11.6,1.24-.23,2.73-.72,2.74,1.57.02,4.89-7.59,12.59-11.83,12.63Z"/><path class="cls-4" d="m223.95,35.14c.07,2.61-.67,3.72-2.97,2.8-4.48-1.79-7.77-4.97-10.2-9.04-.86-1.44-1.43-3.28-.15-4.64,1.33-1.41,2.73.1,4.05.59,5.07,1.88,7.88,5.72,9.27,10.29Z"/><path class="cls-4" d="m109.36,299.53c1.27-6.07,4.18-10.81,10.13-13.26,1.24-.51,2.56-1.22,3.74-.21,1.24,1.06.59,2.41.13,3.68-2.15,5.9-7.65,9.79-14,9.79Z"/><path class="cls-4" d="m257.89,108.32c-1.05,6.96-4.98,11.05-10.81,13.62-1.08.48-2.26.89-3.29.05-1.18-.97-.33-2.12-.02-3.2,1.66-5.9,6.61-9.7,14.12-10.47Z"/><path class="cls-4" d="m57.43,191.33c.39,1.81-.47,2.03-1.92,1.87-4.66-.51-11.67-7.13-12.32-11.74-.24-1.71-.03-2.98,2.27-2.63,4.97.75,11.68,7.76,11.97,12.5Z"/><path class="cls-4" d="m111.15,78.24c-1.5-.11-1.2-1.79-1.03-3.22.48-3.98,7.85-10.64,11.81-10.99,1.7-.15,1.95.64,2.04,1.95.32,4.45-7.46,12.4-12.82,12.25Z"/><path class="cls-4" d="m96.46,348.2c-1.65.22-2.1-.29-1.9-1.93.63-5.08,7.25-11.98,12.12-12.51,1.89-.2,2.29.77,2.19,2.34-.29,4.52-7.85,11.82-12.41,12.09Z"/><path class="cls-4" d="m143.73,333.81c5.46-.44,13.92,8.27,13.82,12.93-.03,1.47-.75,1.55-1.86,1.49-4.66-.26-12.22-7.54-12.56-12.09-.1-1.3.16-2.27.6-2.33Z"/><path class="cls-4" d="m96.2,174.6c4.29-.27,12.97,8.43,12.71,12.71-.09,1.58-.78,1.81-2.28,1.59-5.38-.79-11.23-6.64-12.02-12.03-.22-1.51.02-2.24,1.59-2.27Z"/><path class="cls-4" d="m63.63,281.46c-1.86-.01-2.7-.68-2.21-2.75,1.14-4.8,6.34-9.97,11.12-10.93,2.4-.49,3.42-.09,2.64,2.73-1.41,5.12-7.5,11.09-11.55,10.95Z"/><path class="cls-4" d="m188.24,281.46c-4.32.02-11.55-7.51-11.73-12.03-.09-2.26,1.3-1.89,2.59-1.72,4.7.61,10.51,6.34,11.52,11.13.46,2.19-.62,2.63-2.38,2.62Z"/><path class="cls-4" d="m-5.91,108.46c7.38.43,12.72,4.54,14.26,10.62.24.95.85,1.93-.01,2.78-.98.97-2.17.6-3.25.14-5.86-2.51-9.82-6.6-10.99-13.54Z"/><path class="cls-4" d="m57.8,108.55c-.9,6.83-5.01,10.91-10.98,13.49-1.07.46-2.3.81-3.23-.24-.79-.88-.17-1.86.09-2.8,1.8-6.41,6.83-10.21,14.12-10.46Z"/><path class="cls-4" d="m208.71,121.4c-.14,1.42-1.66,1.14-3.18.77-4.65-1.11-10.33-7.22-11.12-11.85-.17-1.01-.56-1.84,1.02-2.1,4.5-.73,13.57,7.59,13.28,13.17Z"/><path class="cls-4" d="m175.73,246.96c-.1,4.31-7.35,11.95-11.97,12.39-1.87.18-2.81-.36-2.37-2.51,1.07-5.15,7.18-10.96,12.27-11.71,1.49-.22,2.25-.07,2.07,1.84Z"/><path class="cls-4" d="m241.97,319.75c.09,2.05-.73,2.48-2.74,1.99-4.33-1.05-10.32-6.9-11.02-11.15-.27-1.63-.19-2.99,2.12-2.84,4.97.3,11.73,7.21,11.64,12Z"/><path class="cls-4" d="m108.9,202.79c.15,4.38-8.61,12.98-12.8,12.62-1.66-.15-1.69-.95-1.46-2.37.89-5.4,6.84-11.36,12.09-11.91,1.75-.18,2.12.1,2.17,1.67Z"/><path class="cls-4" d="m190.72,242.79c.35,5.1-8.38,13.31-12.76,12.63-1.26-.2-1.52-.77-1.42-2.01.35-4.22,6.63-11.18,10.87-11.77,1.42-.2,3.09-.53,3.31,1.16Z"/><path class="cls-4" d="m90.91,87.82c.13,4.32-8.38,12.77-12.66,12.61-1.42-.05-2.1-.61-1.99-2.13.34-4.46,7.76-11.61,12.49-12.2,1.59-.2,2.15.26,2.15,1.73Z"/><path class="cls-4" d="m75.45,252.99c.23,2.72-1.21,2.46-2.55,2.29-4.7-.62-10.52-6.34-11.52-11.14-.56-2.69,1.1-2.72,2.87-2.58,4.29.35,11.14,7.73,11.2,11.43Z"/><path class="cls-4" d="m94.2,126.47c.89-6.83,5.01-10.91,10.97-13.49,1.07-.46,2.3-.81,3.23.23.79.88.18,1.85-.08,2.8-1.79,6.4-6.82,10.2-14.12,10.46Z"/><path class="cls-4" d="m157.8,126.49c-7.33-.3-12.36-4.12-14.13-10.5-.26-.95-.88-1.92-.06-2.79.95-1.02,2.17-.67,3.24-.21,5.95,2.59,10.05,6.67,10.95,13.5Z"/><path class="cls-4" d="m207,33.97c-5.03-.2-11.8-6.98-12.43-12.22-.2-1.63.31-2.12,1.78-2.14,4.2-.06,12.35,7.95,12.55,12.36.08,1.73-.24,2.07-1.9,2Z"/><path class="cls-4" d="m63.61,15.97c-2.86.21-2.61-1.25-2.38-2.58.73-4.24,7.22-10.79,11.53-11.6,1.24-.23,2.73-.73,2.75,1.56.04,4.85-7.58,12.57-11.9,12.62Z"/><path class="cls-4" d="m208.91,180.78c.13,4.43-8,12.35-12.72,12.49-1.72.05-1.8-.66-1.57-2.12.78-5.12,6.59-11.21,11.74-12.26,1.74-.35,2.51.18,2.55,1.9Z"/><path class="cls-4" d="m144.96,200.99c4.59-.17,12.28,7.51,12.54,12.52.09,1.8-.81,1.92-2.09,1.85-4.23-.22-11.79-7.68-12.24-12.08-.12-1.2-.2-2.44,1.8-2.3Z"/><path class="cls-4" d="m23.97,168.6c0,1.79-.34,2.65-2.33,2.3-3.73-.66-10.48-6.48-11.39-10.23-.31-1.27-.67-2.74.58-3.66,1.08-.8,2.19.11,3.24.52,5.24,2.07,8.96,5.47,9.9,11.07Z"/><path class="cls-4" d="m63.92,149.01c-3.25.03-2.91-1.45-2.67-2.72.79-4.23,7.2-10.66,11.46-11.51,1.54-.31,3.12-.5,3.01,1.88-.2,4.47-8.54,12.43-11.8,12.36Z"/><path class="cls-4" d="m257.52,57.27c.04,3.6-1.47,3.23-2.74,2.98-4.32-.83-10.82-7.36-11.53-11.61-.22-1.28-.6-2.7,1.69-2.63,5,.15,12.65,7.78,12.59,11.26Z"/><path class="cls-4" d="m208.91,47.93c-.03,4.26-8.11,12.38-12.43,12.49-1.86.05-2.14-.72-1.8-2.49,1.07-5.52,6.13-10.6,11.69-11.73,1.72-.35,2.59-.18,2.53,1.73Z"/><path class="cls-4" d="m190.9,147.29c-.03,1.54-.73,1.82-2.24,1.6-4.6-.67-11.46-7.23-12.3-11.85-.33-1.81.37-2.45,2.04-2.45,4.49,0,12.78,8.41,12.51,12.7Z"/><path class="cls-4" d="m57.43,58.19c.35,2.45-1.06,2.33-2.45,2.11-4.38-.68-11.31-7.7-11.8-11.94-.17-1.49-.12-2.56,2.04-2.3,5.2.62,12,7.37,12.22,12.13Z"/><path class="cls-4" d="m23.91,213.13c0,1.72-.74,2.29-2.52,2.03-4.39-.65-10.52-6.5-11.27-10.97-.44-2.64.2-3.75,3.19-2.79,4.55,1.47,10.62,7.97,10.59,11.73Z"/><path class="cls-4" d="m163.57,263.6c4.55.22,12.03,8.06,12.19,12.67.06,1.76-.68,1.8-2.14,1.57-4.86-.77-11.7-7.37-12.31-11.96-.25-1.89.66-2.37,2.27-2.28Z"/><path class="cls-4" d="m12.18,321.9c-2.22.45-2.17-1.02-2.13-2.39.14-4.48,7.09-11.43,11.61-11.76,1.88-.14,2.33.77,2.22,2.38-.29,4.3-7.5,11.53-11.7,11.77Z"/><path class="cls-4" d="m175.52,98.76c-.01,2.15-1.53,1.73-2.79,1.49-4.31-.85-10.8-7.4-11.5-11.61-.22-1.3-.56-2.69,1.72-2.6,4.72.19,12.71,8.17,12.57,12.73Z"/><path class="cls-4" d="m123.91,21.7c.26,4.31-8.28,12.81-12.36,12.36-1.79-.2-1.53-1.47-1.49-2.57.17-4.5,7.18-11.46,11.65-11.73,1.51-.09,2.18.48,2.2,1.94Z"/><path class="cls-4" d="m41.97,319.85c.01,1.64-.46,2.35-2.4,2-4.36-.78-10.98-7.3-11.42-11.57-.16-1.53.09-2.61,2.03-2.56,4.52.12,11.96,7.71,11.79,12.13Z"/><path class="cls-4" d="m241.96,203.42c-.13,4.47-7,11.4-11.58,11.79-2.34.2-2.45-1.14-2.18-2.81.7-4.3,6.85-10.24,11.17-11.22,2.27-.52,2.67.4,2.58,2.24Z"/><path class="cls-4" d="m108.74,143.35c-.08,1.46-1.75,1.21-3.2,1.04-3.96-.46-10.58-7.77-11-11.77-.23-2.16,1.02-2.09,2.38-2.06,4.33.09,11.92,7.79,11.82,12.79Z"/><path class="cls-4" d="m145.84,144.47c-1.7,0-3.14-.37-2.43-2.53,1.72-5.29,5-9.22,10.35-11.15,1.08-.39,2.35-.62,3.31.18,1.18.99.15,2.17-.14,3.18-1.35,4.59-7.53,10.27-11.08,10.32Z"/><path class="cls-4" d="m257.45,155.14c-.06,3.99-8.14,11.96-12.66,11.88-2.28-.04-1.76-1.54-1.52-2.77.84-4.32,7.38-10.79,11.61-11.51,1.33-.23,2.79-.47,2.57,2.41Z"/><path class="cls-4" d="m242.46,187.32c.22,2.14-.84,2.01-2.16,1.81-4.73-.73-11.38-7.02-12.1-11.56-.26-1.67-.16-3.06,2.2-2.75,4.63.6,12.03,8.41,12.06,12.51Z"/><path class="cls-4" d="m8.91,165.25c-.01,1.53-.67,1.87-2.22,1.65-4.77-.67-11.34-7.21-12.08-12.04-.23-1.5,0-2.18,1.58-2.28,4.26-.25,12.92,8.35,12.71,12.66Z"/><path class="cls-4" d="m55.63,152.6c1.44-.02,2,.44,1.81,2.1-.56,4.82-7.83,12.01-12.45,12.3-1.79.11-1.94-.77-1.88-2.06.21-4.39,8.3-12.37,12.52-12.34Z"/><path class="cls-4" d="m90.78,258.03c.04,1.62-1.55,1.73-3.04,1.17-5.19-1.97-9.17-5.21-10.93-10.77-.75-2.37.06-3.04,2.29-2.89,4.52.31,11.39,7.23,11.68,12.5Z"/><path class="cls-4" d="m157.45,80.42c.35,1.85-.73,2.04-2.03,1.97-4.41-.23-12.37-8.32-12.33-12.52.01-1.45.47-1.99,2.12-1.8,4.83.58,12.11,7.85,12.24,12.35Z"/><path class="cls-4" d="m196.41,152.6c4.25.02,12.31,8.02,12.48,12.37.07,1.81-.6,2.21-2.42,1.87-4.85-.92-10.76-6.78-11.77-11.71-.35-1.69-.22-2.6,1.71-2.53Z"/><path class="cls-4" d="m120.41,104.32c-3.16-.17-9.74-6.66-10.25-10.97-.28-2.34.85-3,2.95-2.65,4.26.72,10.25,6.85,10.74,10.95.23,1.9-.46,2.87-3.44,2.66Z"/><path class="cls-4" d="m230.39,259.39c-1.72.05-2.36-.82-2.27-2.48.23-4.27,7.4-11.35,11.5-11.33,1.72,0,2.36.83,2.27,2.49-.22,4.26-7.4,11.36-11.5,11.32Z"/><path class="cls-4" d="m223.9,257.12c.04,1.72-.84,2.35-2.5,2.25-4.28-.24-11.35-7.43-11.32-11.51.01-1.72.85-2.35,2.51-2.25,4.28.24,11.36,7.42,11.31,11.51Z"/><path class="cls-4" d="m130.61,285.62c4.14.23,10.72,6.72,11.23,11.02.22,1.9-.43,2.85-2.46,2.72-4.13-.25-10.72-6.72-11.23-11.03-.22-1.9.44-2.89,2.45-2.72Z"/><path class="cls-4" d="m30.33,259.4c-1.74.02-2.32-.9-2.21-2.54.28-4.15,6.76-10.73,11.05-11.21,1.9-.21,2.84.47,2.7,2.48-.28,4.31-7.49,11.37-11.55,11.27Z"/><path class="cls-4" d="m23.87,256.88c.17,2.01-.83,2.67-2.72,2.45-4.1-.49-10.23-6.48-10.95-10.74-.35-2.1.32-3.22,2.65-2.95,4.31.51,10.8,7.1,11.02,11.24Z"/><path class="cls-4" d="m138.26,255.29c-3.02-.17-9.6-6.66-10.1-10.96-.22-1.9.44-2.84,2.46-2.72,4.14.26,10.72,6.72,11.23,11.04.22,1.9-.47,2.86-3.59,2.64Z"/><path class="cls-4" d="m41.87,8.91c.17,2.01-.82,2.67-2.72,2.45-4.31-.5-10.77-7.09-11.03-11.22-.13-2.03.83-2.68,2.72-2.46,4.32.52,10.8,7.09,11.03,11.23Z"/><path class="cls-4" d="m223.9-.1c.05,4.1-7.03,11.27-11.31,11.5-1.66.09-2.49-.54-2.5-2.26-.02-4.09,7.05-11.27,11.32-11.5,1.66-.09,2.54.54,2.49,2.26Z"/><path class="cls-4" d="m241.9,9.17c.04,1.73-.86,2.34-2.51,2.24-4.13-.25-10.72-6.71-11.23-11.02-.22-1.89.42-2.86,2.45-2.73,4.29.26,11.37,7.45,11.3,11.52Z"/><path class="cls-4" d="m121.39,108.63c2.01-.17,2.67.83,2.44,2.72-.5,4.11-6.47,10.22-10.74,10.94-2.11.36-3.22-.31-2.94-2.65.52-4.32,7.11-10.81,11.24-11.02Z"/><path class="cls-4" d="m139.4,122.38c-4.15-.23-10.72-6.7-11.24-11.02-.28-2.35.85-3,2.95-2.65,4.26.72,10.24,6.85,10.74,10.95.23,1.9-.44,2.89-2.45,2.72Z"/><path class="cls-4" d="m23.87,123.92c.17,2.03-.84,2.66-2.73,2.43-4.11-.5-10.23-6.49-10.94-10.75-.35-2.11.33-3.22,2.66-2.93,4.32.52,10.8,7.11,11.01,11.25Z"/><path class="cls-4" d="m41.88,115.11c-.22,4.13-6.7,10.72-11.02,11.24-2.33.28-3.01-.82-2.65-2.94.72-4.27,6.83-10.24,10.94-10.74,1.89-.23,2.9.42,2.73,2.44Z"/><path class="cls-4" d="m223.9,124.15c.04,1.73-.86,2.34-2.51,2.24-4.13-.25-10.72-6.71-11.23-11.03-.23-1.89.42-2.85,2.45-2.73,4.3.26,11.37,7.44,11.3,11.52Z"/><path class="cls-4" d="m230.63,126.38c-1.99.18-2.69-.78-2.47-2.7.5-4.3,7.07-10.77,11.21-11.04,2.02-.13,2.69.8,2.48,2.71-.49,4.29-7.07,10.8-11.22,11.04Z"/><path class="cls-4" d="m141.91,92.86c.06,4.09-7.01,11.26-11.3,11.52-2.04.12-2.67-.85-2.44-2.74.51-4.32,7.11-10.78,11.24-11.03,1.66-.1,2.55.51,2.51,2.24Z"/><path class="cls-4" d="m130.6,281.37c-2.02.16-2.66-.85-2.43-2.73.51-4.12,6.47-10.21,10.75-10.93,2.12-.36,3.21.34,2.93,2.66-.52,4.32-7.12,10.8-11.25,11.01Z"/><path class="cls-4" d="m230.63,263.62c4.16.24,10.73,6.75,11.22,11.04.21,1.9-.46,2.84-2.48,2.71-4.14-.27-10.72-6.75-11.21-11.05-.22-1.91.48-2.87,2.47-2.7Z"/><path class="cls-4" d="m223.87,266.08c-.2,4.13-6.68,10.72-11.01,11.25-2.32.28-3.02-.81-2.67-2.93.7-4.25,6.83-10.25,10.94-10.75,1.88-.23,2.9.41,2.74,2.43Z"/><path class="cls-4" d="m21.39,130.64c2.02-.17,2.67.83,2.45,2.72-.49,4.1-6.48,10.23-10.74,10.95-2.1.35-3.23-.3-2.95-2.64.52-4.32,7.09-10.8,11.24-11.02Z"/><path class="cls-4" d="m39.4,144.38c-4.13-.21-10.73-6.7-11.24-11.02-.28-2.33.82-3.01,2.94-2.65,4.28.73,10.25,6.83,10.75,10.94.23,1.89-.42,2.9-2.44,2.73Z"/><path class="cls-4" d="m30.6,263.62c4.14.21,10.72,6.69,11.25,11.02.28,2.33-.83,3.01-2.94,2.66-4.26-.71-10.25-6.84-10.75-10.95-.23-1.89.42-2.9,2.44-2.73Z"/><path class="cls-4" d="m21.65,263.59c1.73-.03,2.34.87,2.23,2.52-.26,4.13-6.73,10.72-11.04,11.23-1.89.22-2.85-.43-2.73-2.46.27-4.3,7.45-11.37,11.53-11.3Z"/><path class="cls-4" d="m223.91,132.87c.05,4.1-7.02,11.27-11.31,11.51-2.04.12-2.67-.86-2.44-2.74.51-4.31,7.11-10.79,11.25-11.01,1.81-.1,2.48.5,2.5,2.23Z"/><path class="cls-4" d="m241.9,142.13c.05,1.72-.84,2.35-2.5,2.26-4.28-.23-11.34-7.41-11.32-11.51,0-1.72.84-2.35,2.5-2.26,4.28.24,11.37,7.42,11.31,11.51Z"/><path class="cls-4" d="m96.45,82.42c-1.86.07-2.12-.74-1.77-2.49.94-4.59,7.29-10.91,11.82-11.77,1.84-.35,2.48.1,2.4,1.89-.19,4.34-8.2,12.3-12.45,12.36Z"/><path class="cls-4" d="m130.6,237.36c-2.01.17-2.67-.83-2.44-2.72.51-4.31,7.08-10.76,11.21-11.03,2.01-.13,2.69.8,2.47,2.7-.45,3.9-7.47,10.82-11.24,11.04Z"/><path class="cls-4" d="m20.24,99.77c1.37,2.16,4.16,4.62,3.88,6.67-.29,2.16-1.69,6.14-4.44,6.27-1.77.08-6.47-1.6-5.78-3.66.82-2.42-1.35-4.65.19-6.16,1.44-1.41,3.74-1.96,6.15-3.12Z"/><path class="cls-4" d="m139.41,258.74c-3.83,2.04-.03,4.7-1.38,6.23-1.32,1.49-3.78,3.04-5.53,2.83-2.78-.33-3.91-3.57-4.23-5.9-.37-2.75,1.47-6.04,3.92-6.61,1.86-.43,4.38,1.99,7.22,3.46Z"/><path class="cls-4" d="m124.09-3.9c-1.65,1.97-1.8,5.66-4.65,5.73-1.96.05-5.37-.85-5.72-3.68-.49-3.96,3.72-9.91,6.03-9.03,2.79,1.07,3,4.4,4.34,6.98Z"/><path class="cls-4" d="m119.95,254.86c1.78,1.84,4.03,3.99,3.79,6.74-.22,2.52-1.79,5.88-4.43,6-1.57.07-6.08-1.64-5.49-3.45.79-2.4-1.04-4.69.2-6.16,1.26-1.5,3.68-2.02,5.92-3.13Z"/><path class="cls-4" d="m124.07,128.82c-1.36,2.23-1.9,5.93-4.45,5.89-1.74-.02-5.64-.87-5.93-3.94-.38-4.15,1.1-8.37,5.8-8.48,2.42-.06,3.19,4.02,4.58,6.52Z"/><path class="cls-4" d="m138.96,126.13c-3.57,1.76.68,4.46-1.06,6.02-1.53,1.37-3.96,2.96-5.66,2.65-2.4-.44-3.71-3.52-3.9-5.75-.24-2.76,1.73-5.89,4-6.72,1.32-.48,4.69,1.39,6.62,3.79Z"/><path class="cls-4" d="m104.66,282.12c-.32,4.01-3.61,8.73-5.77,7.86-2.73-1.1-4.4-4.37-4.18-6.63.21-2.07,1.74-5.88,4.78-5.76,1.96.08,5.44.86,5.17,4.53Z"/><path class="cls-4" d="m219.96,246.82c-1.97-2.64-6.11-2.2-6.02-5.25.11-3.4-.47-8.39,5.14-8.39,3.32,0,4.52,3.64,4.51,5.92-.02,2.43-2.17,4.84-3.62,7.72Z"/><path class="cls-4" d="m224.08,106.21c-1.42,2.47-2,6.07-4.65,6.42-1.27.17-5.52-.66-5.74-3.99-.29-4.26,1.38-8.18,5.95-8.42,2.49-.13,3.09,3.74,4.44,5.99Z"/><path class="cls-4" d="m232.15,99.45c1.88,2.3,6.59,2.34,5.94,4.49-.72,2.39,1.31,4.62-.2,6.2-1.29,1.36-3.61,2.87-5.18,2.59-2.98-.52-3.96-3.86-4.33-6.34-.38-2.56,1.95-4.61,3.77-6.95Z"/><path class="cls-4" d="m98.51,245.63c-1.23-2.04-4.43-4.01-3.82-6.47.54-2.18,1.34-6.34,4.76-5.93,1.67.2,5.27.94,5.39,3.75.2,4.92-2.75,8.8-6.33,8.65Z"/><path class="cls-4" d="m4.24-4.57C7.02.83,1.52,1.57-1.21,1.75c-2.37.15-4.29-4.09-4.09-6.48.16-1.96,1.95-5.77,4.45-5.54,1.87.17,6.78.28,5.1,5.7Z"/><path class="cls-4" d="m147.86,239.43c-2.91-5.33,2.78-5.95,5.13-6.18,2.71-.27,4.29,4.02,4.3,6.28,0,2.06-1.79,5.93-4.68,5.67-1.95-.18-6.8-.48-4.75-5.78Z"/><path class="cls-4" d="m39,109.02c-2.1,2.15-5.39,4.21-6.72,3.64-2.17-.93-4.28-3.99-3.92-6.79.28-2.2,1.51-5.42,3.96-5.66,1.92-.19,4.61,1.45,5.93,3.1.98,1.22-2.3,3.81.75,5.71Z"/><path class="cls-4" d="m228.15,283.49c1.23-2.04,1.33-5.94,4.19-6.21,1.66-.16,6.31,1.5,5.54,4.03-.7,2.29,1.39,4.44-.3,5.97-1.41,1.28-3.38,2.01-5.21,2.72-.88.34-4.2-4.65-4.22-6.52Z"/><path class="cls-4" d="m147.5,281.36c.19-3.17,3.83-3.85,5.55-3.71,2.26.18,3.43,3.52,4.48,5.79.62,1.36-3.83,6.99-4.92,6.57-3.78-1.44-6.44-3.74-5.1-8.66Z"/><path class="cls-4" d="m204.15-4.44c2.67,5.45-2.73,5.86-5.28,5.98-2.73.13-4.31-3.95-4.18-6.24.12-1.99,2.05-5.79,4.36-5.57,2,.19,7.21.31,5.09,5.83Z"/><path class="cls-4" d="m252.78,179.53c-1.49-2.32-5.3-1.26-5.82-4.07-.79-4.23,2.12-8.54,5.44-8.47,3.27.07,4.53,3.34,4.68,5.5.17,2.5-1.64,5.13-4.3,7.04Z"/><path class="cls-4" d="m132.05-11.7c1.98,2.48,6.53,2.44,5.85,5.01-.6,2.25,1.25,4.46-.27,5.98-1.33,1.32-3.5,2.74-5.15,2.58-2.67-.26-3.65-3.39-4.08-5.47-.62-3,2.35-5.01,3.65-8.1Z"/><path class="cls-4" d="m98.86,334.14c-2.45-.86-3.82-3.93-3.86-5.92-.05-2.26,1.16-6.08,4.39-6.14,1.92-.04,5.34.82,5.58,3.68.37,4.5-2.55,8.36-6.11,8.39Z"/><path class="cls-4" d="m5.46,125.43c.23,4.31-2.81,9.17-5.82,9.09-3.3-.09-4.57-3.72-4.94-5.74-.41-2.27,1.93-5.72,4.35-6.22,1.93-.4,4.42,1.9,6.4,2.88Z"/><path class="cls-4" d="m58.22,128.43c-2.49,1.91-2.61,6.03-5.51,6.12-5.19.17-5.48-4.88-5.84-8.25-.31-2.91,3.97-3.51,5.76-3.67,3-.26,2.92,4.1,5.59,5.8Z"/><path class="cls-4" d="m232.13,245.99c-1.84-1.64-3.54-4.02-3.77-6.58-.23-2.54,1.55-5.81,3.81-6.11,1.8-.24,5.6,1.05,6.03,3.65.65,3.95-2.87,8.76-6.07,9.04Z"/><path class="cls-4" d="m205.46,125.5c-.27,4.84-4.18,10.22-6.44,9.11-2.37-1.17-4.71-4.03-4.32-6.45.33-2,1.87-5.55,4.54-5.64,2.12-.07,4.32,2,6.21,2.98Z"/><path class="cls-4" d="m152.61,201.47c-1.86-1.81-5.39-1.25-5.54-4.34-.2-3.98.56-8.26,5.68-8.09,3.01.1,4.39,3.94,4.25,6.3-.13,2.05-1.56,4.97-4.39,6.12Z"/><path class="cls-4" d="m105.12,191.92c.19,5.09-2.42,9.32-5.59,9.1-3.48-.25-4.49-3.97-4.54-6.12-.05-1.91,1.18-5.72,4.25-5.85,2.16-.09,4.5,1.42,5.88,2.88Z"/><path class="cls-4" d="m105.4,59.92c-3.45,1.57,1.39,4.35-1.2,5.93-1.54.94-3.4,2.35-4.92,2.14-2.91-.41-4.64-3.56-4.39-5.77.26-2.28,1.2-6.25,4.55-6.01,1.7.12,4.78.85,5.96,3.71Z"/><path class="cls-4" d="m57.38,173.07c-1.56,1.68-1.4,5.75-4.6,5.76-1.75,0-5.38-.66-5.81-3.45-.66-4.29,2.31-8.32,5.5-8.49,1.22-.06,4.76,4.07,4.9,6.18Z"/><path class="cls-4" d="m4.63,347.95c1.44,5.26-1.31,7.93-5.47,7.92-2.71,0-4.8-3.62-4.18-6.22.48-2.02,1.2-6.06,4.51-5.44,1.71.32,5.27.57,5.14,3.74Z"/><path class="cls-4" d="m53.58,344.03c1.89,1.24,3.6,3.93,3.5,6.4-.08,2.19-1.5,5.7-4.61,5.43-1.91-.17-5.18-.69-5.41-3.79-.3-4.13.71-7.66,6.51-8.04Z"/><path class="cls-4" d="m199.32,343.47c1.39,2.4,5.3,1.18,5.72,4.13.61,4.3-2.34,8.62-5.51,8.41-3.16-.21-4.55-3.4-4.61-5.61-.07-2.46,1.6-5.17,4.41-6.94Z"/><path class="cls-4" d="m257.74,350.24c-1.87,2.12-2.07,5.85-5.18,5.65-1.96-.12-5.26-.78-5.5-3.75-.33-4.04.9-8.03,5.68-8.09,3.26-.04,3.03,4.17,5.01,6.19Z"/><path class="cls-4" d="m204.57,170.91c1.87,5.91-1.93,7.96-5.89,7.87-2.14-.05-4.35-3.96-3.67-6.66.52-2.04,1.42-5.83,4.95-4.9,1.81.48,5.03.65,4.6,3.69Z"/><path class="cls-4" d="m147.42,64.11c-1.86-5.91,1.93-7.97,5.88-7.88,2.14.05,4.36,3.96,3.68,6.66-.52,2.04-1.41,5.84-4.95,4.91-1.81-.48-5.02-.66-4.61-3.68Z"/><path class="cls-4" d="m257.78,39.93c-2.08,1.94-1.9,5.78-4.85,6.01-2.12.16-5.36-.86-5.96-3.41-.95-4.05,2.69-9.1,5.81-8.6,3.14.51,2.78,4.19,4.99,5.99Z"/><path class="cls-4" d="m205.11,36.84c-.02,5.41-2.67,9.62-5.68,9.22-3.31-.44-4.48-4.03-4.42-6.25.06-1.93,1.17-5.76,4.34-5.76,2.15,0,4.45,1.49,5.76,2.79Z"/><path class="cls-4" d="m24,284.27c-1.64,1.76-1.7,5.62-4.57,5.41-1.76-.13-6.14-2.72-5.49-3.36,2.4-2.37-1.87-4.94.76-6.6,1.64-1.04,4.34-3.01,5.02-2.5,2.1,1.57,3.55,4.08,4.28,7.06Z"/><path class="cls-4" d="m53.59,34.01c1.91,1.05,3.63,3.97,3.46,5.95-.19,2.16-1.13,6.19-4.62,5.93-1.86-.14-5.19-.66-5.35-3.81-.2-4.06.39-7.9,6.51-8.07Z"/><path class="cls-4" d="m-.79,46.35c-2.77-1.18-4.28-4.18-4.23-6.17.05-2.23,1.15-6.12,4.48-6.06,1.9.03,6.18,1.39,5.23,3.57-1.03,2.38,1.89,4.54-.47,6.14-1.49,1.01-3.23,1.65-5.01,2.53Z"/><path class="cls-4" d="m24.02,238.87c-.94,2.83-2.08,6.02-4.38,6.79-1.27.43-6.16-1.46-5.55-3.93.56-2.24-1.18-4.47.25-5.98,1.28-1.35,3.52-2.79,5.13-2.58,2.86.37,3.02,3.78,4.54,5.7Z"/><path class="cls-4" d="m31.77,245.75c-1.23-1.72-3.47-3.85-3.43-6.53.03-2.44,1.56-5.84,3.99-5.93,1.66-.07,5.71.88,5.74,3.83.04,3.79-.03,8.34-6.29,8.64Z"/><path class="cls-4" d="m204.66,215.04c.95,5.18-1.29,8.14-5.83,7.84-2.11-.14-4.69-3.4-4.15-5.82.52-2.3,1.93-5.9,4.94-5.75,1.51.07,4.79,1.06,5.04,3.73Z"/><path class="cls-4" d="m197.98,89.74c-1.21-.53-2.39-2.92-3.51-5.15-.62-1.23,4.23-7.13,4.98-6.51,1.75,1.46,5.44,1.21,5.36,3.85-.11,3.42.69,8.31-6.82,7.8Z"/><path class="cls-4" d="m258,305.59c-2.02,2.2-2.5,5.99-5.34,6.12-1.42.07-5.27-.56-5.46-3.91-.23-4.07.55-8.01,5.65-7.79,2.73.12,3.35,3.57,5.15,5.58Z"/><path class="cls-4" d="m152.76,157.51c-1.67-2.17-5.27-1.69-5.72-4.23-.79-4.45,1.83-8.33,5.27-8.24,3.21.08,4.98,3.28,5.04,5.57.06,2.45-2.35,4.76-4.59,6.9Z"/><path class="cls-4" d="m5.06,214.1c.28,5.02-2.09,9-5.39,8.86-3.18-.13-5.04-3.33-5-5.59.05-2.35,1.89-5.78,4.65-6.18,1.83-.26,4.02,1.96,5.73,2.9Z"/><path class="cls-4" d="m104.21,17.47c2.96,5.09-2.5,4.84-4.93,6.52-.79.55-5.53-5.77-4.81-6.72,1.48-1.95,2.08-5.67,5.1-5.11,1.87.35,6.42.18,4.64,5.3Z"/><path class="cls-4" d="m247.85,84.47c-2.65-5.33,2.77-6.01,5.13-6.12,2.2-.1,4.48,3.8,4.35,6.26-.1,2.04-1.92,5.61-4.73,5.28-2.03-.24-6.76-.25-4.75-5.42Z"/><path class="cls-4" d="m247.6,217.75c-2.3-4.6,2.1-5.31,5.15-6.73.95-.44,5.5,5.87,4.76,6.78-1.55,1.89-2.04,5.65-5.14,5.05-1.81-.35-5.86-.2-4.78-5.09Z"/><path class="cls-4" d="m4.85,170.32c1.1,5.34-1.69,8.25-5.7,8.53-2.83.19-4.26-3.88-4.22-6.3.03-2.17,1.46-5.61,4.58-5.49,2.08.08,4.44,1.42,5.34,3.26Z"/><path class="cls-4" d="m47.34,84.8c-1.98-4.25,2-6.24,5.48-6.51,2.39-.19,4.53,3.8,4.51,6.17-.02,2.21-1.85,5.7-5.04,5.38-1.76-.18-5.23-.37-4.95-5.04Z"/><path class="cls-4" d="m5.06,81.11c.33,5.14-1.92,8.96-5.37,8.87-3.21-.08-5.04-3.32-5.02-5.56.03-2.35,1.88-5.78,4.62-6.19,1.83-.28,4.03,1.95,5.76,2.88Z"/><path class="cls-4" d="m47.86,217.38c-2.91-5.26,2.73-5.87,5.04-6.05,2.28-.17,4.46,3.74,4.43,6.18-.02,2.08-1.92,5.59-4.64,5.34-2.01-.18-6.73-.15-4.83-5.48Z"/><path class="cls-4" d="m152.39,24.4c-1.3-2.28-5.1-1.57-5.24-4.34-.24-4.68,3.14-9.07,5.88-8.07,2.44.89,4.69,3.52,4.33,5.86-.37,2.37-2.2,4.95-4.97,6.55Z"/><path class="cls-4" d="m4.23,305.75c2.85,5.11-2.82,5.72-5.12,5.9-2.28.18-4.46-3.74-4.44-6.18.02-2.08,1.91-5.57,4.64-5.36,2.07.16,6.51.36,4.92,5.64Z"/><path class="cls-4" d="m47.98,305.83c-2.61-5.18,2.37-5.57,4.57-5.69,2.76-.16,5.05,3.27,4.78,5.66-.26,2.28-2.01,6.08-4.79,5.85-1.51-.12-7.63-.39-4.56-5.81Z"/><path class="cls-4" d="m104.31,150.45c2.52,4.99-2.45,6.07-5.33,6.22-2.14.11-4.49-3.83-4.31-6.3.15-2.02,1.79-5.09,4.8-5.43,2.4-.27,5.02,2.66,4.83,5.51Z"/><path class="cls-4" d="m152.52,334.39c-1.22-2.4-5.25-1.03-5.55-4.1-.43-4.44,2.47-8.68,5.57-8.34,3.36.37,4.44,3.98,4.47,6.21.03,1.98-1.43,5.01-4.49,6.23Z"/><path class="cls-4" d="m204.18,305.63c2.69,5.23-2.79,5.89-5.13,6.01-2.23.12-4.48-3.78-4.37-6.24.09-2.05,1.91-5.6,4.71-5.29,2.05.22,6.65.32,4.8,5.52Z"/><path class="cls-4" d="m81.42,195.74c-2.86-4.64,1.14-6.48,4.72-6.53,2.24-.03,4.9,3.53,4.39,6.2-.43,2.27-1.96,5.76-5.28,5.41-1.69-.18-5.31-.62-3.83-5.07Z"/><path class="cls-4" d="m164.49,67.87c-1.39-.63-2.94-3.37-3.09-5.81-.15-2.37,1.96-5.38,4.48-5.63,1.88-.19,5.76.9,5.37,3.66-.44,3.09,1.07,8.45-6.75,7.78Z"/><path class="cls-4" d="m32.05,290.13c-1.89-1.58-3.77-3.89-3.69-6.27.09-2.56,1.41-5.92,4.67-5.94,1.8-.01,5.82,1.13,4.88,3.38-.99,2.36,1.37,4.47-.32,5.99-1.41,1.27-3.46,1.82-5.54,2.85Z"/><path class="cls-4" d="m219.61,277.7c2.32,1.11,4.17,3.59,4.03,6.24-.12,2.28-1.45,5.81-4.14,5.77-1.75-.03-5.31-1.16-5.74-3.6-.76-4.36,2.21-8.4,5.84-8.41Z"/><path class="cls-4" d="m181.23,217.56c-2.42-4.32,1.45-6.16,5.05-6.14,2.43.01,4.63,3.77,4.08,6.33-.42,1.96-1.2,5.88-4.61,5.29-1.81-.31-5.54-.58-4.52-5.48Z"/><path class="cls-4" d="m85.77,157.06c-1.6-1.82-5.23-1.06-5.1-4.49.14-3.74.48-8.06,5.54-7.68,2.81.21,4.45,3.62,4.15,6.26-.27,2.28-1.74,4.83-4.59,5.9Z"/><path class="cls-4" d="m65.1,45.56c-1.13-1.2-3.99-2.99-3.7-5.77.24-2.34,2.04-5.41,4.7-5.62,1.52-.12,5.07.53,5.02,3.42-.06,3.55,1.44,8.55-6.01,7.97Z"/><path class="cls-4" d="m170.75,150.44c2.4,4.31-1.43,6.17-5.04,6.13-2.42-.03-4.64-3.77-4.07-6.34.43-1.95,1.2-5.88,4.63-5.27,1.82.32,5.55.58,4.48,5.48Z"/><path class="cls-4" d="m190.98,84.54c-1.93,1.76-1.77,5.59-4.85,5.54-1.88-.03-4.92-.48-5.29-3.81-.46-4.11.4-7.74,5.04-7.9,3.16-.11,3.51,3.7,5.1,6.16Z"/><path class="cls-4" d="m65.96,77.83c1.86,1.78,5.5,1.27,5.36,4.45-.16,3.51-.32,7.91-5.38,7.88-3.1-.01-4.11-3.59-4.34-5.73-.27-2.57,1.97-4.85,4.36-6.61Z"/><path class="cls-4" d="m70.77,305.42c2.42,4.32-1.44,6.16-5.05,6.14-2.43-.01-4.64-3.76-4.08-6.33.42-1.96,1.21-5.88,4.61-5.29,1.81.31,5.54.58,4.52,5.48Z"/><path class="cls-4" d="m171.25,14.69c.1,5.43-2.35,9.58-5.27,9.05-2.85-.52-4.34-3.57-4.37-5.8-.04-2.41,1.23-5.84,4.44-6.01,1.93-.1,4.3,1.12,5.2,2.77Z"/><path class="cls-4" d="m190.65,306.13c-1.58,1.75-1.51,5.73-5.01,5.39-1.78-.18-5.02-.67-5.05-3.65-.04-4.66,2.94-8.55,5.79-8.21,1.13.13,4.35,4.78,4.26,6.47Z"/><path class="cls-4" d="m86.71,11.74c2.1,1.18,3.8,3.76,3.69,5.98-.12,2.38-1.39,5.93-4.65,5.86-1.78-.04-5-.75-5.21-3.54-.34-4.44,2.73-8.52,6.16-8.3Z"/><path class="cls-4" d="m71.52,214.18c-.13,5.41-3.01,9.73-5.81,9.04-2.83-.7-4.22-3.82-4.1-5.99.13-2.32,1.35-5.87,4.69-5.82,1.95.03,4.19,1.37,5.22,2.77Z"/><path class="cls-4" d="m81.35,62.6c-2.73-4.76,1.57-6.12,5.14-6.15,1.79-.01,4.7,3.33,4.07,5.89-.55,2.23-1.37,6.15-4.86,5.57-1.39-.23-5.77-.36-4.34-5.31Z"/><path class="cls-4" d="m4.32,258.66c.27,4.45.03,8.81-5.07,8.82-2.6,0-4.62-3.87-4.54-6.05.08-2.13,1.77-5.65,4.68-5.95,1.83-.19,4.14,1.36,4.93,3.17Z"/><path class="cls-4" d="m204.18,258.85c.51,4.47.22,8.81-5.03,8.64-2.45-.08-4.67-3.93-4.43-6.14.22-2.07,1.71-5.72,4.77-5.83,1.79-.06,4.36,1.08,4.7,3.33Z"/><path class="cls-4" d="m258.21,261.47c-2.52,1.84-2.56,5.78-5.52,6-1.66.12-5.43-.83-5-3.52.52-3.23-.93-8.72,4.99-8.53,2.97.1,2.97,4.25,5.53,6.05Z"/><path class="cls-4" d="m231.58,156.74c-1.47-1.1-3.17-3.44-3.24-5.86-.07-2.54,1.62-5.71,4.27-5.89,1.62-.11,5.6.54,5.43,3.57-.2,3.54-.2,8-6.46,8.19Z"/><path class="cls-4" d="m224.05,150.98c-1.46,2.07-1.79,5.69-4.51,5.75-1.52.03-6.05-1.65-5.2-3.49,1.17-2.52-2-4.59.16-6.28,1.38-1.08,3.42-2.39,4.86-2.1,2.82.57,3.55,3.55,4.69,6.11Z"/><path class="cls-4" d="m171.25,242.32c-.96,1.63-3.24,2.79-5.25,2.79-3.18,0-4.4-3.69-4.31-5.58.1-2.22,1.17-5.76,4.35-6.26,3.02-.47,5.37,3.61,5.21,9.04Z"/><path class="cls-4" d="m37.72,59.31c.98,4.93-.51,8.41-5.06,8.55-2.95.09-4.77-4.03-4.58-5.97.18-1.86,1.46-5.86,4.9-5.66,1.94.12,4.14,1.38,4.74,3.08Z"/><path class="cls-4" d="m137.72,170.29c.99,4.93-.52,8.4-5.06,8.54-2.95.09-4.78-4.03-4.59-5.95.18-1.87,1.46-5.87,4.9-5.67,1.95.11,4.15,1.37,4.75,3.08Z"/><path class="cls-4" d="m124.17,305.97c-1.69,2.09-1.87,5.72-4.71,5.84-1.81.07-5.33-.72-5.36-3.7-.04-3.62-.24-8.36,5.34-8.04,2.9.16,3.01,3.85,4.73,5.91Z"/><path class="cls-4" d="m53.15,255.26c1.89,1.43,4.16,3.91,4.16,6.14,0,2.26-1.87,5.63-4.59,6.06-1.59.26-4.97-.71-5.19-3.49-.37-4.81,2.09-8.57,5.61-8.72Z"/><path class="cls-4" d="m33.01,144.68c1.32,1.5,4.56,1,5.19,3.49.8,3.2-3.36,9.4-5.76,8.76-2.69-.72-3.57-3.65-4.2-6.13-.43-1.66,3.07-6.04,4.77-6.12Z"/><path class="cls-4" d="m132.27,311.84c-2.33-.8-3.69-3.5-3.86-5.69-.19-2.35,1.42-5.69,3.98-5.97,1.67-.18,5.98.38,5.58,3.21-.44,3.17,1.3,8.78-5.7,8.45Z"/><path class="cls-4" d="m14.35,153c-1.35-5.05.79-8.14,5.14-8.03,2.54.06,4.67,3.61,4.09,6.45-.42,2.04-1.44,5.56-4.1,5.31-1.66-.16-4.8-1.12-5.13-3.73Z"/><path class="cls-4" d="m19.89,55.95c2.02,1.39,4.25,4.05,4.07,6.22-.16,1.88-1.66,5.58-4.5,5.7-1.86.08-5-.84-5.51-3.34-.83-4.07,2.3-8.51,5.94-8.59Z"/><path class="cls-4" d="m91.15,283.74c-2.68,1.54-1.74,6.2-5.48,5.78-1.8-.2-5.24-.69-5.01-3.71.27-3.48.24-8.09,5.46-7.99,3.12.06,3.01,3.86,5.03,5.92Z"/><path class="cls-4" d="m71.33,347.66c0,4.35-.76,8.3-5.45,8.25-2.73-.03-4.51-3.55-4.46-5.85.05-2.41,1.82-5.62,4.93-5.65,1.94-.02,4.21,1.37,4.98,3.25Z"/><path class="cls-4" d="m125.58,350.01c-3.64,1.47-2.92,6.19-6.5,5.73-1.75-.23-5.93-1.12-4.78-3.46,1.17-2.39-2-4.58.54-6.14,1.54-.94,3.52-2.4,4.92-2.05,2.72.66,2.48,4.39,5.83,5.92Z"/><path class="cls-4" d="m138.1,346.61c.39,5.08-2.51,9.8-5.51,9.34-2.95-.45-4.41-3.96-4.53-5.77-.13-2.13,1.62-5.72,4.54-6.06,1.85-.22,3.96,1.73,5.49,2.49Z"/><path class="cls-4" d="m171.65,192.38c-1.3,3.33.07,8.39-5.15,8.51-3.03.07-4.86-3.33-5.05-5.68-.19-2.43,1.77-5.63,4.68-5.79,1.74-.1,4.63.52,5.52,2.96Z"/><path class="cls-4" d="m165.7,290.1c-2.26-1.85-4.24-4.46-4.02-6.82.18-1.91,1.15-5.76,4.5-5.37,1.82.21,5.97,1.39,4.72,3.46-1.55,2.57,2.43,4.45-.21,6.14-1.51.97-3.19,1.66-4.99,2.58Z"/><path class="cls-4" d="m81.2,239.48c-2.34-4.31,1.61-6.15,5.21-6.05,2.28.06,4.32,4,3.85,6.59-.33,1.85-1.29,5.55-4.41,5.03-1.88-.31-5.56-.57-4.66-5.58Z"/><path class="cls-4" d="m186.2,166.85c2.45.77,4.06,3.4,4.36,5.69.35,2.71-1.82,5.63-4.54,6.06-1.78.28-4.92-.84-5.49-3.37-.75-3.33,2.57-8.16,5.67-8.38Z"/><path class="cls-4" d="m231.56,23.76c-1.45-1.04-3.27-3.49-3.16-5.79.11-2.22,1.36-5.78,4.19-5.74,1.64.02,5.76.09,5.4,3.44-.36,3.41.55,8.43-6.44,8.09Z"/><path class="cls-4" d="m219.85,12.2c2.18.8,3.62,3.45,3.74,5.67.13,2.33-1.41,5.66-4.03,5.98-1.82.22-5.75-.96-5.43-3.56.38-3.12-1.75-8.89,5.71-8.09Z"/><path class="cls-4" d="m120.36,211.18c1.48,1.2,3.42,3.57,3.23,5.91-.18,2.19-1.33,5.8-4.23,5.67-1.62-.07-5.66,0-5.36-3.48.3-3.55-.27-8.27,6.37-8.1Z"/><path class="cls-4" d="m137.36,82.47c2.7,5.85-1.47,7.53-4.94,7.51-2.42-.01-4.67-3.63-3.98-6.46.48-1.98,1.44-5.61,4.14-5.18,1.55.25,5.49.78,4.78,4.13Z"/><path class="cls-4" d="m124.04,84.27c-1.32,2.4-1.95,5.83-4.84,5.74-1.6-.05-5.23-.33-5.28-3.76-.06-4.1,1.36-7.96,5.83-8.03,2.35-.04,3.11,3.74,4.29,6.05Z"/><path class="cls-4" d="m37.92,15.17c.5,4.59-.21,8.73-5.3,8.68-2.9-.02-4.49-3.79-4.14-6.21.29-1.97,1.09-5.78,4.43-5.41,1.82.21,4.57.6,5.01,2.93Z"/><path class="cls-4" d="m225.1,61.79c-2.83,1.82-2.54,6.02-5.77,6.04-1.82.01-5.45-.88-5.25-3.4.26-3.2-.59-8.11,4.96-8.31,3.68-.13,2.89,4.4,6.06,5.67Z"/><path class="cls-4" d="m24.16,18.3c-1.96,1.76-1.78,5.67-4.87,5.49-1.76-.1-5.05-.53-5.2-3.83-.19-4.07.27-8.24,5.55-7.84,2.6.19,3.09,3.8,4.53,6.18Z"/><path class="cls-4" d="m191.14-4.2c-2.7,1.5-1.72,6.21-5.49,5.74-1.8-.22-5.21-.67-4.99-3.73.25-3.52.32-8.07,5.48-7.96,3.09.06,3.03,3.85,5,5.94Z"/><path class="cls-4" d="m70.94-6.93c.74,4.42.25,8.31-4.68,8.57-3.44.18-4.3-3.88-4.57-6.05-.23-1.89,1.11-5.62,4.28-5.68,2.01-.04,4.36,1.13,4.97,3.17Z"/><path class="cls-4" d="m119.36,179.39c-1.63-1.89-5.06-1.08-5.3-4.42-.29-4.1.57-7.91,5.43-7.88,2.77.02,4.35,3.89,4.47,5.77.14,2.15-2.02,4.87-4.6,6.53Z"/><path class="cls-4" d="m65.52,178.84c-1.87-1.18-4.06-3.33-4.1-5.67-.05-2.62,1.69-5.85,4.73-6.03,1.48-.09,4.93.48,5,3.49.12,4.73-2.12,8.07-5.63,8.21Z"/><path class="cls-4" d="m232.01,55.54c2.34,1.43,5.34,1.5,6.08,3.78,1.17,3.64-2.09,8.8-5.26,8.58-3.27-.23-4.53-3.85-4.83-5.96-.27-1.89,2.53-4.21,4.02-6.41Z"/><path class="cls-4" d="m138.12,213.86c.41,5.14-1.8,8.98-5.18,9.03-3.42.05-4.17-3.55-4.46-5.52-.36-2.42,1.18-5.83,4.16-6.2,1.85-.23,4.19,1.35,5.47,2.69Z"/><path class="cls-4" d="m46.64-.97c.77-1.87,3.23-3.29,1.02-5.73-.92-1.01.46-1.75,1.44-1.91,1.75-.28,3.84-3.05,4.61-1.61,1.23,2.28,5.36,3.67,3.13,7.47-1.85,3.15-3.59,6.23-7.81,2.83-.61-.49-1.48-.67-2.38-1.06Z"/><path class="cls-4" d="m186.23,343.89c2.1,1.6,4.48,3.66,4.37,6.04-.11,2.54-1.7,5.91-4.87,5.9-1.38,0-5.93-1.01-4.56-3.41,1.42-2.51-2.73-4.49.34-6.15,1.46-.79,2.96-1.49,4.72-2.38Z"/><path class="cls-4" d="m186.49,135.84c-1.78-3-5.83-2.12-5.77-5.05.07-3.51-.22-8.38,5.47-7.96,2.96.22,4.21,3.7,4.18,5.9-.03,2.19-2.26,4.35-3.88,7.11Z"/><path class="cls-4" d="m191.03,261.2c-1.69,2.28-2.11,5.85-4.51,6.3-1.72.32-5.25-1.01-5.93-3.36-1.11-3.84,1.91-8.28,5.16-8.36,3.57-.08,2.99,3.86,5.29,5.42Z"/><path class="cls-4" d="m65.3,267.78c-2.02-1.32-3.55-4.05-3.63-6.17-.07-2.07,1.17-5.67,4.23-5.71,1.86-.02,5.06.47,5.5,3.1.62,3.76-2.92,8.73-6.1,8.77Z"/><path class="cls-4" d="m246.62-1c.86-1.86,3.19-3.3,1.03-5.73-.92-1.04.52-1.74,1.47-1.89,1.74-.27,3.67-3.08,4.62-1.57,1.32,2.1,5.13,3.78,3.22,6.98-1.63,2.74-3.26,7.18-7.97,3.28-.6-.5-1.47-.68-2.38-1.08Z"/><path class="cls-4" d="m237.44,193.35c2.04,5.65-1.58,7.52-5.31,7.42-2.1-.05-4.27-3.78-3.66-6.18.51-2.01,1.1-5.94,4.54-5.31,1.74.32,5.43.64,4.43,4.07Z"/><path class="cls-4" d="m224.16,195.35c-2.06,1.66-1.72,5.73-4.96,5.4-1.7-.18-4.78-.41-5.15-3.92-.48-4.57,1.13-7.76,5.59-7.7,2.5.03,3.12,3.77,4.51,6.22Z"/><path class="cls-4" d="m32.65,188.64c1.63,1.83,5.06,1.06,5.28,4.37.27,4.05-.53,7.95-5.4,7.88-2.77-.04-4.14-3.68-4.13-5.94,0-2.24,1.59-4.85,4.25-6.3Z"/><path class="cls-4" d="m23.83,195.51c-1.54,1.55-1.43,5.34-4.52,5.31-1.83-.02-5.02-.75-5.36-3.44-.54-4.24,2.62-8.59,5.56-8.47,1.1.05,4.38,4.74,4.31,6.6Z"/><path class="cls-4" d="m14.41,330.03c-1.46-5.27,1.05-8.06,5.44-7.84,2.18.11,4.27,3.79,3.69,6.19-.49,2.01-1.09,5.9-4.53,5.34-1.76-.29-5.02-.62-4.6-3.69Z"/><path class="cls-4" d="m32.27,321.62c2.1,1.36,5.15,1.36,5.81,3.72,1.05,3.76-2.19,8.79-5.31,8.55-3.16-.25-4.1-3.61-4.34-5.77-.27-2.36,1.75-4.72,3.85-6.5Z"/><path class="cls-4" d="m81.64,327.31c-2.48-5,3.02-5.19,4.04-5.11,2.9.21,4.82,3.33,4.91,5.84.08,2.29-2.04,5.74-4.54,5.51-2.8-.26-7.63-1.18-4.41-6.23Z"/><path class="cls-4" d="m170.8,327.63c2.57,4.52-1.7,5.89-5.31,5.9-1.77,0-4.65-3.29-4.07-5.94.5-2.26,2.03-5.52,4.84-5.44,1.45.04,5.44.52,4.54,5.48Z"/><path class="cls-4" d="m220.26,322.09c1.63,1.21,3.52,3.65,3.33,5.98-.17,2.18-1.28,5.77-4.27,5.69-1.73-.04-5.09-.49-5.22-3.83-.15-3.96.22-7.65,6.16-7.84Z"/><path class="cls-4" d="m238.12,324.83c.29,4.94-2.64,9.69-5.55,9.11-2.86-.57-4.21-3.77-4.15-6,.06-2.18,1.25-5.64,4.23-5.81,1.95-.11,4.23,1.35,5.47,2.7Z"/><path class="cls-4" d="m124.18,40.15c-1.85,1.93-1.8,5.69-4.85,5.68-1.83,0-5.02-.75-5.37-3.43-.56-4.24,2.68-8.99,5.53-8.36,2.87.63,3.08,3.9,4.7,6.11Z"/><path class="cls-4" d="m138.11,36.86c.37,4.86-2.51,9.53-5.51,9.12-2.84-.39-3.89-3.53-4.13-5.51-.31-2.55,1.19-5.87,4.15-6.3,1.85-.27,4.22,1.33,5.49,2.69Z"/><path class="cls-4" d="m91.27,106.34c-2.27,2.17-2.32,6.07-4.92,6.15-1.57.05-5.13-.69-5.52-4.24-.5-4.52,1.5-7.69,5.66-7.83,2.4-.08,2.37,4.26,4.78,5.91Z"/><path class="cls-4" d="m165.17,112.81c-1.69-1.68-3.73-4.18-3.51-6.41.21-2.12,1.36-5.89,4.15-5.85,1.6.02,5.34.74,5.52,3.69.25,3.96-3.4,8.83-6.16,8.58Z"/><path class="cls-4" d="m65.29,134.8c-2.01-1.32-3.54-4.05-3.62-6.16-.08-2.08,1.18-5.66,4.23-5.72,1.86-.04,5.05.48,5.5,3.1.65,3.74-2.91,8.73-6.11,8.78Z"/><path class="cls-4" d="m191.16,39.74c-1.42,2.46-2.44,5.5-4.98,5.89-1.83.29-5.58-.99-5.32-3.25.35-3.06-.88-8.25,4.68-8.32,3.29-.04,3.49,3.87,5.62,5.68Z"/><path class="cls-4" d="m253.08,135.38c-2.01-2.06-5.86-1.66-5.38-4.41.56-3.21-.07-8.36,5-8.46,2.69-.05,4.56,3.82,4.6,6,.03,2.2-2.61,4.43-4.22,6.87Z"/><path class="cls-4" d="m158.2,106.28c-2.27,2.1-2.6,5.77-5.37,6.22-1.73.28-4.33-1.31-4.64-4.16-.4-3.7-.67-7.7,4.35-7.86,3.18-.11,2.88,4.29,5.66,5.8Z"/><path class="cls-4" d="m98.39,112.38c-1.45-1.07-3.69-3.56-3.71-5.78-.02-2.27,1.88-5.61,4.57-6.08,1.6-.28,5.64,1.06,5.02,3.39-.81,3.07.84,8.24-5.89,8.46Z"/><path class="cls-4" d="m151.37,172.78c-3.35,3.23-6.61,4.4-10.19,1.11-1.08-.99-.25-1.8.5-2.46,3.57-3.13,6.61-1.74,9.69,1.35Z"/><path class="cls-4" d="m192.68,319.93c-2.69-3.29-4.71-6.29-1.22-9.75,1.06-1.05,2.18-.49,2.97.5,2.85,3.57,1.01,6.34-1.75,9.24Z"/><path class="cls-4" d="m59.32,319.92c-2.56-2.72-4.65-5.36-1.89-9.05.9-1.2,2.06-1.82,3.29-.52,3.43,3.63,1,6.49-1.41,9.56Z"/><path class="cls-4" d="m192.68,203.05c2.77,2.92,4.59,5.7,1.73,9.26-.8.99-1.92,1.53-2.97.48-3.47-3.47-1.46-6.46,1.24-9.73Z"/><path class="cls-4" d="m111.43,217.12c-1.27,2.07-3.1,3.39-5.33,3.07-1.81-.26-4.6-.83-4.47-3.04.11-1.8,2.64-3.22,4.52-3.15,1.97.07,4.12.99,5.28,3.11Z"/><path class="cls-4" d="m150.68,217.29c-1.12,1.94-3.04,2.81-4.92,2.92-2.19.13-4.97-.98-4.88-3.18.08-2.11,3.09-3.03,5.1-3.01,1.83.02,3.57,1.43,4.7,3.28Z"/><path class="cls-4" d="m51.61,62.1c-1.92,1.17-3.38,2.34-5.03,2.99-2.15.85-3.81-.6-5.31-1.92-.68-.6-.96-1.6,0-2.08,1.82-.94,3.42-2.96,5.84-1.8,1.33.64,2.53,1.56,4.51,2.82Z"/><path class="cls-4" d="m206.11,154.23c-1.77-.84-4.35-1.54-4.44-3.39-.09-1.94,2.24-3.21,4.28-3.18,2.14.03,4.76.69,4.71,3.3-.04,2.26-2.76,2.4-4.55,3.27Z"/><path class="cls-4" d="m159.27,48.15c3.24,2.94,4.56,5.99,1.41,9.56-.79.9-1.77.76-2.54-.18-2.89-3.54-2.07-6.56,1.13-9.37Z"/><path class="cls-4" d="m145.78,87.5c-1.92-.61-4.41-.89-4.46-3.26-.06-2.43,2.62-3.11,4.33-3.19,2.03-.09,4.68,1.2,4.64,3.4-.03,1.83-2.47,2.77-4.51,3.05Z"/><path class="cls-4" d="m6.53,14.58c2.02.7,4.73,1.28,4.6,3.33-.15,2.25-3.07,3.04-5.03,3.08-1.83.04-4.49-1.37-4.42-3.18.09-2.31,2.98-2.53,4.85-3.23Z"/><path class="cls-4" d="m67.41,195c2.72-2.76,5.33-4.67,8.91-1.62,1.31,1.11,1.32,2.1.01,3.23-3.57,3.06-6.2,1.17-8.92-1.61Z"/><path class="cls-4" d="m211.39,17.8c-.83,2.19-2.95,2.75-4.7,3.13-2.28.5-4.71-1.2-4.98-3.03-.32-2.16,2.55-2.78,4.33-3.08,2.24-.37,4.04.99,5.35,2.97Z"/><path class="cls-4" d="m59.45,70.79c1.45,1.61,3.46,3.06,2.98,5.34-.36,1.69-.8,4.45-3.43,4.02-2.19-.36-2.87-2.67-2.85-4.68.02-2.06,1.29-3.6,3.3-4.68Z"/><path class="cls-4" d="m105.57,302.41c2.42.6,5.11.87,5.11,3.49,0,2.27-2.67,3.01-4.47,3.08-1.91.07-4.35-1.31-4.55-3.1-.25-2.22,2.53-2.49,3.91-3.46Z"/><path class="cls-4" d="m150.69,305.97c-1.6,1.4-3.03,3.44-5.31,2.95-1.68-.36-4.52-.82-4-3.43.47-2.35,2.93-3.08,5.15-2.8,1.77.22,3.3,1.31,4.16,3.29Z"/><path class="cls-4" d="m162.76,159.37c-.88,1.79-1.6,4.5-3.42,4.46-2.32-.05-3.05-2.88-3.07-4.93-.01-1.94,1.05-4.57,3.07-4.51,2.37.08,2.36,3.13,3.41,4.98Z"/><path class="cls-4" d="m110.87,84.17c-.71,2.3-2.61,3.01-4.58,3.19-2.13.2-4.49-1.1-4.57-2.88-.1-2.25,2.57-3.47,4.59-3.44,1.75.02,3.88.86,4.56,3.13Z"/><path class="cls-4" d="m192.48,80.37c-2.06-.89-3.08-2.91-2.94-4.7.14-1.92,1.16-4.72,3.58-4.43,1.7.21,3.06,2.54,2.74,4.7-.29,1.93-.92,3.9-3.37,4.42Z"/><path class="cls-4" d="m200.37,62.08c2.15-1.32,3.47-2.49,5-2.99,2.12-.69,3.71,1.02,5.39,1.98.94.54.67,1.5-.02,2.09-1.51,1.32-3.16,2.76-5.32,1.91-1.65-.65-3.1-1.82-5.05-3Z"/><path class="cls-4" d="m162.89,230.2c-1.03,2.26-1.21,5.23-3.43,5.44-2.03.19-3.1-2.48-3.17-4.42-.08-2.1.74-4.85,2.95-5.06,2.05-.19,2.19,2.89,3.65,4.04Z"/><path class="cls-4" d="m50.69,17.42c-.95,2.21-2.83,3.42-4.58,3.57-2.03.18-4.85-.83-5.21-2.88-.37-2.16,2.34-3.04,4.22-3.3,2.2-.29,3.98,1.06,5.57,2.61Z"/><path class="cls-4" d="m93.26,297.26c-2.37-1-3.6-2.91-3.72-4.63-.14-1.95.63-4.74,3.19-4.79,2.31-.05,2.88,2.45,3.14,4.41.3,2.25-1.61,3.37-2.61,5.01Z"/><path class="cls-4" d="m179.62,191.55c1.62,1.04,4.54,1.42,4.4,3.67-.1,1.6-2.66,3.07-4.59,3-2.02-.07-4.74-.91-4.58-3.44.13-2.05,2.67-2.59,4.77-3.23Z"/><path class="cls-4" d="m62.9,137.02c-1,2-1.54,4.66-3.54,4.63-2.06-.03-3.06-2.57-3.11-4.55-.05-2,.97-4.57,2.96-4.67,2.62-.13,2.16,3.23,3.69,4.6Z"/><path class="cls-4" d="m192.32,131.98c2.3,1.1,3.41,2.92,3.42,4.89.01,2.13-.91,4.76-3.35,4.75-1.58,0-2.88-2.45-2.89-4.17-.01-2.1,1.29-3.97,2.83-5.47Z"/><path class="cls-4" d="m162.79,292.2c-.87,1.83-1.45,4.57-3.63,4.59-2.01.02-2.7-2.73-2.87-4.57-.17-1.96.67-4.3,2.97-4.41,2.47-.12,2.4,2.68,3.54,4.39Z"/><path class="cls-4" d="m25.78,147.15c-2.05-1.23-3.01-3.15-2.56-5.36.36-1.8,1-4.82,2.91-4.41,2.08.44,2.99,3.34,2.69,5.72-.22,1.71-.79,3.56-3.04,4.05Z"/><path class="cls-4" d="m229.02,142.3c-.5,1.99-.66,4.58-2.98,4.62-2.33.03-2.89-2.52-2.88-4.45,0-2.12.89-5.09,2.81-5.12,2.05-.04,2.4,3.03,3.06,4.96Z"/><path class="cls-4" d="m6.57,147.56c1.85.8,4.48,1.03,4.07,3.58-.34,2.12-2.82,2.98-4.65,2.84-1.81-.13-4.46-1.39-4.34-3.24.15-2.25,3-2.5,4.92-3.18Z"/><path class="cls-4" d="m50.65,150.51c-.88,2.09-2.78,3.3-4.49,3.45-1.96.17-4.62-.63-4.85-3.13-.19-2.12,2.11-2.9,3.85-3.05,2.17-.18,4.01.98,5.48,2.72Z"/><path class="cls-4" d="m250.71,150.8c-1.44,1.67-3.02,3.47-5.19,3.16-1.69-.25-4.42-.78-4.17-3.31.22-2.24,2.52-3.09,4.51-2.86,1.85.21,3.79.95,4.85,3.01Z"/><path class="cls-4" d="m95.91,159.34c-.86,1.64-1,4.51-3.06,4.47-2.13-.04-3.47-2.66-3.32-4.7.12-1.7.77-4.37,3.2-4.28,2.34.09,2.69,2.47,3.18,4.51Z"/><path class="cls-4" d="m125.79,169.17c-2.06-1.23-3.02-3.16-2.58-5.36.36-1.79.99-4.83,2.9-4.43,2.09.44,2.99,3.34,2.69,5.72-.21,1.71-.78,3.57-3.02,4.07Z"/><path class="cls-4" d="m100.58,172.99c1.79-1.13,3.22-2.32,4.86-3.02,2.17-.92,3.78.58,5.29,1.87.68.59.97,1.59.02,2.08-1.82.94-3.43,2.97-5.83,1.81-1.45-.7-2.75-1.72-4.34-2.75Z"/><path class="cls-4" d="m126.06,302.15c-2.22-.81-2.92-2.7-2.91-4.65,0-2.13.88-5.07,2.79-5.12,2.05-.06,2.8,2.9,2.91,4.98.11,1.98-.67,3.83-2.79,4.79Z"/><path class="cls-4" d="m59.39,186.89c-3.28-2.86-4.12-5.77-1.41-9.19.9-1.14,1.81-1.38,2.85-.23,3.17,3.5,1.02,6.31-1.44,9.42Z"/><path class="cls-4" d="m117.56,195.22c-1.74,1.32-3.14,3.24-5.41,3-1.91-.2-4.45-1.14-4.35-3.23.12-2.48,3.01-2.95,4.99-3,1.87-.05,3.49,1.38,4.76,3.24Z"/><path class="cls-4" d="m144.36,195.26c-1.24,1.91-3.05,3.32-5.22,2.9-1.74-.33-4.49-1.43-4.19-3.27.28-1.72,2.6-3.36,4.97-2.84,1.8.4,3.97.68,4.44,3.21Z"/><path class="cls-4" d="m29.03,203.54c-.57,1.99-.99,5.01-2.96,5.06-2.04.05-2.82-2.92-2.91-4.99-.08-1.94.53-4.47,2.78-4.55,2.38-.08,2.5,2.56,3.09,4.48Z"/><path class="cls-4" d="m226.14,209.41c-1.86-1.83-2.98-3.66-3-5.8-.02-1.95.53-4.49,2.82-4.53,2.33-.04,2.83,2.51,2.9,4.45.08,2.19-1.3,3.89-2.72,5.87Z"/><path class="cls-4" d="m59.28,202.83c1.18,1.81,2.39,3.18,3.05,4.79.88,2.15-.7,3.76-1.93,5.26-.62.76-1.69.51-2.13-.25-1.05-1.8-2.86-3.51-1.72-5.87.63-1.29,1.64-2.4,2.73-3.93Z"/><path class="cls-4" d="m129.07,225.04c-.5,2.46-1.01,5.45-2.91,5.58-2.15.14-2.82-2.86-2.99-4.89-.17-1.96.5-4.44,2.68-4.65,2.56-.24,2.28,2.67,3.23,3.96Z"/><path class="cls-4" d="m92.78,235.35c-2.41-.53-3.12-2.72-3.26-4.43-.16-2.07,1.22-4.67,3.3-4.73,2.01-.06,2.69,2.7,2.89,4.54.21,1.99-.78,3.79-2.93,4.62Z"/><path class="cls-4" d="m126.09,247.81c1.34,1.5,2.81,2.71,2.89,4.93.08,2.22-1.01,4.61-2.65,4.88-2.03.33-2.98-2.13-3.26-4.13-.33-2.38,1.05-4,3.02-5.67Z"/><path class="cls-4" d="m84.78,261.28c-1.74,2.05-3.63,3.08-5.77,3.06-1.93-.02-4.48-.56-4.43-2.89.05-2.27,2.56-2.8,4.52-2.82,2.17-.02,3.86,1.31,5.67,2.65Z"/><path class="cls-4" d="m239.89,353.47c-2.14-.61-4.74-1.53-4.97-3.4-.22-1.76,2.46-3.09,4.27-3.09,1.97,0,4.85.49,5,2.98.13,2.19-2.61,2.52-4.31,3.51Z"/><path class="cls-4" d="m129.01,270.41c-.35,1.8-1.12,4.31-3.08,4.23-1.82-.07-2.86-2.48-2.89-4.61-.03-2.15,1.12-4.68,2.79-4.68,2.15,0,3.07,2.54,3.18,5.06Z"/><path class="cls-4" d="m62.79,4.25c-.89,1.81-1.45,4.57-3.65,4.57-2,0-2.71-2.74-2.86-4.58-.16-1.95.68-4.3,2.98-4.4,2.46-.11,2.4,2.69,3.52,4.41Z"/><path class="cls-4" d="m195.95,4.15c-.87,1.76-.93,4.74-3.35,4.68-1.71-.04-3.13-2.59-3.08-4.49.05-1.81.78-4.35,3.02-4.51,2.43-.17,2.74,2.35,3.42,4.31Z"/><path class="cls-4" d="m29.1,9.45c-.75,1.99-.84,4.68-3.27,4.48-2.17-.18-2.84-2.68-2.68-4.64.17-2.03.84-5.03,3-4.89,1.99.13,2.22,3.21,2.95,5.05Z"/><path class="cls-4" d="m229.01,9.18c-.41,2.07-.65,4.61-2.88,4.75-2.38.15-2.92-2.45-2.97-4.35-.06-2.14.84-5.12,2.71-5.22,2.15-.12,2.37,3,3.14,4.82Z"/><path class="cls-4" d="m245.64,14.61c1.78.72,4.57.97,4.66,2.94.1,2.25-2.59,3.45-4.57,3.43-1.73-.01-4.36-.76-4.41-3.08-.05-2.37,2.4-2.73,4.32-3.29Z"/><path class="cls-4" d="m126.24,25.9c1.54,1.85,2.91,3.74,2.59,6.14-.23,1.7-.77,4.2-2.9,3.91-2.41-.33-3.04-2.88-2.73-5.06.26-1.85.97-3.76,3.04-4.99Z"/><path class="cls-4" d="m17.72,39.53c-1.33,2.16-3.04,3.47-4.84,3.49-1.98.02-4.84-.46-5.05-2.92-.19-2.17,2.37-2.99,4.25-3.31,2.37-.41,3.5,1.95,5.65,2.74Z"/><path class="cls-4" d="m44.38,40.12c-1.04,2.34-3.31,2.99-5.28,2.89-1.73-.09-4.48-1.29-4.14-3.16.32-1.75,2.75-3.32,4.99-3.04,1.88.24,3.76,1.12,4.43,3.31Z"/><path class="cls-4" d="m84.38,39.79c-2.69,2.94-5.19,4.96-8.67,1.87-1.29-1.14-1.36-2.1-.04-3.26,3.36-2.97,5.98-1.31,8.71,1.39Z"/><path class="cls-4" d="m167.64,39.8c2.75-2.84,5.43-4.28,8.74-1.35,1.36,1.2,1.12,2.17-.14,3.26-3.52,3.05-6,1-8.61-1.9Z"/><path class="cls-4" d="m212.41,36.48c1.87,1,4.67,1.53,4.65,3.67-.02,1.55-2.56,3.14-4.5,2.89-1.89-.25-4.87-.48-4.71-3.23.12-2.11,2.74-2.45,4.56-3.33Z"/><path class="cls-4" d="m239.24,43.25c-1.75-.68-4.44-1.5-4.33-3.19.12-1.93,2.67-3.3,4.8-3.26,1.91.04,4.42,1.04,4.45,3.11.04,2.65-2.97,2.46-4.92,3.34Z"/><path class="cls-4" d="m.84,62.01c3.06-2.74,6.1-4.13,9.67-1.19,1.02.84,1.05,1.68.12,2.45-3.48,2.87-6.64,2.08-9.79-1.26Z"/><path class="cls-4" d="m251.52,61.99c-1.49,1.03-2.62,2.01-3.92,2.65-2.43,1.22-4.46-.04-6.32-1.47-.7-.54-.99-1.59-.05-2.07,2.06-1.02,3.87-3.49,6.64-1.34,1.02.79,2.22,1.36,3.64,2.22Z"/><path class="cls-4" d="m29,70.37c-.43,2.13-.94,5.12-2.84,5.25-2.16.15-2.83-2.85-3.01-4.88-.17-1.96.51-4.46,2.67-4.65,2.45-.22,2.52,2.49,3.17,4.28Z"/><path class="cls-4" d="m29,319.69c-.67,1.77-.74,4.49-3.22,4.21-2.13-.24-2.84-2.73-2.62-4.7.23-2.01.85-5.04,3.05-4.84,1.82.17,2.42,3.15,2.78,5.33Z"/><path class="cls-4" d="m229.02,319.25c-.48,2.01-.66,4.58-2.94,4.66-2.34.08-2.89-2.48-2.92-4.39-.04-2.13.87-5.07,2.77-5.13,2.11-.07,2.39,3,3.1,4.87Z"/><path class="cls-4" d="m226.3,76.29c-2-1.39-2.8-3.22-3.09-5.07-.34-2.19.29-4.72,2.64-5.13,2.17-.38,2.66,2.13,2.97,3.82.46,2.46-1.2,4.22-2.53,6.38Z"/><path class="cls-4" d="m126.22,87.87c2.06,1.23,3.01,3.15,2.57,5.35-.36,1.8-1,4.82-2.91,4.41-2.09-.44-2.99-3.34-2.69-5.72.22-1.71.79-3.56,3.03-4.05Z"/><path class="cls-4" d="m92.36,93.06c2.22.87,3.25,2.71,3.36,4.66.12,2.21-.95,4.89-3.22,4.92-1.99.03-2.71-2.87-3-4.69-.32-2.02,1.45-3.49,2.86-4.89Z"/><path class="cls-4" d="m159.38,93.02c1.8,1.09,3.21,2.85,3.1,4.66-.12,1.93-.77,4.81-3.2,4.95-1.85.11-2.76-2.36-3-4.13-.31-2.31,1.03-4.06,3.09-5.48Z"/><path class="cls-4" d="m129.09,120.01c-.58,2.26-.72,4.86-3.05,4.89-2.35.03-2.88-2.52-2.88-4.45,0-2.12.87-5.08,2.81-5.13,2.23-.05,2.12,3.19,3.13,4.68Z"/><path class="cls-4" d="m11.83,131.48c-1.57-.55-4.38-.6-4.1-3.03.21-1.8,2.56-3.12,4.71-2.79,1.89.29,4.79.91,4.69,2.83-.1,2.07-2.68,3.05-5.3,2.99Z"/><path class="cls-4" d="m40.02,131.48c-2.52.04-5.16-1.02-5.15-2.94.01-2.02,2.91-2.77,5-2.89,2.07-.12,4.36,1.12,4.42,2.99.07,2.28-2.63,2.37-4.27,2.85Z"/><path class="cls-4" d="m211.77,131.46c-1.58-.46-4.23-.74-4.06-2.69.19-2.15,2.57-3.48,4.89-3.08,1.84.32,4.77.9,4.54,2.94-.23,1.98-2.82,3-5.37,2.83Z"/><path class="cls-4" d="m122.99,137c.14-2.11,1.17-4.68,2.87-4.63,2.22.07,2.86,2.91,2.99,5,.14,2.07-1.16,4.48-3.01,4.34-1.7-.13-2.74-2.57-2.85-4.71Z"/><path class="cls-4" d="m195.95,269.95c-.82,1.8-1.39,4.48-3.57,4.63-1.52.1-2.91-2.45-2.87-4.11.05-2.03.86-4.91,3.04-5.13,2.05-.2,2.65,2.54,3.4,4.6Z"/><path class="cls-4" d="m39.35,353.4c-1.73-.84-4.4-1.54-4.45-3.34-.05-1.82,2.56-3.27,4.39-3.06,1.87.21,4.89.75,4.79,3.27-.08,2-2.68,2.6-4.73,3.12Z"/><path class="cls-4" d="m184.52,62.05c-3.12,3.45-6.05,4.13-9.36,1.43-1.34-1.1-.58-1.98.27-2.83,3.58-3.6,6.06-.33,9.09,1.4Z"/><path class="cls-4" d="m229.01,98.01c-.13,2.11-1.16,4.67-2.85,4.63-2.23-.05-2.84-2.89-3.01-4.95-.17-2.07,1.11-4.45,3-4.32,1.76.12,2.76,2.52,2.87,4.65Z"/><path class="cls-4" d="m159.25,32.49c-1.1-1.99-1.86-3.22-2.49-4.52-1.16-2.39.45-4.1,1.72-5.74.74-.96,1.88-.57,2.43.43.97,1.78,2.77,3.47.82,5.76-.83.98-1.37,2.21-2.48,4.07Z"/><path class="cls-4" d="m159.17,4.25c3.44,2.36,4.48,5.14,1.84,8.65-.84,1.11-1.8,1.33-2.88.19-3.22-3.38-1.74-6.15,1.04-8.84Z"/><path class="cls-4" d="m29,97.51c-.48,2.02-.84,4.87-2.92,5.13-1.8.22-2.89-2.3-3.02-4.38-.15-2.35.95-4.67,3.06-4.91,1.52-.17,2.49,2.24,2.89,4.16Z"/><path class="cls-4" d="m59.62,258.01c-2.25-1.16-3.45-2.99-3.33-4.93.12-2.02,1.18-4.64,3.45-4.65,1.45,0,2.87,2.45,2.79,4.2-.09,2.05-1.25,3.97-2.9,5.38Z"/><path class="cls-4" d="m195.96,252.93c-.71,2.08-1.27,4.79-3.33,4.69-2.29-.12-2.97-3.03-3.13-5.02-.13-1.7,1.32-4.19,2.79-4.17,2.3.02,2.7,2.81,3.66,4.5Z"/><path class="cls-4" d="m92.71,32c-2.51-3.15-4.82-6.04-1.43-9.66.81-.87,1.75-.82,2.53.11,2.78,3.31,1.8,6.3-1.1,9.55Z"/><path class="cls-4" d="m240.12,131.67c-2.24-.86-5.36-1.11-5.23-3.3.11-1.9,3.09-2.76,5.27-2.73,1.87.03,4.07,1.16,4.16,2.86.13,2.57-2.77,2.17-4.19,3.16Z"/><path class="cls-4" d="m67.48,62.02c3.08-1.75,5.6-4.96,9.13-1.33.85.88,1.53,1.74.18,2.83-3.35,2.7-6.25,1.91-9.31-1.5Z"/><path class="cls-4" d="m159.33,75.89c-3.36-2.97-4-5.96-1.24-9.27,1.14-1.37,2.13-.47,2.85.45,2.64,3.36,1.27,6.12-1.61,8.82Z"/><path class="cls-4" d="m184.39,327.81c-2.68,2.5-5.18,4.92-8.83,1.67-1.06-.94-1.23-1.84-.11-2.89,3.4-3.21,6.15-1.67,8.95,1.22Z"/><path class="cls-4" d="m84.54,172.83c-3.11,2.05-5.72,5.21-9.36,1.29-.97-1.04-.97-1.85.26-2.81,3.52-2.73,6.23-1.27,9.1,1.52Z"/><path class="cls-4" d="m229.16,114.41c-.87,2.23-1.1,5.36-3.31,5.21-1.89-.12-2.77-3.1-2.7-5.3.06-1.85,1.16-4.09,2.87-4.16,2.54-.1,2.18,2.79,3.14,4.24Z"/><path class="cls-4" d="m25.95,109.84c1.52,1.28,3.08,2.62,2.91,4.78-.16,2.1-.81,4.97-2.98,5.02-1.8.05-2.54-2.83-2.73-4.75-.21-2.01.58-3.87,2.8-5.05Z"/><path class="cls-4" d="m144.59,106.45c-1.21,1.68-2.69,3.13-4.82,2.9-2.06-.22-5.09-.86-4.91-3.05.15-1.81,3.14-2.75,5.35-2.65,1.78.08,3.57.7,4.38,2.8Z"/><path class="cls-4" d="m117.82,106.48c-1.76,1.74-3.59,2.89-5.77,2.89-2.08,0-4.36-1.16-4.36-3.18,0-1.9,2.46-2.53,4.3-2.55,2.21-.02,4.01,1.15,5.84,2.84Z"/><path class="cls-4" d="m166.82,261.29c2.03-1.07,3.26-1.87,4.61-2.4,2.27-.89,4.17.09,5.78,1.62.65.62.57,1.56-.17,2.16-1.72,1.38-3.58,2.42-5.83,1.27-1.27-.65-2.44-1.47-4.39-2.66Z"/><path class="cls-4" d="m59.17,292.22c3.44,2.35,4.49,5.14,1.84,8.65-.84,1.11-1.8,1.33-2.88.19-3.21-3.38-1.74-6.15,1.04-8.84Z"/><path class="cls-4" d="m192.8,292.15c2.84,2.82,4.27,5.61,1.03,8.96-1.11,1.15-2.06.8-2.88-.28-2.67-3.55-1.39-6.26,1.84-8.68Z"/><path class="cls-4" d="m139.31,331.3c-1.82-.89-4.51-1.49-4.4-3.42.1-1.74,2.63-3.03,4.56-3.13,1.97-.1,4.56.97,4.63,2.96.08,2.52-3.1,2.34-4.78,3.58Z"/><path class="cls-4" d="m117.48,328.14c-1.53,1.38-2.94,3.22-4.98,2.84-1.81-.33-4.7-.99-4.65-3.01.05-2.26,2.73-3.41,4.91-3.17,1.84.2,3.58,1.45,4.72,3.34Z"/><path class="cls-4" d="m67.57,327.91c2.77-2.96,5.49-4.57,8.93-1.37,1.08,1.01,1.08,1.9,0,2.89-3.64,3.35-6.15.78-8.93-1.52Z"/><path class="cls-4" d="m92.43,47.93c3.33,2.99,4.32,5.81,1.68,9.25-1,1.31-1.84.97-2.82.08-3.84-3.46-.57-6.04,1.14-9.33Z"/><path class="cls-4" d="m59.24,230.86c-2.8-2.82-4.28-5.51-1.29-8.76.94-1.02,1.89-1.38,2.88-.17,2.83,3.43,1.75,6.27-1.59,8.93Z"/><path class="cls-4" d="m192.78,230.87c-3.4-2.63-4.44-5.48-1.64-8.92.98-1.2,1.93-.9,2.88.13,3.03,3.24,1.52,5.93-1.25,8.8Z"/><path class="cls-4" d="m62.88,269.93c-.88,2.08-1.57,4.72-3.44,4.67-1.77-.05-3.02-2.61-3.16-4.53-.15-1.98.94-4.54,2.91-4.67,2.66-.18,2.14,3.22,3.69,4.52Z"/><path class="cls-4" d="m151.52,350.01c-2.03,1.22-3.47,2.56-5.12,2.96-1.99.48-3.67-1.07-5.27-2.17-.64-.43-.64-1.27.02-1.65,1.78-1.04,3.42-2.89,5.74-2.01,1.49.57,2.78,1.69,4.64,2.87Z"/><path class="cls-4" d="m234.64,305.6c2.91-2.66,5.62-4.17,8.81-1.11,1.01.97,1.27,1.78-.06,2.77-3.42,2.56-6.26,2.09-8.76-1.67Z"/><path class="cls-4" d="m.48,194.97c2.04-1.23,3.48-2.58,5.14-2.96,1.98-.46,3.68,1.07,5.27,2.19.63.44.61,1.28-.05,1.65-1.79,1.02-3.42,2.9-5.75,1.99-1.49-.58-2.77-1.69-4.62-2.87Z"/><path class="cls-4" d="m51.51,195.02c-1.96,1.19-3.39,2.5-5.05,2.95-2.02.56-3.65-1.07-5.29-2.1-.65-.41-.71-1.26-.08-1.65,1.75-1.11,3.42-2.9,5.72-2.08,1.5.53,2.78,1.68,4.69,2.88Z"/><path class="cls-4" d="m92.85,270.14c2.69,2.86,4.21,5.56,1.17,8.77-.94.99-1.77,1.37-2.78.02-2.55-3.4-2.17-6.27,1.61-8.78Z"/><path class="cls-4" d="m17.71,261.4c-1.72,1.93-3.59,3-5.75,2.95-2-.05-4.42-1.19-4.12-3.17.24-1.57,2.59-2.95,4.8-2.54,1.91.35,3.59,1.28,5.06,2.76Z"/><path class="cls-4" d="m39.72,264.52c-1.88-.76-4.96-.99-4.84-3.16.11-1.9,3.05-2.71,5.2-2.74,1.87-.02,4.13,1.16,4.1,2.76-.03,2.01-2.38,2.74-4.46,3.14Z"/><path class="cls-4" d="m211.95,258.34c2.2.85,5.27,1.11,5.17,3.25-.09,1.92-3.03,2.71-5.17,2.76-1.88.04-4.11-1.14-4.14-2.74-.04-2.16,2.55-2.47,4.13-3.28Z"/><path class="cls-4" d="m239.75,258.44c2.16.47,4.48,1.32,4.43,2.96-.07,1.94-2.35,3.14-4.42,2.94-2.05-.2-5.05-.89-4.93-3,.12-1.98,3.23-2.22,4.92-2.9Z"/><path class="cls-4" d="m229.05,247.22c-.5,2.3-.98,5.29-2.92,5.39-2.11.11-2.8-2.86-2.98-4.92-.18-2.07,1.02-4.33,2.96-4.38,1.64-.04,2.37,2.34,2.94,3.9Z"/><path class="cls-4" d="m117.31,17.59c-2.35,3.61-5.08,4.4-8.57,1.8-1.2-.9-1.43-1.67-.31-2.75,3.36-3.25,6.11-1.62,8.88.96Z"/><path class="cls-4" d="m112.6,65.51c-2.18-.79-4.87-1.35-4.74-3.4.14-2.26,3.04-2.98,4.99-3.1,1.89-.11,4.2,1.76,4.06,3.35-.15,1.69-2.8,2.33-4.31,3.15Z"/><path class="cls-4" d="m234.69,217.32c2.54-3.86,5.47-4.03,8.81-1.53,1.03.77,1.06,1.58.2,2.44-3.22,3.22-6.09,2.08-9.01-.91Z"/><path class="cls-4" d="m217.68,217.24c-2.18,1.38-3.52,3.47-5.9,2.94-1.71-.38-4.28-1.32-3.93-3.09.46-2.34,3.29-3.3,5.49-3.03,1.47.18,2.74,1.94,4.34,3.18Z"/><path class="cls-4" d="m134.76,150.64c2.82-2.96,5.68-4.13,8.92-.9.87.87.89,1.68-.16,2.44-3.29,2.38-6.29,2.64-8.76-1.53Z"/><path class="cls-4" d="m134.68,62.31c2.48-3.72,5.35-4.11,8.75-1.56,1.35,1.01.98,1.85-.02,2.78-3.2,3-5.91,1.61-8.73-1.22Z"/><path class="cls-4" d="m117.32,150.54c-2.38,3.68-5.13,4.41-8.61,1.8-1.23-.92-1.34-1.7-.25-2.76,3.4-3.3,6.11-1.47,8.86.95Z"/><path class="cls-4" d="m34.76,172.64c2.82-2.98,5.69-4.1,8.93-.9.87.86.88,1.68-.17,2.44-3.3,2.39-6.29,2.62-8.76-1.54Z"/><path class="cls-4" d="m192.87,187.01c-1.65-1.45-2.29-3.01-2.69-4.58-.51-2.02-.16-4.02,1.54-5.43.7-.58,1.67-.31,2.12.53.98,1.83,2.81,3.51,1.5,5.88-.63,1.14-1.48,2.17-2.48,3.61Z"/><path class="cls-4" d="m144.39,17.84c-.79,2.16-2.91,2.65-4.64,3.1-2.44.63-4.53-1.67-4.66-3.2-.12-1.43,2.53-2.96,4.49-2.98,1.96-.01,3.74,1.09,4.81,3.07Z"/><path class="cls-4" d="m217.27,172.76c-2.46,3.72-5.36,4-8.73,1.47-1.36-1.02-.92-1.89.08-2.77,3.47-3.08,6.16-1.48,8.65,1.3Z"/><path class="cls-4" d="m29.03,275.22c-.4,2.07-1.13,4.43-3.14,4.45-1.59.02-2.78-2.24-2.75-4.11.03-2.15.84-5.09,2.74-5.19,2.16-.12,2.4,2.97,3.16,4.85Z"/><path class="cls-4" d="m159.12,270.13c3.76,2.49,4.23,5.33,1.66,8.75-.99,1.32-1.81,1.06-2.78.05-3.06-3.19-1.55-5.9,1.12-8.8Z"/><path class="cls-4" d="m226.12,280.01c-1.74-.94-2.93-2.42-2.95-4.21-.03-2.26.58-5.22,2.98-5.44,1.69-.15,2.44,2.8,2.72,4.69.32,2.14-1.15,3.59-2.75,4.95Z"/><path class="cls-4" d="m159.05,137.19c3.67,2.38,4.41,5.13,1.8,8.61-.92,1.23-1.71,1.34-2.76.24-3.27-3.39-1.51-6.11.96-8.85Z"/><path class="cls-4" d="m92.81,137.21c2.8,2.74,4.29,5.51,1.06,8.86-1.08,1.12-1.84.88-2.76-.31-2.71-3.52-1.65-6.19,1.69-8.56Z"/><path class="cls-4" d="m39.07,213.7c1.94,1.02,4.94,1.08,5.08,3.39.12,2.03-2.49,3.01-4.43,3.14-2.03.14-4.44-1.37-4.62-2.88-.2-1.67,2.25-2.77,3.97-3.65Z"/><path class="cls-4" d="m17.27,217.35c-2.71,2.75-5.48,4.25-8.84,1.02-1.12-1.08-.89-1.86.31-2.75,3.49-2.6,6.22-1.8,8.52,1.73Z"/><path class="cls-4" d="m6.19,236.5c2.19.06,4.24.77,4.29,2.8.06,2.48-2.46,2.92-4.38,3.04-2.09.13-4.43-1.17-4.39-3.08.05-2.19,2.72-2.42,4.48-2.76Z"/><path class="cls-4" d="m50.61,239.18c-.82,1.83-2.34,2.97-4.13,3.12-2.16.19-4.68-.31-4.94-2.94-.18-1.79,1.72-2.7,3.5-2.81,2.26-.14,4.21.55,5.57,2.62Z"/><path class="cls-4" d="m206.08,236.51c2.23.01,4.28.72,4.38,2.72.13,2.51-2.39,2.96-4.3,3.11-2.11.16-4.43-1.13-4.45-3.03-.02-2.25,2.68-2.42,4.37-2.81Z"/><path class="cls-4" d="m246.28,236.53c1.56.47,4.19.77,4.01,2.7-.2,2.11-2.53,3.44-4.88,3.08-1.71-.26-4.13-.74-3.9-3,.24-2.3,2.42-2.88,4.77-2.77Z"/><path class="cls-4" d="m34.8,305.56c2.66-2.7,5.44-4.17,8.78-.94.84.82,1.12,1.7.05,2.45-3.18,2.24-6.26,3.08-8.83-1.51Z"/><path class="cls-4" d="m92.81,4.24c3.01,2.87,4.16,5.73.94,8.97-.86.87-1.67.87-2.44-.16-2.49-3.32-2.39-6.26,1.5-8.8Z"/><path class="cls-4" d="m6.05,280.47c1.85.59,4.39.7,4.42,3.15.02,2.06-2.02,2.89-4,2.83-2.03-.06-4.62-.55-4.76-2.64-.13-2,2.32-2.84,4.34-3.34Z"/><path class="cls-4" d="m50.58,283.41c-.6,2.21-2.46,2.64-4.19,2.97-2.14.41-4.34-.24-4.84-2.44-.55-2.41,1.94-2.8,3.58-3.23,2.42-.63,3.94,1.06,5.45,2.7Z"/><path class="cls-4" d="m246.28,286.47c-2.56.03-4.61-.69-4.74-2.68-.16-2.53,2.37-2.97,4.28-3.14,2.12-.18,4.44,1.13,4.5,3,.07,2.36-2.8,2.22-4.04,2.82Z"/><path class="cls-4" d="m29.03,247.58c-.62,1.99-.99,5.02-3.02,5.03-1.99,0-2.73-2.93-2.88-5.05-.14-1.94,1.18-4.19,2.63-4.26,2.05-.11,2.76,2.29,3.28,4.29Z"/><path class="cls-4" d="m205.85,280.48c1.96.51,4.48.62,4.61,3.03.11,2.1-1.93,2.93-3.91,2.93-2.07,0-4.67-.57-4.9-2.55-.23-2.02,2.3-2.82,4.2-3.41Z"/><path class="cls-4" d="m162.79,115.54c-.99,1.63-1.97,4.14-3.72,3.86-1.49-.25-3.02-2.63-2.8-4.69.2-1.92,1.17-4.56,3.21-4.35,2.2.23,2.38,3.17,3.3,5.18Z"/><path class="cls-4" d="m200.51,195c1.89-1.16,3.3-2.44,4.96-2.95,2.05-.62,3.67,1.03,5.31,2.04.93.58.64,1.61-.17,1.97-1.83.83-3.39,2.94-5.79,1.63-1.29-.7-2.49-1.55-4.3-2.7Z"/><path class="cls-4" d="m92.81,253.4c-1.35-2.28-3.87-3.25-3.29-5.41.49-1.8.73-4.89,3.42-4.55,1.89.24,3.09,2.76,2.76,4.7-.3,1.73-1.74,3.27-2.89,5.26Z"/><path class="cls-4" d="m92.85,119.86c-3.79-2.52-4.13-5.4-1.6-8.79,1.02-1.36,1.85-.95,2.78.04,3.02,3.21,1.51,5.91-1.18,8.76Z"/><path class="cls-4" d="m159.15,252.75c-2.76-2.71-4.25-5.48-1.02-8.83,1.08-1.12,1.86-.89,2.75.31,2.6,3.49,1.81,6.22-1.73,8.52Z"/><path class="cls-4" d="m192.84,97.85c-3.8-2.52-4.11-5.41-1.58-8.79,1.02-1.36,1.86-.92,2.78.06,3.01,3.22,1.5,5.91-1.2,8.73Z"/><path class="cls-4" d="m234.65,172.66c2.86-2.71,5.55-4.2,8.76-1.18.99.93,1.37,1.77.02,2.78-3.4,2.55-6.28,2.17-8.78-1.6Z"/><path class="cls-4" d="m192.83,115.23c2.7,2.63,4.31,5.36,1.11,8.77-1,1.07-1.81,1.12-2.76-.15-2.6-3.46-1.96-6.24,1.65-8.62Z"/><path class="cls-4" d="m17.27,172.76c-2.46,3.72-5.36,4-8.73,1.47-1.36-1.02-.92-1.89.08-2.77,3.47-3.08,6.16-1.48,8.65,1.3Z"/><path class="cls-4" d="m59.19,115.18c3.77,2.5,4.09,5.39,1.55,8.78-1.02,1.36-1.86.93-2.78-.06-2.98-3.21-1.55-5.92,1.23-8.72Z"/><path class="cls-4" d="m59.17,97.78c-2.7-2.63-4.31-5.36-1.11-8.76,1-1.07,1.81-1.11,2.77.16,2.6,3.46,1.96,6.24-1.65,8.61Z"/><path class="cls-4" d="m192.64,26.11c3.35,3.01,4.05,5.94,1.31,9.25-1.11,1.35-2.13.63-2.81-.34-2.29-3.28-1.24-6.14,1.49-8.91Z"/><path class="cls-4" d="m17.46,305.94c-1.82,1.09-2.8,3.6-4.96,3.02-1.8-.49-4.89-.72-4.56-3.42.24-1.89,2.72-3,4.71-2.78,1.86.2,3.48,1.48,4.8,3.18Z"/><path class="cls-4" d="m217.28,305.66c-2.37,3.61-5.17,4.24-8.62,1.65-1.27-.95-1.22-1.77-.15-2.76,3.41-3.2,6.14-1.58,8.77,1.12Z"/><path class="cls-4" d="m84.56,350.14c-2.81,2.43-5.23,4.55-8.45,1.72-1.37-1.2-1.36-2.62.06-3.78,3.44-2.81,5.64-.04,8.39,2.06Z"/><path class="cls-4" d="m245.61,331.25c-1.58-1.11-4.55-1.04-4.18-3.54.3-2.04,2.84-2.85,4.77-2.79,1.75.06,4.18,1.14,3.97,3.04-.21,1.9-2.65,2.61-4.57,3.29Z"/><path class="cls-4" d="m178.94,103.44c1.98.59,4.49.85,4.38,2.86-.11,1.94-2.32,3.18-4.4,3.06-1.91-.12-4.49-.6-4.37-2.99.12-2.32,2.81-2.28,4.39-2.92Z"/><path class="cls-4" d="m73.15,109.6c-2.19-.63-4.64-1.44-4.46-3.44.18-2.02,2.73-2.74,4.76-2.5,1.72.21,4.1.69,4.01,2.86-.1,2.45-2.77,2.28-4.3,3.08Z"/><path class="cls-4" d="m92.46,181c3.44,2.96,4.29,5.87,1.54,9.3-.85,1.06-1.74.91-2.51.08-3.03-3.26-.96-6.09.97-9.38Z"/><path class="cls-4" d="m159.38,180.64c.94,1.75,1.69,2.86,2.16,4.08.84,2.18.71,4.25-1.27,5.87-.75.61-1.65.7-2.13-.17-1.09-1.94-3.05-3.78-1.21-6.31.67-.92,1.32-1.86,2.45-3.47Z"/><path class="cls-4" d="m77.64,283.78c-1.28,2.02-3.18,2.92-5.43,2.51-1.53-.28-3.94-.85-3.54-2.66.46-2.04,2.6-3.4,4.98-2.96,1.71.32,3.59.81,3.99,3.11Z"/><path class="cls-4" d="m116.68,283.47c-.63,2.04-2.06,3.05-4.05,2.95-2.12-.1-4.94-.38-4.9-2.91.04-1.93,2.81-2.66,4.7-2.77,1.77-.11,3.51.73,4.25,2.73Z"/><path class="cls-4" d="m139.61,286.5c-2.08-.11-4.04-.82-4.1-2.88-.07-2.21,2.25-2.94,3.94-2.85,2.02.1,4.92.74,4.84,3.12-.06,2.01-2.79,2.37-4.68,2.62Z"/><path class="cls-4" d="m179.07,286.48c-1.87-.45-4.46-.63-4.49-2.95-.03-2.33,2.52-2.86,4.46-2.89,2.05-.03,4.29,1.17,4.3,3.16,0,1.92-2.46,2.25-4.27,2.68Z"/><path class="cls-4" d="m251.25,194.96c-3.02,2.48-5.83,4.51-9.31,1.37-.91-.82-.98-1.72-.12-2.55,3.39-3.28,6.26-1.2,9.44,1.19Z"/><path class="cls-4" d="m167.34,349.96c3.05-1.26,5.2-5.03,8.77-1.61,1.16,1.11,1.01,2.41-.15,3.43-3.44,3-5.85.76-8.62-1.82Z"/><path class="cls-4" d="m59.54,54c-3.51-3-4.24-5.93-1.5-9.33.87-1.08,1.78-.81,2.51,0,2.97,3.28.91,6.1-1.01,9.32Z"/><path class="cls-4" d="m59.09,336.15c1.67.94,2.03,2.46,2.54,3.8.75,2,.57,3.94-1.17,5.47-.89.79-1.86.93-2.47-.22-.97-1.83-2.78-3.56-1.18-5.91.73-1.06,1.51-2.09,2.28-3.14Z"/><path class="cls-4" d="m192.39,335.9c3.69,3.2,4.26,6.2,1.51,9.52-.89,1.07-1.83.64-2.53-.16-2.93-3.36-.62-6.12,1.02-9.36Z"/><path class="cls-4" d="m92.65,341.69c-1.39-.87-1.8-2.37-2.29-3.72-.73-2-.53-3.95,1.22-5.46.92-.79,1.87-.84,2.46.3.96,1.84,2.83,3.62,1.09,5.89-.77,1.01-1.01,2.52-2.49,2.99Z"/><path class="cls-4" d="m151.21,40.01c-2.84,2.21-5.53,4.54-9.12,1.44-1.14-.98-1.16-1.87-.02-2.86,3.58-3.11,6.29-.81,9.14,1.42Z"/><path class="cls-4" d="m100.78,40.02c2.99-2.45,5.8-4.49,9.28-1.34.91.82.98,1.72.12,2.55-3.39,3.26-6.27,1.24-9.41-1.21Z"/><path class="cls-4" d="m159.6,341.97c-3.41-2.82-4.39-5.65-1.7-9.16,1.03-1.35,2.01-1.01,2.84.02,2.77,3.4.49,6.09-1.14,9.14Z"/><path class="cls-4" d="m167.4,172.94c2.81-2.51,5.26-4.78,8.64-1.66,1.16,1.07,1.17,2.37,0,3.43-3.61,3.25-5.7-.34-8.64-1.77Z"/><path class="cls-4" d="m112.14,236.5c2.22,0,4.15.74,4.34,2.73.22,2.28-2.11,2.96-3.8,2.98-2.07.02-4.89-.72-4.97-2.98-.07-2.13,2.7-2.38,4.42-2.73Z"/><path class="cls-4" d="m144.82,239.37c-1.62,1.82-3.46,3.02-5.62,2.85-1.69-.14-4.03-.78-3.69-3.09.29-1.94,2.21-2.74,4.24-2.6,2.04.14,3.74.91,5.07,2.84Z"/><path class="cls-4" d="m192.62,54.37c-.94-1.76-1.69-2.86-2.16-4.08-.84-2.18-.7-4.25,1.27-5.87.75-.61,1.65-.7,2.13.17,1.09,1.94,3.05,3.78,1.21,6.31-.67.92-1.32,1.86-2.45,3.46Z"/><path class="cls-4" d="m83.61,128.87c-1.27,1.85-3.02,2.78-5.08,2.48-1.72-.25-4.21-.75-3.96-2.87.29-2.46,2.85-3.06,5.03-2.77,1.74.23,3.31,1.28,4.02,3.16Z"/><path class="cls-4" d="m172.98,125.42c2,.77,4.74.84,4.43,3.34-.26,2.12-2.74,2.77-4.75,2.6-1.73-.15-4.21-.68-4.02-2.76.19-2.01,2.6-2.6,4.34-3.18Z"/><path class="cls-4" d="m77.78,239.32c-1.08,2.35-2.94,3.12-4.94,3.02-2-.11-4.32-1.22-4.21-3.26.1-1.78,2.51-2.47,4.36-2.47,2.05,0,3.71.95,4.78,2.72Z"/><path class="cls-4" d="m25.89,331.83c2.18.62,2.73,2.45,2.97,4.22.3,2.17-.97,4.43-2.8,4.64-1.72.2-2.82-2.16-2.92-3.99-.1-2.02.65-3.89,2.75-4.87Z"/><path class="cls-4" d="m225.89,154.84c2.18.61,2.73,2.44,2.97,4.21.29,2.17-.97,4.43-2.8,4.65-1.72.2-2.82-2.16-2.92-3.99-.11-2.03.64-3.89,2.75-4.87Z"/><path class="cls-4" d="m110.66,261.74c-1.13,1.96-2.96,2.85-5,2.6-1.75-.21-4.19-1.19-3.84-3.04.33-1.74,2.58-3.06,4.79-2.64,1.74.33,3.63.8,4.04,3.09Z"/><path class="cls-4" d="m228.97,336.23c-.14,2.1-1.25,4.38-2.72,4.43-2,.07-3.16-2.2-3.11-4.3.04-1.83.66-4.17,2.62-4.32,2.54-.2,2.6,2.48,3.21,4.19Z"/><path class="cls-4" d="m150.53,261.31c-.9,1.8-2.4,2.91-4.22,3.03-2.03.14-4.45-.48-4.76-2.68-.32-2.25,2.16-2.68,3.88-3.02,2.22-.44,3.63,1.15,5.1,2.66Z"/><path class="cls-4" d="m184.21,150.84c-.84,1.39-2.34,1.77-3.67,2.28-2.28.87-4.23-.05-5.78-1.71-.7-.75-.22-1.59.61-2.01,1.84-.91,3.61-2.77,5.85-1.04,1.01.78,2.49,1.02,2.98,2.48Z"/><path class="cls-4" d="m128.98,180.94c-.14,2.41-1.27,4.67-2.73,4.73-2,.08-3.16-2.19-3.12-4.29.04-1.83.65-4.14,2.62-4.33,2.65-.25,2.38,2.63,3.23,3.88Z"/><path class="cls-4" d="m67.56,150.95c2.83-3.26,5.69-4.22,9.14-1.53,1.01.78,1.16,1.62.2,2.42-3.37,2.81-6.28,1.4-9.33-.89Z"/><path class="cls-4" d="m25.83,154.85c2.22.52,2.74,2.37,3.02,4.13.34,2.19-.93,4.44-2.73,4.71-1.78.27-2.83-2.12-2.98-3.92-.17-2.03.64-3.88,2.69-4.93Z"/><path class="cls-4" d="m129,48.25c-.28,2.03-1.08,4.39-3.08,4.45-1.61.05-2.84-2.23-2.78-4.14.07-1.97.57-4.46,2.94-4.5,2.13-.04,2.31,2.44,2.92,4.19Z"/><path class="cls-4" d="m26.07,181.95c1.63,1.37,3.13,2.8,2.78,4.99-.27,1.74-.73,4.19-2.92,4.01-2.3-.19-2.82-2.65-2.8-4.65.02-1.88,1.25-3.29,2.93-4.35Z"/><path class="cls-4" d="m229,186.74c-.6,1.75-.79,4.22-2.92,4.19-2.38-.03-2.88-2.51-2.94-4.48-.06-1.9,1.17-4.18,2.78-4.14,2,.06,2.8,2.41,3.08,4.43Z"/><path class="cls-4" d="m150.52,128.73c-1.5,1.47-2.9,3.09-5.13,2.62-1.71-.36-4.19-.79-3.82-3.06.35-2.17,2.76-2.81,4.79-2.63,1.81.16,3.32,1.24,4.17,3.07Z"/><path class="cls-4" d="m110.79,128.47c-1.14,2.25-3,3.04-5.03,2.89-1.81-.13-4.19-1.2-3.93-2.97.26-1.8,2.51-3.04,4.71-2.75,1.81.24,3.47,1,4.26,2.82Z"/><path class="cls-4" d="m28.97,292.23c-.14,2.09-1.26,4.37-2.72,4.42-2,.07-3.15-2.2-3.11-4.29.03-1.84.66-4.15,2.63-4.31,2.54-.2,2.61,2.46,3.21,4.18Z"/><path class="cls-4" d="m225.89,287.82c2.18.6,2.75,2.44,2.97,4.2.28,2.16-.95,4.43-2.8,4.65-1.72.2-2.82-2.15-2.92-3.98-.11-2.03.64-3.89,2.75-4.87Z"/><path class="cls-4" d="m245.86,109.5c-1.75-.54-4.34-.66-4.3-3.12.04-2.06,2.39-2.62,4.19-2.74,2.12-.14,4.39,1.04,4.43,2.99.03,1.57-2.29,2.55-4.32,2.87Z"/><path class="cls-4" d="m210.71,105.99c-.5,2.52-2.33,3.04-4.04,3.34-2.34.41-4.6-.92-4.88-2.91-.21-1.47,2.19-2.66,4.02-2.79,2.06-.15,3.66.93,4.91,2.37Z"/><path class="cls-4" d="m46.01,109.55c-1.96-.65-4.61-.72-4.45-3.25.12-1.99,2.45-2.61,4.29-2.66,2.11-.06,4.39,1.11,4.35,3.08-.03,1.48-2.38,2.48-4.19,2.83Z"/><path class="cls-4" d="m29,230.76c-.6,1.75-.79,4.21-2.92,4.17-2.38-.04-2.89-2.51-2.93-4.49-.05-1.9,1.16-4.18,2.78-4.13,2,.07,2.79,2.42,3.07,4.44Z"/><path class="cls-4" d="m10.7,106.13c-.56,2.42-2.42,2.94-4.17,3.22-2.19.34-4.44-.94-4.71-2.72-.27-1.78,2.11-2.8,3.91-2.99,2.09-.23,3.77.84,4.97,2.5Z"/><path class="cls-4" d="m59.33,26.3c1.42.81,1.77,2.33,2.29,3.65.89,2.28-.05,4.23-1.69,5.79-.73.7-1.59.25-2.01-.59-.92-1.84-2.78-3.6-1.06-5.85.77-1.01,1.03-2.48,2.47-3Z"/><path class="cls-4" d="m92.89,208.85c-1.65-.96-2-2.47-2.52-3.8-.88-2.28.05-4.23,1.7-5.79.73-.69,1.59-.23,2.01.61.92,1.84,2.72,3.56,1.07,5.87-.74,1.05-1.51,2.07-2.27,3.11Z"/><path class="cls-4" d="m159.4,208.88c-3.15-2.73-4.21-5.55-1.5-9.03.76-.98,1.59-1.26,2.41-.27,2.79,3.34,1.56,6.3-.92,9.3Z"/><path class="cls-4" d="m84.21,305.83c-.83,1.4-2.33,1.78-3.66,2.29-2.28.87-4.23-.06-5.78-1.71-.69-.74-.23-1.59.61-2.01,1.84-.92,3.6-2.78,5.85-1.05,1,.78,2.49,1.02,2.98,2.47Z"/><path class="cls-4" d="m167.64,305.88c2.72-3.17,5.55-4.18,9.02-1.5.98.76,1.24,1.59.26,2.41-3.34,2.8-6.29,1.57-9.28-.91Z"/><path class="cls-4" d="m10.82,327.69c-.39,2.34-2.42,2.83-4.01,3.2-2.32.54-4.62-1.05-4.93-2.96-.25-1.54,2.39-2.8,4.02-2.96,1.9-.19,3.76.92,4.92,2.72Z"/><path class="cls-4" d="m226.22,225.98c1.48,1.5,3.09,2.9,2.62,5.13-.36,1.71-.8,4.19-3.06,3.82-2.17-.35-2.81-2.76-2.63-4.79.16-1.81,1.23-3.33,3.07-4.16Z"/><path class="cls-4" d="m240.38,81.6c1.3.46,3.95.48,3.73,2.55-.24,2.23-2.78,3.39-4.92,3.03-1.69-.28-4.42-1.27-4.07-3.26.29-1.62,2.71-2.67,5.26-2.33Z"/><path class="cls-4" d="m217.42,84.34c-2.98,2.68-5.68,4.25-8.86,1.17-1.01-.97-1.33-1.9.07-2.75,3.26-2,6.14-1.64,8.8,1.59Z"/><path class="cls-4" d="m192.76,159.09c2.73,2.88,4.33,5.55,1.31,8.78-.9.97-1.86,1.51-2.77.09-2.08-3.23-1.7-6.15,1.46-8.87Z"/><path class="cls-4" d="m229.03,25.98c-.31,2.3-1.12,4.66-3.12,4.72-1.61.05-2.84-2.23-2.78-4.14.06-1.97.56-4.45,2.94-4.5,2.18-.05,2.18,2.53,2.95,3.93Z"/><path class="cls-4" d="m126.23,309.84c1.99,1.11,2.86,2.95,2.62,4.99-.21,1.76-1.21,4.21-3.03,3.87-1.73-.32-3.06-2.58-2.67-4.79.31-1.75.8-3.62,3.08-4.08Z"/><path class="cls-4" d="m167.11,84.05c1.91-.98,3.03-1.67,4.24-2.15,2.3-.9,4.23.03,5.84,1.6.69.67.4,1.6-.48,2.04-1.84.92-3.54,2.75-5.88,1.18-1.07-.71-2.09-1.5-3.72-2.67Z"/><path class="cls-4" d="m28.98,26.33c-.21,2.05-1.27,4.34-2.78,4.36-1.98.02-3.15-2.24-3.06-4.36.08-1.83.67-4.16,2.68-4.27,2.52-.14,2.59,2.51,3.17,4.27Z"/><path class="cls-4" d="m129.03,208.6c-.62,1.82-.72,4.36-3.14,4.34-2.06-.02-2.56-2.34-2.76-4.09-.24-2.12,1.07-4.48,2.75-4.59,1.89-.12,2.71,2.34,3.15,4.33Z"/><path class="cls-4" d="m184.21,17.85c-.83,1.41-2.34,1.78-3.66,2.29-2.29.88-4.23-.07-5.79-1.71-.7-.73-.25-1.59.6-2,1.85-.9,3.61-2.79,5.86-1.06,1.01.77,2.49,1.02,2.99,2.47Z"/><path class="cls-4" d="m84.42,84.07c-2.88,3.33-5.76,4.19-9.17,1.48-1.03-.82-1.01-1.66-.09-2.43,3.19-2.64,6.1-1.45,9.26.95Z"/><path class="cls-4" d="m67.53,18c2.95-3.39,5.85-4.21,9.25-1.49,1.05.84.94,1.69.03,2.44-3.21,2.64-6.11,1.34-9.27-.94Z"/><path class="cls-4" d="m34.6,84.41c1.24-1.7,2.61-2.72,4.5-2.87,1.9-.14,3.65.44,4.9,1.82.89.97-.09,1.85-.89,2.38-1.61,1.08-3.24,2.44-5.34.96-1.04-.73-2.06-1.49-3.18-2.3Z"/><path class="cls-4" d="m122.94,341.93c.39-2.26,1.17-4.63,3.2-4.63,1.55,0,2.85,2.27,2.71,4.21-.14,1.94-.56,4.47-3.01,4.44-2.16-.03-2.13-2.6-2.91-4.02Z"/><path class="cls-4" d="m12.09,81.43c2.39.26,4.9.97,4.81,2.88-.07,1.53-2.56,3-4.55,2.93-1.94-.07-4.45-1.02-4.47-3.08-.02-2.41,2.83-2.06,4.21-2.74Z"/><path class="cls-4" d="m125.93,80.17c-2.14-.92-2.86-2.79-2.79-4.81.06-1.85,1.18-4.19,2.88-4.03,1.88.17,3.09,2.44,2.85,4.59-.2,1.78-.78,3.59-2.93,4.25Z"/><path class="cls-4" d="m92.51,314.02c3.31,2.87,4.28,5.73,1.55,9.17-.8,1-1.62,1.12-2.43.17-2.68-3.17-1.45-6.09.87-9.34Z"/><path class="cls-4" d="m90.06,70.2c.42-1.35.5-3.98,2.52-3.82,2.26.18,3.4,2.74,3.1,4.88-.24,1.74-1.33,4.44-3.23,4.15-1.6-.24-2.67-2.69-2.39-5.21Z"/><path class="cls-4" d="m50.52,327.97c-1.36,1.62-2.91,3.25-4.87,3.02-1.74-.21-4.42-.8-4.26-3.23.13-1.97,2.58-2.66,4.24-2.79,1.99-.17,3.51,1.42,4.89,3.01Z"/><path class="cls-4" d="m206.25,331.25c-1.77-.8-4.32-1.38-4.38-3.35-.05-1.64,2.43-2.85,4.08-2.94,1.86-.1,4.45.74,4.65,2.85.23,2.43-2.68,2.38-4.35,3.43Z"/><path class="cls-4" d="m129,4.6c-.45,1.83-1.28,4.2-2.96,4.1-1.93-.12-3.12-2.4-2.9-4.53.18-1.76.69-4.17,2.83-4.11,2.41.07,2.54,2.62,3.04,4.54Z"/><path class="cls-4" d="m84.36,217.14c-2.75,3.16-5.61,4.14-9.05,1.43-1-.78-1.17-1.63-.2-2.42,3.35-2.73,6.3-1.56,9.25.98Z"/><path class="cls-4" d="m167.67,217.4c.94-1.65,2.45-2.01,3.77-2.52,2.28-.89,4.23.05,5.79,1.68.69.72.26,1.59-.59,2.01-1.84.91-3.56,2.72-5.87,1.1-1.05-.74-2.07-1.51-3.11-2.27Z"/><path class="cls-4" d="m229.08,53.63c-.79,1.92-.86,4.66-3.35,4.3-2.07-.29-2.74-2.73-2.58-4.73.14-1.78,1.21-4.08,2.89-3.94,1.92.17,2.59,2.55,3.04,4.36Z"/><path class="cls-4" d="m25.93,58.17c-2.14-.92-2.85-2.8-2.79-4.82.06-1.85,1.18-4.18,2.88-4.02,1.88.17,3.1,2.44,2.84,4.59-.21,1.77-.77,3.59-2.93,4.25Z"/><path class="cls-4" d="m59.18,158.9c1.38,1.45,2.42,2.53,2.71,4.04.39,2.07-.2,3.94-1.59,5.46-.96,1.04-1.86.17-2.41-.61-1.22-1.73-2.67-3.48-.93-5.73.69-.89,1.3-1.84,2.21-3.14Z"/><path class="cls-4" d="m159.4,314.26c1.33.92,1.74,2.41,2.26,3.76.81,2.11-.07,3.95-1.47,5.47-.7.75-1.58.2-2.1-.5-1.27-1.73-2.92-3.49-1.2-5.77.77-1.01,1.01-2.53,2.51-2.97Z"/><path class="cls-4" d="m179.08,236.51c1.77.39,4.13.7,4.27,2.67.14,1.92-2.15,3.1-3.84,3.03-1.99-.09-4.85-.66-4.83-3.15.01-1.78,2.54-2.24,4.41-2.54Z"/></g><rect class="cls-2" x="19.5" y="19" width="213" height="309" rx="9.42" ry="9.42"/></g></svg>