<?xml version="1.0" encoding="UTF-8"?><svg xmlns="http://www.w3.org/2000/svg" viewBox="0 0 252 347"><defs><style>.cls-1{fill:#fff;stroke:#2b2b2b;stroke-width:.25px;}.cls-1,.cls-2{stroke-miterlimit:10;}.cls-3{font-family:ElzaText-Medium, 'Elza Text';font-size:44.94px;font-weight:500;}.cls-3,.cls-4{fill:#f46300;}.cls-2{fill:none;stroke:#f46300;stroke-width:3px;}.cls-4{stroke-width:0px;}</style></defs><g id="Layer_2"><rect class="cls-1" x="6" y="7" width="240" height="333" rx="16.98" ry="16.98"/></g><g id="Layer_3"><text class="cls-3" transform="translate(22.72 58.02)"><tspan x="0" y="0">J</tspan></text><polygon class="cls-4" points="39.38 72.75 46.52 73.68 41.24 78.88 42.32 86.07 35.99 82.78 29.52 86.3 30.88 79.07 25.8 74.05 32.98 72.87 36.31 66.25 39.38 72.75"/><text class="cls-3" transform="translate(234.59 292.88) rotate(-180)"><tspan x="0" y="0">J</tspan></text><polygon class="cls-4" points="217.94 278.15 210.8 277.23 216.08 272.02 215 264.83 221.33 268.12 227.8 264.6 226.44 271.84 231.52 276.86 224.34 278.04 221.01 284.66 217.94 278.15"/></g><g id="Layer_4"><path class="cls-4" d="m187.41,116.38c-11.18-9.5-35.68-19.53-62.68-19.53s-55.5,16.03-60.5,21.03l17,38h91.4s15.19-39.16,14.78-39.5Zm-102.82,33.5l-14-29c6-4,15-8,24-11l10,40h-20Zm27.74-1l-9-41c7-3,28-5,45-1l-9,42h-27Zm56.26,1h-21s11.86-40,12-40c6,2,19,8,22,11l-13,29Z"/><path class="cls-4" d="m85.59,157.88s-12.6,50.5,10.4,85.5c2.46,3.74-14.53,8.54-25,6.12-13-3-17.8-7.25-23-17-8-15-4-38,7-55,13.42-20.74,25.6-19.62,25.6-19.62h5Z"/><path class="cls-4" d="m166.41,157.5s12.6,50.5-10.4,85.5c-2.46,3.74,14.53,8.54,25,6.12,13-3,17.8-7.25,23-17,8-15,4-38-7-55-13.42-20.74-25.6-19.62-25.6-19.62h-5Z"/><polygon class="cls-4" points="130.18 121.33 139.01 122.47 132.48 128.9 133.82 137.79 125.99 133.72 118 138.07 119.68 129.13 113.4 122.92 122.27 121.47 126.39 113.28 130.18 121.33"/><polygon class="cls-4" points="89.02 128.79 94.09 128 91.51 132.61 93.68 137.32 88.69 136.33 84.97 140.02 84.46 134.8 79.98 132.38 84.66 130.14 85.62 124.95 89.02 128.79"/><polygon class="cls-4" points="168.15 130.68 172.64 133.17 167.77 135.23 166.61 140.29 163.27 136.44 158.06 137.09 160.86 132.64 158.8 127.99 163.87 129.08 167.81 125.57 168.15 130.68"/><path class="cls-4" d="m137.6,226.84c1.32.6,1.32,2.48,0,3.08-2.47,1.13-6.31,2.46-10.61,2.46s-8.14-1.33-10.61-2.46c-1.32-.6-1.32-2.48,0-3.08,2.47-1.13,6.31-2.46,10.61-2.46s8.14,1.33,10.61,2.46Z"/><path class="cls-2" d="m122.48,186l-3.43,21.84c-.3,1.92,1.18,3.66,3.13,3.66h9.59c1.95,0,3.43-1.74,3.13-3.66l-3.43-21.84"/></g></svg>