<?xml version="1.0" encoding="UTF-8"?><svg xmlns="http://www.w3.org/2000/svg" viewBox="0 0 252 347"><defs><style>.cls-1{fill:#fff;stroke:#2b2b2b;stroke-width:.25px;}.cls-1,.cls-2{stroke-miterlimit:10;}.cls-3{font-family:ElzaText-Medium, 'Elza Text';font-size:44.94px;font-weight:500;}.cls-3,.cls-4{fill:#f46300;}.cls-2{fill:none;stroke:#f46300;stroke-width:2px;}.cls-4{stroke-width:0px;}</style></defs><g id="Layer_2"><rect class="cls-1" x="6" y="7" width="240" height="333" rx="16.98" ry="16.98"/></g><g id="Layer_3"><text class="cls-3" transform="translate(19.77 58.02)"><tspan x="0" y="0">Q</tspan></text><polygon class="cls-4" points="40.36 72.75 47.5 73.68 42.22 78.88 43.3 86.07 36.97 82.78 30.5 86.3 31.86 79.07 26.78 74.05 33.96 72.87 37.29 66.25 40.36 72.75"/><text class="cls-3" transform="translate(236.48 293.32) rotate(-180)"><tspan x="0" y="0">Q</tspan></text><polygon class="cls-4" points="215.9 278.59 208.76 277.67 214.04 272.47 212.95 265.27 219.29 268.57 225.76 265.05 224.39 272.28 229.47 277.3 222.3 278.48 218.97 285.1 215.9 278.59"/></g><g id="Layer_4"><path class="cls-4" d="m195.93,106.51l-5.17,1.1-2.12,4.73-1.79-3.12-12.8,24.78h-95.74l-14.29-25.2-1.75,2.46-1.61-4.83-5.06-1.41,4.29-3.02-.11-5.09,4.26,2.96,4.99-1.74-1.66,4.85,3.19,4.02-4.27.03c2.33,3.18,7.83,8.63,16.34,4.97,8.46-3.64,8.29-12.23,7.74-16.07l-2.2,2.35-.96-5-4.83-2.06,4.65-2.43.57-5.06,3.83,3.49,5.17-1.06-2.28,4.59,2.63,4.41-3.16-.4c1.83,3.58,6.96,11.22,16.84,9.24,9.07-1.82,11.19-9.84,11.45-15.91l-5.1,2.77,1.69-8.94-6.28-6.2,8.87-1.46,4.11-8.19,3.8,8.05,8.82,1.14-6.52,6.43,1.34,8.89-4.61-2.39c.33,5.54,2.39,12.62,10.43,14.81,8.23,2.24,14.42-5.02,17.02-8.83l-3.75.46,2.8-4.44-2.05-4.66,5.06,1.1,3.94-3.52.34,5.12,4.49,2.48-4.86,2.07-1.17,5.05-2.03-2.33c-.61,3.9-.56,11.43,7.58,15.5,8.81,4.4,15.46-.35,18.38-3.19l-3.51-.25,3.6-3.82-1.12-4.97,4.76,2.05,4.55-2.69-.66,5.09,3.93,3.29Z"/><path class="cls-4" d="m78.42,136.49c-5.44,3.62-8.15,7.25-9.96,16.31-1.43,7.16-8.5,8-12.4,18.04s-1.19,14.8-4.36,22.38-13.82,13.37-11.7,23.28c2.72,12.68-4,23-3,32,1.8,16.21,19.9,17,26,17,8.15,0,18.09-5.29,27.2-9.44,9.96-4.53,6.34-31.7,4.53-35.33s-12.8-45.29-9.06-84.24c.01-.12-7.25,0-7.25,0Z"/><path class="cls-4" d="m174.36,136.49c5.44,3.62,8.15,7.25,9.96,16.31,1.43,7.16,8.5,8,12.4,18.04s1.19,14.8,4.36,22.38c3.17,7.58,13.82,13.37,11.7,23.28-2.72,12.68,4,23,3,32-1.8,16.21-19.9,17-26,17-8.15,0-18.09-5.29-27.2-9.44-9.96-4.53-6.34-31.7-4.53-35.33s12.8-45.29,9.06-84.24c-.01-.12,7.25,0,7.25,0Z"/><path class="cls-4" d="m145,207.5s-.01,0-.03.01c-.5.31-7.69,4.49-16.47,4.49s-15.97-4.18-16.47-4.49c-.02-.01-.03-.01-.03-.01,0,0,.03-.01.09-.02.86-.22,7.89-1.97,10.91-3.48,4-2,6,0,6,0,0,0,2-2,6,0,1.94.97,9.51,3.35,9.98,3.49.01.01.02.01.02.01Z"/><path class="cls-2" d="m129,166l3.01,21.92c.26,1.89-1.21,3.58-3.12,3.58h-3.52c-.73,0-1.31-.63-1.24-1.37l.36-3.63"/></g></svg>