<?xml version="1.0" encoding="UTF-8"?><svg id="Layer_2" xmlns="http://www.w3.org/2000/svg" viewBox="0 0 429 227"><defs><style>.cls-1{fill:#fff;stroke-width:0px;}</style></defs><path class="cls-1" d="m417.5,170.25c0,21.7-37.13,39.29-82.95,39.29-21.85,0-41.71-4.02-56.51-10.54-9.82,2.55-21.06,3.99-32.98,3.99-17.72,0-33.88-3.21-46.19-8.47-9.19,5.39-19.89,8.47-31.3,8.47-16.57,0-31.63-6.48-42.76-17.07-3.67,1.16-7.66,1.79-11.81,1.79-16.31,0-29.93-9.69-33.11-22.57-5.35,1.9-11.09,2.93-17.09,2.93-28.33,0-51.3-22.96-51.3-51.3s22.96-51.3,51.3-51.3c3.67,0,7.25.39,10.7,1.13,6.37-6.09,15.34-9.87,25.32-9.87,3.1,0,6.13.37,8.99,1.07,6.33-23.44,24.34-40.36,45.58-40.36,18.34,0,34.27,12.62,42.37,31.15,8.8-4.56,18.9-7.14,29.66-7.14,31.56,0,57.56,22.22,60.79,50.75,2.23-.37,4.54-.55,6.88-.55,22.9,0,41.47,17.59,41.47,39.29,45.82,0,82.95,17.59,82.95,39.29Z"/></svg>