<?xml version="1.0" encoding="UTF-8"?><svg id="Layer_2" xmlns="http://www.w3.org/2000/svg" viewBox="0 0 389 221"><defs><style>.cls-1{fill:#fff;stroke-width:0px;}</style></defs><path class="cls-1" d="m381.5,140.5c0,18.43-12.97,34.6-32.48,43.7-.02,0-.03.02-.05.03-24.24,13.33-84.04,22.77-153.97,22.77s-130.67-9.58-154.53-23.09c0,0-.02-.01-.03-.01-19.62-8.56-32.94-25.24-32.94-44.4,0-27.89,28.21-50.5,63-50.5,5.37,0,10.57.54,15.54,1.55,6.35-28.36,31.68-49.55,61.96-49.55,8.06,0,15.77,1.5,22.86,4.25,12.19-18.84,33-31.25,56.64-31.25,37.56,0,68,31.34,68,70,0,2.24-.1,4.45-.31,6.63,5.53-1.06,11.33-1.63,17.31-1.63,38.11,0,69,23.06,69,51.5Z"/></svg>