<?xml version="1.0" encoding="UTF-8"?><svg id="Layer_2" xmlns="http://www.w3.org/2000/svg" viewBox="0 0 380 203"><defs><style>.cls-1{fill:#fff;stroke-width:0px;}</style></defs><path class="cls-1" d="m371,135.74c0,10.33-6.67,19.63-17.32,26.06,0,.02-.02.02-.04.02-16.14,14.17-83.71,24.79-164.62,24.79s-142.82-9.74-162.33-23.05c-.22-.12-.43-.27-.65-.43-10.37-6.77-17.04-17.42-17.04-29.35,0-17.98,15.13-32.99,35.22-36.43.12-44.75,34.67-80.97,77.29-80.97,18.51,0,35.48,6.83,48.78,18.22,9.26-7.65,21.68-12.35,35.36-12.35,26.2,0,47.86,17.22,51.35,39.6,28.45,2.8,51.54,18.33,58.78,38.7.78-.02,1.58-.04,2.39-.04,29.18,0,52.83,15.77,52.83,35.22Z"/></svg>