<?xml version="1.0" encoding="UTF-8"?><svg id="Layer_2" xmlns="http://www.w3.org/2000/svg" viewBox="0 0 43 744"><defs><style>.cls-1{fill:#999;}.cls-1,.cls-2{stroke-width:0px;}.cls-2{fill:#777;}</style></defs><path class="cls-1" d="m9.47,737.66V46.62c2.86-2.07,4.23-6.35,5.02-9.42l.09-.36-.33-.17c-5.41-2.75-8.77-8.22-8.77-14.29,0-8.84,7.19-16.03,16.03-16.03s16.03,7.19,16.03,16.03c0,6.05-3.35,11.53-8.76,14.28l-.31.16.07.34c.65,3.36,1.57,6.85,5,9.45v691.05H9.47Z"/><path class="cls-2" d="m21.5,6.81c8.58,0,15.57,6.98,15.57,15.57,0,5.88-3.26,11.19-8.5,13.87l-.62.32.13.69c.65,3.39,1.58,6.91,4.99,9.59v690.35H9.93V46.85c2.85-2.2,4.22-6.46,5-9.54l.18-.72-.67-.34c-5.26-2.67-8.52-7.98-8.52-13.88,0-8.58,6.98-15.57,15.57-15.57m0-.93c-9.11,0-16.5,7.39-16.5,16.5,0,6.42,3.67,11.99,9.03,14.71-.94,3.68-2.38,7.52-5.03,9.29v691.75h25V46.38h0c-3.38-2.47-4.33-5.79-5.01-9.31,5.35-2.73,9.01-8.29,9.01-14.7,0-9.11-7.39-16.5-16.5-16.5h0Z"/></svg>