<?xml version="1.0" encoding="UTF-8"?><svg id="Layer_3" xmlns="http://www.w3.org/2000/svg" viewBox="0 0 412 250"><defs><style>.cls-1{fill:#999;}.cls-1,.cls-2,.cls-3{stroke-width:0px;}.cls-2{fill:#898989;}.cls-3{fill:#4c4c4c;}</style></defs><rect class="cls-1" x="99.68" y="-24.27" width="8.71" height="298.61" transform="translate(-57.94 110.17) rotate(-45)"/><path class="cls-2" d="m1.54,17.29l210.23,210.23-5.24,5.24L-3.71,22.54l5.24-5.24m0-1.83l-7.07,7.07,212.06,212.06,7.07-7.07L1.54,15.46h0Z"/><rect class="cls-1" x="160.15" y="120.81" width="298.61" height="8.71" transform="translate(2.14 255.48) rotate(-45)"/><path class="cls-2" d="m411.95,17.42l5.24,5.24-210.23,210.23-5.24-5.24L411.95,17.42m0-1.83l-212.06,212.06,7.07,7.07L419.02,22.67l-7.07-7.07h0Z"/><rect class="cls-1" x="-6.57" y="14.93" width="425.14" height="24.14"/><path class="cls-3" d="m418.14,15.36v23.28H-6.14V15.36h424.28m.86-.86H-7v25h426V14.5h0Z"/><rect class="cls-1" x="-6.57" y="210.93" width="425.14" height="24.14"/><path class="cls-3" d="m418.14,211.36v23.28H-6.14v-23.28h424.28m.86-.86H-7v25h426v-25h0Z"/></svg>